<svg width="33" height="24" viewBox="0 0 33 24" fill="none" xmlns="http://www.w3.org/2000/svg">
<path d="M28.5438 2.73283C25.7613 0.493749 21.3596 0.114198 21.1712 0.100545C20.879 0.0759695 20.6005 0.239805 20.4803 0.510133C20.4694 0.526516 20.3739 0.747693 20.2674 1.09175C22.1078 1.40303 24.3687 2.02834 26.4139 3.29806C26.7416 3.50012 26.8426 3.93155 26.6405 4.25922C26.5067 4.47494 26.2801 4.59235 26.0453 4.59235C25.9197 4.59235 25.7913 4.55686 25.6766 4.48586C22.1597 2.30412 17.7689 2.1949 16.9224 2.1949C16.0759 2.1949 11.6824 2.30412 8.16815 4.48586C7.84048 4.69065 7.40905 4.58962 7.20698 4.26195C7.00219 3.93155 7.10322 3.50285 7.43089 3.29806C9.4761 2.03107 11.737 1.40303 13.5774 1.09448C13.4709 0.747693 13.3754 0.529247 13.3672 0.510133C13.2443 0.239805 12.9685 0.0705087 12.6736 0.100545C12.4852 0.114198 8.0835 0.493749 5.26281 2.76286C3.79103 4.12542 0.844727 12.0878 0.844727 18.9716C0.844727 19.0945 0.877494 19.2119 0.937567 19.3184C2.96912 22.89 8.51493 23.8238 9.77919 23.8648C9.78465 23.8648 9.79284 23.8648 9.80104 23.8648C10.0249 23.8648 10.2352 23.7583 10.3663 23.5781L11.6442 21.8196C8.19545 20.9294 6.43423 19.4167 6.3332 19.3266C6.04376 19.0726 6.01645 18.6303 6.27312 18.3408C6.52707 18.0514 6.96942 18.0241 7.25886 18.278C7.29982 18.3163 10.5438 21.0687 16.9224 21.0687C23.312 21.0687 26.5559 18.3053 26.5887 18.278C26.8781 18.0268 27.3177 18.0514 27.5744 18.3436C27.8283 18.633 27.801 19.0726 27.5116 19.3266C27.4106 19.4167 25.6493 20.9294 22.2006 21.8196L23.4785 23.5781C23.6096 23.7583 23.8198 23.8648 24.0438 23.8648C24.0519 23.8648 24.0601 23.8648 24.0656 23.8648C25.3299 23.8238 30.8757 22.89 32.9072 19.3184C32.9673 19.2119 33.0001 19.0945 33.0001 18.9716C33.0001 12.0878 30.0538 4.12542 28.5438 2.73283ZM12.3787 16.1755C11.0271 16.1755 9.93211 14.9249 9.93211 13.3794C9.93211 11.8339 11.0271 10.5833 12.3787 10.5833C13.7303 10.5833 14.8253 11.8339 14.8253 13.3794C14.8253 14.9249 13.7303 16.1755 12.3787 16.1755ZM21.4661 16.1755C20.1144 16.1755 19.0195 14.9249 19.0195 13.3794C19.0195 11.8339 20.1144 10.5833 21.4661 10.5833C22.8177 10.5833 23.9127 11.8339 23.9127 13.3794C23.9127 14.9249 22.8177 16.1755 21.4661 16.1755Z" fill="url(#paint0_linear_23_322)"/>
<defs>
<linearGradient id="paint0_linear_23_322" x1="16.9224" y1="0.0971069" x2="16.9224" y2="23.8648" gradientUnits="userSpaceOnUse">
<stop stop-color="#C4C4C4"/>
<stop offset="1" stop-color="#A2A2A2"/>
</linearGradient>
</defs>
</svg>
