<svg width="32" height="26" viewBox="0 0 32 26" fill="none" xmlns="http://www.w3.org/2000/svg">
<path d="M31.4563 3.06599C30.2992 3.58389 29.0551 3.93606 27.7495 4.09143C29.0807 3.2835 30.1047 2.00428 30.5859 0.481649C29.3418 1.22743 27.9595 1.77123 26.4901 2.06643C25.3125 0.79757 23.6332 0 21.7798 0C18.2164 0 15.3237 2.92615 15.3237 6.53076C15.3237 7.04348 15.38 7.54067 15.4926 8.01714C10.127 7.74783 5.37071 5.14796 2.19129 1.19636C1.63323 2.15966 1.3158 3.2835 1.3158 4.47986C1.3158 6.7431 2.4524 8.7422 4.18803 9.91266C3.12822 9.87641 2.13497 9.58638 1.2646 9.09438C1.2646 9.12545 1.2646 9.15135 1.2646 9.17724C1.2646 12.3416 3.48661 14.9829 6.44076 15.5785C5.89806 15.7287 5.32976 15.8116 4.74097 15.8116C4.32627 15.8116 3.91668 15.7701 3.52757 15.6925C4.34675 18.2872 6.73259 20.1723 9.55363 20.2293C7.34697 21.9798 4.56178 23.0208 1.54107 23.0208C1.01885 23.0208 0.506865 22.9897 0 22.9276C2.85687 24.7817 6.24621 25.8641 9.89153 25.8641C21.7644 25.8641 28.2564 15.9152 28.2564 7.2869C28.2564 7.00723 28.2462 6.72238 28.2359 6.44271C29.4954 5.52084 30.5911 4.3711 31.4563 3.06599Z" fill="url(#paint0_linear_23_323)"/>
<defs>
<linearGradient id="paint0_linear_23_323" x1="15.7282" y1="0" x2="15.7282" y2="25.8641" gradientUnits="userSpaceOnUse">
<stop stop-color="#C4C4C4"/>
<stop offset="1" stop-color="#A2A2A2"/>
</linearGradient>
</defs>
</svg>
