<svg width="2024" height="1825" viewBox="0 0 2024 1825" fill="none" xmlns="http://www.w3.org/2000/svg">
<path d="M969.5 1594.5C1129 1582.5 1040.26 1678.95 1235.81 1695.32C1372.72 1706.77 1491.41 1565.14 1490.61 1426.51C1489.42 1215.12 1258.45 1106.62 1113.51 1197.84C1024.17 1253.95 979.176 1344.67 863.825 1357.95C741.11 1372.09 585.765 1287.49 582.605 1106.69C579.169 906.257 778.858 783.576 907.258 843.36C991.967 882.825 1109.87 969.759 1230.81 941.233C1334.82 916.607 1417.39 833.011 1426.15 686.519C1434.57 545.706 1281.51 368.079 1090.18 468.567C1013.08 509.02 965.947 624.663 771.175 621.497C662.824 619.726 536.569 515.062 545.752 356.855C554.935 198.648 717.31 99.6485 820.834 109.19C930.151 119.238 970.5 202.998 1021.5 202.998" stroke="url(#paint0_linear_256_2)" stroke-width="40" stroke-miterlimit="10"/>
<rect x="1006.01" y="182.78" width="1017.45" height="40.3736" rx="14" transform="rotate(-0.107302 1006.01 182.78)" fill="#E71525"/>
<rect y="1574.9" width="1017.45" height="41.3105" rx="14" transform="rotate(-0.107302 0 1574.9)" fill="#6940A1"/>
<defs>
<linearGradient id="paint0_linear_256_2" x1="737.047" y1="124.087" x2="1619.41" y2="1381.35" gradientUnits="userSpaceOnUse">
<stop stop-color="#FF0D0D"/>
<stop offset="0.963542" stop-color="#6441A5"/>
</linearGradient>
</defs>
</svg>
