<svg width="860" height="67" viewBox="0 0 860 67" fill="none" xmlns="http://www.w3.org/2000/svg">
<path d="M29.4244 10.22L28.9478 11.0991L28.9521 11.1015L29.4244 10.22ZM37.1644 17.72L38.0359 17.2297L37.1644 17.72ZM37.1644 39.56L38.0385 40.0456L37.1644 39.56ZM29.4244 47.24L29.9091 48.1147L29.9127 48.1127L29.4244 47.24ZM0.0843811 50H-0.915619C-0.915619 50.5523 -0.467896 51 0.0843811 51V50ZM0.0843811 7.52V6.52C-0.467896 6.52 -0.915619 6.96771 -0.915619 7.52H0.0843811ZM23.7244 35.66L24.4061 36.3916L23.7244 35.66ZM23.7244 21.62L24.4061 20.8884L23.7244 21.62ZM13.4044 19.16V18.16C12.8521 18.16 12.4044 18.6077 12.4044 19.16H13.4044ZM13.4044 38.12H12.4044C12.4044 38.6723 12.8521 39.12 13.4044 39.12V38.12ZM17.7844 8.52C22.0872 8.52 25.7979 9.39133 28.9478 11.0991L29.901 9.34089C26.4109 7.44867 22.3615 6.52 17.7844 6.52V8.52ZM28.9521 11.1015C32.1513 12.8153 34.5897 15.1825 36.2928 18.2103L38.0359 17.2297C36.1391 13.8575 33.4175 11.2247 29.8966 9.33852L28.9521 11.1015ZM36.2928 18.2103C37.9995 21.2444 38.8644 24.7122 38.8644 28.64H40.8644C40.8644 24.4078 39.9292 20.5956 38.0359 17.2297L36.2928 18.2103ZM38.8644 28.64C38.8644 32.5258 38.0004 35.9961 36.2902 39.0744L38.0385 40.0456C39.9284 36.6439 40.8644 32.8342 40.8644 28.64H38.8644ZM36.2902 39.0744C34.584 42.1455 32.1406 44.5743 28.9361 46.3673L29.9127 48.1127C33.4281 46.1457 36.1447 43.4545 38.0385 40.0456L36.2902 39.0744ZM28.9396 46.3653C25.7914 48.1102 22.0837 49 17.7844 49V51C22.3651 51 26.4174 50.0498 29.9091 48.1147L28.9396 46.3653ZM17.7844 49H0.0843811V51H17.7844V49ZM1.08438 50V7.52H-0.915619V50H1.08438ZM0.0843811 8.52H17.7844V6.52H0.0843811V8.52ZM16.5844 39.12C19.772 39.12 22.4182 38.244 24.4061 36.3916L23.0427 34.9284C21.5106 36.356 19.3967 37.12 16.5844 37.12V39.12ZM24.4061 36.3916C26.4198 34.5152 27.3644 31.8796 27.3644 28.64H25.3644C25.3644 31.4804 24.549 33.5248 23.0427 34.9284L24.4061 36.3916ZM27.3644 28.64C27.3644 25.4004 26.4198 22.7648 24.4061 20.8884L23.0427 22.3516C24.549 23.7552 25.3644 25.7996 25.3644 28.64H27.3644ZM24.4061 20.8884C22.4182 19.036 19.772 18.16 16.5844 18.16V20.16C19.3967 20.16 21.5106 20.924 23.0427 22.3516L24.4061 20.8884ZM16.5844 18.16H13.4044V20.16H16.5844V18.16ZM12.4044 19.16V38.12H14.4044V19.16H12.4044ZM13.4044 39.12H16.5844V37.12H13.4044V39.12ZM65.1942 22.4H64.1942C64.1942 22.8372 64.4783 23.2238 64.8956 23.3544C65.3128 23.4849 65.7666 23.3293 66.0158 22.9701L65.1942 22.4ZM70.1742 17.72L70.6836 18.5806C70.6879 18.578 70.6921 18.5755 70.6964 18.5728L70.1742 17.72ZM76.2943 15.92H77.2943C77.2943 15.3677 76.8465 14.92 76.2943 14.92V15.92ZM76.2943 30.14V31.14C76.8465 31.14 77.2943 30.6923 77.2943 30.14H76.2943ZM66.9342 31.46L66.3429 30.6536C66.3385 30.6568 66.3342 30.66 66.3299 30.6633L66.9342 31.46ZM65.1942 50V51C65.7465 51 66.1942 50.5523 66.1942 50H65.1942ZM51.8742 50H50.8742C50.8742 50.5523 51.322 51 51.8742 51V50ZM51.8742 16.16V15.16C51.322 15.16 50.8742 15.6077 50.8742 16.16H51.8742ZM65.1942 16.16H66.1942C66.1942 15.6077 65.7465 15.16 65.1942 15.16V16.16ZM66.0158 22.9701C67.2978 21.1225 68.8532 19.6638 70.6836 18.5806L69.6649 16.8594C67.5753 18.0961 65.8107 19.7575 64.3727 21.8299L66.0158 22.9701ZM70.6964 18.5728C72.5129 17.4607 74.374 16.92 76.2943 16.92V14.92C73.9745 14.92 71.7556 15.5793 69.6521 16.8671L70.6964 18.5728ZM75.2943 15.92V30.14H77.2943V15.92H75.2943ZM76.2943 29.14H72.5143V31.14H76.2943V29.14ZM72.5143 29.14C69.9145 29.14 67.7972 29.5871 66.3429 30.6536L67.5256 32.2664C68.4713 31.5729 70.074 31.14 72.5143 31.14V29.14ZM66.3299 30.6633C64.8095 31.8167 64.1942 33.7596 64.1942 36.14H66.1942C66.1942 34.0404 66.739 32.8633 67.5386 32.2567L66.3299 30.6633ZM64.1942 36.14V50H66.1942V36.14H64.1942ZM65.1942 49H51.8742V51H65.1942V49ZM52.8742 50V16.16H50.8742V50H52.8742ZM51.8742 17.16H65.1942V15.16H51.8742V17.16ZM64.1942 16.16V22.4H66.1942V16.16H64.1942ZM93.982 48.32L94.4397 47.4309L93.982 48.32ZM87.562 42.32L86.6954 42.819C86.6984 42.8242 86.7014 42.8293 86.7045 42.8345L87.562 42.32ZM87.562 23.9L86.7011 23.3913L86.6987 23.3953L87.562 23.9ZM93.982 17.84L94.4397 18.7291L93.982 17.84ZM112.342 17.84L111.884 18.7291L112.342 17.84ZM118.702 23.9L117.835 24.399C117.838 24.4042 117.841 24.4093 117.845 24.4145L118.702 23.9ZM118.702 42.32L117.841 41.8113L117.839 41.8153L118.702 42.32ZM112.342 48.32L111.884 47.4309L112.342 48.32ZM106.282 37.46L107.035 38.1185C107.039 38.1134 107.043 38.1083 107.048 38.1032L106.282 37.46ZM106.282 28.76L105.516 29.4032C105.521 29.4083 105.525 29.4134 105.529 29.4185L106.282 28.76ZM100.042 28.76L100.795 29.4185C100.799 29.4134 100.803 29.4083 100.808 29.4032L100.042 28.76ZM99.982 37.46L99.2012 38.0847C99.2104 38.0962 99.2198 38.1074 99.2295 38.1185L99.982 37.46ZM103.162 49.42C99.9032 49.42 97.003 48.7502 94.4397 47.4309L93.5244 49.2091C96.4011 50.6898 99.6208 51.42 103.162 51.42V49.42ZM94.4397 47.4309C91.8837 46.1153 89.8828 44.2443 88.4195 41.8055L86.7045 42.8345C88.3612 45.5957 90.6404 47.7247 93.5244 49.2091L94.4397 47.4309ZM88.4286 41.821C87.0089 39.355 86.282 36.4524 86.282 33.08H84.282C84.282 36.7476 85.0752 40.005 86.6954 42.819L88.4286 41.821ZM86.282 33.08C86.282 29.7071 87.009 26.8274 88.4253 24.4047L86.6987 23.3953C85.0751 26.1726 84.282 29.4129 84.282 33.08H86.282ZM88.4229 24.4087C89.8873 21.9306 91.8877 20.0427 94.4397 18.7291L93.5244 16.9509C90.6364 18.4373 88.3568 20.5894 86.7011 23.3913L88.4229 24.4087ZM94.4397 18.7291C97.003 17.4098 99.9032 16.74 103.162 16.74V14.74C99.6208 14.74 96.4011 15.4702 93.5244 16.9509L94.4397 18.7291ZM103.162 16.74C106.421 16.74 109.321 17.4098 111.884 18.7291L112.8 16.9509C109.923 15.4702 106.703 14.74 103.162 14.74V16.74ZM111.884 18.7291C114.434 20.0415 116.412 21.9264 117.835 24.399L119.569 23.401C117.952 20.5936 115.69 18.4385 112.8 16.9509L111.884 18.7291ZM117.845 24.4145C119.297 26.8355 120.042 29.7117 120.042 33.08H122.042C122.042 29.4083 121.227 26.1645 119.56 23.3855L117.845 24.4145ZM120.042 33.08C120.042 36.4479 119.297 39.347 117.841 41.8113L119.563 42.8287C121.227 40.013 122.042 36.7521 122.042 33.08H120.042ZM117.839 41.8153C116.416 44.2485 114.438 46.1164 111.884 47.4309L112.8 49.2091C115.686 47.7236 117.948 45.5915 119.565 42.8247L117.839 41.8153ZM111.884 47.4309C109.321 48.7502 106.421 49.42 103.162 49.42V51.42C106.703 51.42 109.923 50.6898 112.8 49.2091L111.884 47.4309ZM103.162 39.9C104.7 39.9 106.011 39.2884 107.035 38.1185L105.529 36.8015C104.873 37.5516 104.104 37.9 103.162 37.9V39.9ZM107.048 38.1032C108.096 36.855 108.542 35.1278 108.542 33.08H106.542C106.542 34.8722 106.148 36.065 105.516 36.8168L107.048 38.1032ZM108.542 33.08C108.542 31.0362 108.098 29.3166 107.035 28.1015L105.529 29.4185C106.146 30.1234 106.542 31.2838 106.542 33.08H108.542ZM107.048 28.1168C106.029 26.9044 104.715 26.26 103.162 26.26V28.26C104.089 28.26 104.855 28.6156 105.516 29.4032L107.048 28.1168ZM103.162 26.26C101.609 26.26 100.295 26.9044 99.2763 28.1168L100.808 29.4032C101.469 28.6156 102.235 28.26 103.162 28.26V26.26ZM99.2895 28.1015C98.2262 29.3166 97.782 31.0362 97.782 33.08H99.782C99.782 31.2838 100.178 30.1234 100.795 29.4185L99.2895 28.1015ZM97.782 33.08C97.782 35.1184 98.2038 36.8379 99.2012 38.0847L100.763 36.8353C100.16 36.0821 99.782 34.8816 99.782 33.08H97.782ZM99.2295 38.1185C100.26 39.2964 101.595 39.9 103.162 39.9V37.9C102.169 37.9 101.384 37.5436 100.735 36.8015L99.2295 38.1185ZM145.747 20.78H144.747C144.747 21.2381 145.058 21.6377 145.502 21.7497C145.946 21.8617 146.41 21.6575 146.627 21.2541L145.747 20.78ZM149.347 17.12L149.838 17.991L149.845 17.9869L149.347 17.12ZM162.187 17.84L161.635 18.6745L161.647 18.6817L162.187 17.84ZM167.167 23.84L166.256 24.2538C166.259 24.2594 166.261 24.2649 166.264 24.2705L167.167 23.84ZM167.167 42.38L166.261 41.9549L166.259 41.9609L167.167 42.38ZM162.187 48.38L162.727 49.2218L162.738 49.2145L162.187 48.38ZM149.347 49.1L148.839 49.9614C148.847 49.9664 148.856 49.9714 148.865 49.9762L149.347 49.1ZM145.747 45.38L146.627 44.9059C146.41 44.5025 145.946 44.2983 145.502 44.4103C145.058 44.5223 144.747 44.9219 144.747 45.38H145.747ZM145.747 66.2V67.2C146.299 67.2 146.747 66.7523 146.747 66.2H145.747ZM132.427 66.2H131.427C131.427 66.7523 131.874 67.2 132.427 67.2V66.2ZM132.427 16.16V15.16C131.874 15.16 131.427 15.6077 131.427 16.16H132.427ZM145.747 16.16H146.747C146.747 15.6077 146.299 15.16 145.747 15.16V16.16ZM154.147 28.88L154.883 28.2029L154.147 28.88ZM147.067 28.88L146.331 28.2029L147.067 28.88ZM147.067 37.28L146.331 37.9571L147.067 37.28ZM146.627 21.2541C147.376 19.8624 148.441 18.7792 149.838 17.991L148.855 16.249C147.133 17.2208 145.797 18.5776 144.866 20.3059L146.627 21.2541ZM149.845 17.9869C151.267 17.1695 152.988 16.74 155.047 16.74V14.74C152.705 14.74 150.626 15.2305 148.848 16.2531L149.845 17.9869ZM155.047 16.74C157.499 16.74 159.686 17.3868 161.635 18.6745L162.738 17.0055C160.448 15.4932 157.874 14.74 155.047 14.74V16.74ZM161.647 18.6817C163.581 19.9227 165.124 21.7619 166.256 24.2538L168.077 23.4262C166.81 20.6381 165.032 18.4773 162.727 16.9983L161.647 18.6817ZM166.264 24.2705C167.427 26.7081 168.027 29.6346 168.027 33.08H170.027C170.027 29.4054 169.387 26.1719 168.069 23.4095L166.264 24.2705ZM168.027 33.08C168.027 36.5248 167.427 39.4739 166.261 41.9549L168.072 42.8051C169.386 40.0061 170.027 36.7552 170.027 33.08H168.027ZM166.259 41.9609C165.126 44.414 163.581 46.2607 161.636 47.5455L162.738 49.2145C165.032 47.6993 166.807 45.546 168.075 42.7991L166.259 41.9609ZM161.647 47.5383C159.696 48.7898 157.505 49.42 155.047 49.42V51.42C157.868 51.42 160.437 50.6902 162.727 49.2217L161.647 47.5383ZM155.047 49.42C152.981 49.42 151.253 49.0075 149.828 48.2238L148.865 49.9762C150.64 50.9525 152.712 51.42 155.047 51.42V49.42ZM149.855 48.2386C148.448 47.4092 147.379 46.3015 146.627 44.9059L144.866 45.8541C145.795 47.5785 147.125 48.9508 148.839 49.9614L149.855 48.2386ZM144.747 45.38V66.2H146.747V45.38H144.747ZM145.747 65.2H132.427V67.2H145.747V65.2ZM133.427 66.2V16.16H131.427V66.2H133.427ZM132.427 17.16H145.747V15.16H132.427V17.16ZM144.747 16.16V20.78H146.747V16.16H144.747ZM156.527 33.08C156.527 31.1125 156.021 29.4408 154.883 28.2029L153.411 29.5571C154.112 30.3192 154.527 31.4475 154.527 33.08H156.527ZM154.883 28.2029C153.761 26.9837 152.307 26.38 150.607 26.38V28.38C151.786 28.38 152.692 28.7763 153.411 29.5571L154.883 28.2029ZM150.607 26.38C148.906 26.38 147.452 26.9837 146.331 28.2029L147.802 29.5571C148.521 28.7763 149.427 28.38 150.607 28.38V26.38ZM146.331 28.2029C145.192 29.4408 144.687 31.1125 144.687 33.08H146.687C146.687 31.4475 147.101 30.3192 147.803 29.5571L146.331 28.2029ZM144.687 33.08C144.687 35.0475 145.192 36.7192 146.331 37.9571L147.803 36.6029C147.101 35.8408 146.687 34.7125 146.687 33.08H144.687ZM146.331 37.9571C147.452 39.1763 148.906 39.78 150.607 39.78V37.78C149.427 37.78 148.521 37.3837 147.803 36.6029L146.331 37.9571ZM150.607 39.78C152.307 39.78 153.761 39.1763 154.883 37.9571L153.411 36.6029C152.692 37.3837 151.786 37.78 150.607 37.78V39.78ZM154.883 37.9571C156.021 36.7192 156.527 35.0475 156.527 33.08H154.527C154.527 34.7125 154.112 35.8408 153.411 36.6029L154.883 37.9571ZM193.728 20.78H192.728C192.728 21.2381 193.039 21.6377 193.483 21.7497C193.928 21.8617 194.391 21.6575 194.608 21.2541L193.728 20.78ZM197.328 17.12L197.819 17.991L197.826 17.9869L197.328 17.12ZM210.168 17.84L209.617 18.6745L209.628 18.6817L210.168 17.84ZM215.148 23.84L214.237 24.2538C214.24 24.2594 214.243 24.2649 214.245 24.2705L215.148 23.84ZM215.148 42.38L214.243 41.9549L214.24 41.9609L215.148 42.38ZM210.168 48.38L210.708 49.2218L210.719 49.2145L210.168 48.38ZM197.328 49.1L196.82 49.9614C196.828 49.9664 196.837 49.9714 196.846 49.9762L197.328 49.1ZM193.728 45.38L194.608 44.9059C194.391 44.5025 193.928 44.2983 193.483 44.4103C193.039 44.5223 192.728 44.9219 192.728 45.38H193.728ZM193.728 66.2V67.2C194.28 67.2 194.728 66.7523 194.728 66.2H193.728ZM180.408 66.2H179.408C179.408 66.7523 179.856 67.2 180.408 67.2V66.2ZM180.408 16.16V15.16C179.856 15.16 179.408 15.6077 179.408 16.16H180.408ZM193.728 16.16H194.728C194.728 15.6077 194.28 15.16 193.728 15.16V16.16ZM202.128 28.88L202.864 28.2029L202.128 28.88ZM195.048 28.88L194.312 28.2029L195.048 28.88ZM195.048 37.28L194.312 37.9571L195.048 37.28ZM194.608 21.2541C195.358 19.8624 196.422 18.7792 197.819 17.991L196.837 16.249C195.114 17.2208 193.778 18.5776 192.847 20.3059L194.608 21.2541ZM197.826 17.9869C199.248 17.1695 200.969 16.74 203.028 16.74V14.74C200.687 14.74 198.608 15.2305 196.829 16.2531L197.826 17.9869ZM203.028 16.74C205.48 16.74 207.667 17.3868 209.617 18.6745L210.719 17.0055C208.429 15.4932 205.856 14.74 203.028 14.74V16.74ZM209.628 18.6817C211.562 19.9227 213.105 21.7619 214.237 24.2538L216.058 23.4262C214.791 20.6381 213.013 18.4773 210.708 16.9983L209.628 18.6817ZM214.245 24.2705C215.408 26.7081 216.008 29.6346 216.008 33.08H218.008C218.008 29.4054 217.368 26.1719 216.05 23.4095L214.245 24.2705ZM216.008 33.08C216.008 36.5248 215.408 39.4739 214.243 41.9549L216.053 42.8051C217.368 40.0061 218.008 36.7552 218.008 33.08H216.008ZM214.24 41.9609C213.108 44.414 211.562 46.2607 209.617 47.5455L210.719 49.2145C213.013 47.6993 214.788 45.546 216.056 42.7991L214.24 41.9609ZM209.628 47.5383C207.677 48.7898 205.486 49.42 203.028 49.42V51.42C205.85 51.42 208.419 50.6902 210.708 49.2217L209.628 47.5383ZM203.028 49.42C200.962 49.42 199.235 49.0075 197.81 48.2238L196.846 49.9762C198.621 50.9525 200.694 51.42 203.028 51.42V49.42ZM197.836 48.2386C196.429 47.4092 195.36 46.3015 194.608 44.9059L192.847 45.8541C193.776 47.5785 195.106 48.9508 196.82 49.9614L197.836 48.2386ZM192.728 45.38V66.2H194.728V45.38H192.728ZM193.728 65.2H180.408V67.2H193.728V65.2ZM181.408 66.2V16.16H179.408V66.2H181.408ZM180.408 17.16H193.728V15.16H180.408V17.16ZM192.728 16.16V20.78H194.728V16.16H192.728ZM204.508 33.08C204.508 31.1125 204.003 29.4408 202.864 28.2029L201.392 29.5571C202.093 30.3192 202.508 31.4475 202.508 33.08H204.508ZM202.864 28.2029C201.742 26.9837 200.289 26.38 198.588 26.38V28.38C199.767 28.38 200.674 28.7763 201.392 29.5571L202.864 28.2029ZM198.588 26.38C196.887 26.38 195.434 26.9837 194.312 28.2029L195.784 29.5571C196.502 28.7763 197.409 28.38 198.588 28.38V26.38ZM194.312 28.2029C193.173 29.4408 192.668 31.1125 192.668 33.08H194.668C194.668 31.4475 195.083 30.3192 195.784 29.5571L194.312 28.2029ZM192.668 33.08C192.668 35.0475 193.173 36.7192 194.312 37.9571L195.784 36.6029C195.083 35.8408 194.668 34.7125 194.668 33.08H192.668ZM194.312 37.9571C195.434 39.1763 196.887 39.78 198.588 39.78V37.78C197.409 37.78 196.502 37.3837 195.784 36.6029L194.312 37.9571ZM198.588 39.78C200.289 39.78 201.742 39.1763 202.864 37.9571L201.392 36.6029C200.674 37.3837 199.767 37.78 198.588 37.78V39.78ZM202.864 37.9571C204.003 36.7192 204.508 35.0475 204.508 33.08H202.508C202.508 34.7125 202.093 35.8408 201.392 36.6029L202.864 37.9571ZM229.529 11.6L230.192 10.8514V10.8514L229.529 11.6ZM229.529 2.18L230.192 2.92859C230.196 2.9251 230.2 2.92158 230.204 2.91803L229.529 2.18ZM240.629 2.18L239.954 2.91803C239.958 2.92158 239.962 2.9251 239.966 2.92859L240.629 2.18ZM240.629 11.6L239.966 10.8514V10.8514L240.629 11.6ZM241.709 16.16H242.709C242.709 15.6077 242.261 15.16 241.709 15.16V16.16ZM241.709 50V51C242.261 51 242.709 50.5523 242.709 50H241.709ZM228.389 50H227.389C227.389 50.5523 227.837 51 228.389 51V50ZM228.389 16.16V15.16C227.837 15.16 227.389 15.6077 227.389 16.16H228.389ZM235.109 12.46C232.972 12.46 231.368 11.893 230.192 10.8514L228.866 12.3486C230.49 13.787 232.606 14.46 235.109 14.46V12.46ZM230.192 10.8514C229.008 9.80235 228.429 8.51547 228.429 6.92H226.429C226.429 9.08453 227.25 10.9176 228.866 12.3486L230.192 10.8514ZM228.429 6.92C228.429 5.27755 229.013 3.97309 230.192 2.92859L228.866 1.43141C227.245 2.86691 226.429 4.72245 226.429 6.92H228.429ZM230.204 2.91803C231.38 1.84222 232.98 1.26 235.109 1.26V-0.740004C232.598 -0.740004 230.478 -0.0422306 228.854 1.44197L230.204 2.91803ZM235.109 1.26C237.193 1.26 238.774 1.83931 239.954 2.91803L241.304 1.44197C239.684 -0.0393181 237.586 -0.740004 235.109 -0.740004V1.26ZM239.966 2.92859C241.145 3.97309 241.729 5.27755 241.729 6.92H243.729C243.729 4.72245 242.913 2.86691 241.292 1.43141L239.966 2.92859ZM241.729 6.92C241.729 8.51547 241.15 9.80235 239.966 10.8514L241.292 12.3486C242.908 10.9176 243.729 9.08453 243.729 6.92H241.729ZM239.966 10.8514C238.787 11.8958 237.201 12.46 235.109 12.46V14.46C237.577 14.46 239.671 13.7842 241.292 12.3486L239.966 10.8514ZM240.709 16.16V50H242.709V16.16H240.709ZM241.709 49H228.389V51H241.709V49ZM229.389 50V16.16H227.389V50H229.389ZM228.389 17.16H241.709V15.16H228.389V17.16ZM287.685 19.82L286.916 20.459L286.922 20.4659L287.685 19.82ZM290.985 50V51C291.537 51 291.985 50.5523 291.985 50H290.985ZM277.725 50H276.725C276.725 50.5523 277.173 51 277.725 51V50ZM276.405 28.28L275.652 28.9385C275.662 28.9496 275.672 28.9605 275.682 28.9712L276.405 28.28ZM269.505 28.28L270.243 28.9543C270.248 28.9491 270.253 28.9438 270.258 28.9385L269.505 28.28ZM268.245 50V51C268.797 51 269.245 50.5523 269.245 50H268.245ZM254.925 50H253.925C253.925 50.5523 254.373 51 254.925 51V50ZM254.925 16.16V15.16C254.373 15.16 253.925 15.6077 253.925 16.16H254.925ZM268.245 16.16H269.245C269.245 15.6077 268.797 15.16 268.245 15.16V16.16ZM268.245 21.32H267.245C267.245 21.7628 267.536 22.1529 267.961 22.2788C268.385 22.4046 268.842 22.2363 269.083 21.865L268.245 21.32ZM272.385 17.42L271.891 16.5505L271.882 16.5555L272.385 17.42ZM278.625 16.92C282.257 16.92 284.975 18.123 286.916 20.459L288.454 19.181C286.075 16.317 282.753 14.92 278.625 14.92V16.92ZM286.922 20.4659C288.927 22.8366 289.985 26.1035 289.985 30.38H291.985C291.985 25.7765 290.842 22.0034 288.448 19.1741L286.922 20.4659ZM289.985 30.38V50H291.985V30.38H289.985ZM290.985 49H277.725V51H290.985V49ZM278.725 50V32.06H276.725V50H278.725ZM278.725 32.06C278.725 30.2717 278.228 28.7395 277.128 27.5888L275.682 28.9712C276.342 29.6605 276.725 30.6483 276.725 32.06H278.725ZM277.158 27.6215C276.102 26.4151 274.672 25.84 272.985 25.84V27.84C274.178 27.84 275.028 28.2249 275.652 28.9385L277.158 27.6215ZM272.985 25.84C271.268 25.84 269.814 26.4088 268.752 27.6215L270.258 28.9385C270.876 28.2312 271.742 27.84 272.985 27.84V25.84ZM268.766 27.6057C267.715 28.7577 267.245 30.2837 267.245 32.06H269.245C269.245 30.6363 269.615 29.6423 270.243 28.9543L268.766 27.6057ZM267.245 32.06V50H269.245V32.06H267.245ZM268.245 49H254.925V51H268.245V49ZM255.925 50V16.16H253.925V50H255.925ZM254.925 17.16H268.245V15.16H254.925V17.16ZM267.245 16.16V21.32H269.245V16.16H267.245ZM269.083 21.865C270.034 20.402 271.297 19.2092 272.888 18.2845L271.882 16.5555C270.033 17.6308 268.536 19.038 267.407 20.775L269.083 21.865ZM272.879 18.2895C274.463 17.3897 276.366 16.92 278.625 16.92V14.92C276.084 14.92 273.827 15.4503 271.891 16.5505L272.879 18.2895ZM321.841 17.12L321.342 17.9869C321.348 17.9901 321.353 17.9932 321.359 17.9962L321.841 17.12ZM325.501 20.78L324.62 21.2541C324.838 21.6575 325.301 21.8617 325.745 21.7497C326.19 21.6377 326.501 21.2381 326.501 20.78H325.501ZM325.501 16.16V15.16C324.949 15.16 324.501 15.6077 324.501 16.16H325.501ZM338.761 16.16H339.761C339.761 15.6077 339.313 15.16 338.761 15.16V16.16ZM337.021 58.04L336.108 57.6326L337.021 58.04ZM331.381 64.28L330.866 63.4225L330.861 63.4261L331.381 64.28ZM308.521 62.78L309.146 61.9991L309.144 61.9982L308.521 62.78ZM303.121 52.46V51.46C302.838 51.46 302.569 51.5796 302.379 51.7893C302.19 51.999 302.098 52.2792 302.126 52.5604L303.121 52.46ZM316.201 52.46L317.181 52.2596C317.085 51.7942 316.676 51.46 316.201 51.46V52.46ZM324.181 53.9L324.854 54.6399L324.181 53.9ZM325.501 45.38H326.501C326.501 44.9219 326.19 44.5223 325.745 44.4103C325.301 44.2983 324.838 44.5025 324.62 44.9059L325.501 45.38ZM321.841 49.1L322.323 49.9762C322.328 49.9732 322.334 49.9701 322.339 49.9669L321.841 49.1ZM309.001 48.38L308.45 49.2145L308.461 49.2217L309.001 48.38ZM303.961 42.38L303.051 42.7938C303.053 42.7994 303.056 42.8049 303.058 42.8105L303.961 42.38ZM303.961 23.84L303.056 23.4149L303.053 23.4209L303.961 23.84ZM309.001 17.84L309.541 18.6818L309.552 18.6745L309.001 17.84ZM324.121 28.88L324.857 28.2029L324.121 28.88ZM317.041 28.88L316.305 28.2029L317.041 28.88ZM317.041 37.28L317.777 36.6029L317.041 37.28ZM316.141 16.74C318.2 16.74 319.921 17.1695 321.342 17.9869L322.339 16.2531C320.561 15.2305 318.482 14.74 316.141 14.74V16.74ZM321.359 17.9962C322.796 18.7864 323.875 19.8691 324.62 21.2541L326.381 20.3059C325.447 18.5709 324.086 17.2136 322.323 16.2438L321.359 17.9962ZM326.501 20.78V16.16H324.501V20.78H326.501ZM325.501 17.16H338.761V15.16H325.501V17.16ZM337.761 16.16V49.4H339.761V16.16H337.761ZM337.761 49.4C337.761 52.4351 337.205 55.1742 336.108 57.6326L337.934 58.4474C339.157 55.7058 339.761 52.6849 339.761 49.4H337.761ZM336.108 57.6326C335.037 60.0327 333.303 61.9608 330.866 63.4225L331.895 65.1375C334.659 63.4792 336.685 61.2473 337.934 58.4474L336.108 57.6326ZM330.861 63.4261C328.503 64.8628 325.399 65.62 321.481 65.62V67.62C325.643 67.62 329.139 66.8172 331.901 65.1339L330.861 63.4261ZM321.481 65.62C316.193 65.62 312.118 64.3768 309.146 61.9991L307.896 63.5609C311.324 66.3032 315.888 67.62 321.481 67.62V65.62ZM309.144 61.9982C306.214 59.6611 304.531 56.4767 304.116 52.3596L302.126 52.5604C302.591 57.1633 304.508 60.8589 307.897 63.5618L309.144 61.9982ZM303.121 53.46H316.201V51.46H303.121V53.46ZM315.221 52.6604C315.453 53.7925 316.056 54.6985 317.029 55.2933C317.966 55.8654 319.161 56.1 320.521 56.1V54.1C319.36 54.1 318.576 53.8946 318.072 53.5867C317.606 53.3015 317.309 52.8875 317.181 52.2596L315.221 52.6604ZM320.521 56.1C322.25 56.1 323.738 55.654 324.854 54.6399L323.508 53.1601C322.864 53.746 321.912 54.1 320.521 54.1V56.1ZM324.854 54.6399C326.062 53.5412 326.501 51.6628 326.501 49.4H324.501C324.501 51.5372 324.06 52.6588 323.508 53.1601L324.854 54.6399ZM326.501 49.4V45.38H324.501V49.4H326.501ZM324.62 44.9059C323.873 46.2949 322.788 47.4019 321.342 48.2331L322.339 49.9669C324.094 48.9582 325.449 47.5851 326.381 45.8541L324.62 44.9059ZM321.359 48.2238C319.934 49.0075 318.207 49.42 316.141 49.42V51.42C318.475 51.42 320.548 50.9525 322.323 49.9762L321.359 48.2238ZM316.141 49.42C313.683 49.42 311.492 48.7898 309.541 47.5383L308.461 49.2217C310.75 50.6902 313.319 51.42 316.141 51.42V49.42ZM309.552 47.5455C307.603 46.2586 306.036 44.4079 304.864 41.9495L303.058 42.8105C304.366 45.5521 306.159 47.7014 308.45 49.2145L309.552 47.5455ZM304.871 41.9662C303.742 39.4822 303.161 36.529 303.161 33.08H301.161C301.161 36.751 301.78 39.9978 303.051 42.7938L304.871 41.9662ZM303.161 33.08C303.161 29.6304 303.742 26.6998 304.869 24.2591L303.053 23.4209C301.779 26.1802 301.161 29.4096 301.161 33.08H303.161ZM304.866 24.2651C306.039 21.7681 307.603 19.9248 309.541 18.6817L308.461 16.9983C306.159 18.4752 304.363 20.6319 303.056 23.4149L304.866 24.2651ZM309.552 18.6745C311.502 17.3868 313.689 16.74 316.141 16.74V14.74C313.313 14.74 310.74 15.4932 308.45 17.0055L309.552 18.6745ZM326.501 33.08C326.501 31.1125 325.996 29.4408 324.857 28.2029L323.385 29.5571C324.086 30.3192 324.501 31.4475 324.501 33.08H326.501ZM324.857 28.2029C323.735 26.9837 322.282 26.38 320.581 26.38V28.38C321.76 28.38 322.667 28.7763 323.385 29.5571L324.857 28.2029ZM320.581 26.38C318.88 26.38 317.427 26.9837 316.305 28.2029L317.777 29.5571C318.495 28.7763 319.402 28.38 320.581 28.38V26.38ZM316.305 28.2029C315.166 29.4408 314.661 31.1125 314.661 33.08H316.661C316.661 31.4475 317.076 30.3192 317.777 29.5571L316.305 28.2029ZM314.661 33.08C314.661 35.0475 315.166 36.7192 316.305 37.9571L317.777 36.6029C317.076 35.8408 316.661 34.7125 316.661 33.08H314.661ZM316.305 37.9571C317.427 39.1763 318.88 39.78 320.581 39.78V37.78C319.402 37.78 318.495 37.3837 317.777 36.6029L316.305 37.9571ZM320.581 39.78C322.282 39.78 323.735 39.1763 324.857 37.9571L323.385 36.6029C322.667 37.3837 321.76 37.78 320.581 37.78V39.78ZM324.857 37.9571C325.996 36.7192 326.501 35.0475 326.501 33.08H324.501C324.501 34.7125 324.086 35.8408 323.385 36.6029L324.857 37.9571ZM375.878 48.86L375.485 49.7799L375.491 49.7822L375.878 48.86ZM367.598 38.3V37.3C367.317 37.3 367.05 37.4175 366.861 37.6239C366.671 37.8304 366.577 38.1068 366.601 38.3859L367.598 38.3ZM380.378 38.3L381.365 38.142C381.287 37.6569 380.869 37.3 380.378 37.3V38.3ZM381.638 40.52L381.061 41.337C381.068 41.3421 381.075 41.3471 381.083 41.3521L381.638 40.52ZM385.958 40.82L386.531 41.6392C386.548 41.627 386.566 41.6142 386.582 41.6009L385.958 40.82ZM381.038 36.98L381.234 35.9994L381.231 35.9988L381.038 36.98ZM374.978 35.42L374.64 36.3612L374.647 36.3639L374.978 35.42ZM370.838 32.54L370.077 33.1889C370.08 33.1932 370.084 33.1974 370.088 33.2016L370.838 32.54ZM370.718 21.26L369.88 20.7143L369.876 20.7192L370.718 21.26ZM375.638 17.24L376.044 18.1538C376.048 18.1517 376.053 18.1496 376.058 18.1475L375.638 17.24ZM394.178 19.1L393.519 19.8526L393.525 19.8576L394.178 19.1ZM398.858 27.86V28.86C399.148 28.86 399.424 28.734 399.613 28.5146C399.803 28.2953 399.889 28.0042 399.847 27.717L398.858 27.86ZM387.038 27.86L386.06 28.0724C386.16 28.5321 386.567 28.86 387.038 28.86V27.86ZM385.778 25.76L385.147 26.5361C385.157 26.5443 385.167 26.5522 385.178 26.56L385.778 25.76ZM381.638 25.4L382.192 26.232C382.212 26.2185 382.232 26.2043 382.251 26.1894L381.638 25.4ZM382.358 28.1L381.964 29.0191C381.976 29.0245 381.989 29.0296 382.002 29.0345L382.358 28.1ZM386.378 29.12L386.571 28.1388L386.57 28.1386L386.378 29.12ZM392.557 30.74L392.221 31.6817L392.557 30.74ZM396.938 33.86L396.171 34.5023L396.18 34.5125L396.938 33.86ZM397.058 45.26L397.867 45.847L397.058 45.26ZM392.018 49.04L391.632 48.1174L391.626 48.12L392.018 49.04ZM384.398 49.42C381.306 49.42 378.601 48.9177 376.264 47.9378L375.491 49.7822C378.114 50.8823 381.089 51.42 384.398 51.42V49.42ZM376.27 47.9401C373.964 46.9572 372.168 45.6136 370.845 43.9237L369.27 45.1563C370.827 47.1464 372.911 48.6828 375.485 49.7799L376.27 47.9401ZM370.845 43.9237C369.524 42.2359 368.777 40.3401 368.594 38.2141L366.601 38.3859C366.818 40.8999 367.711 43.1641 369.27 45.1563L370.845 43.9237ZM367.598 39.3H380.378V37.3H367.598V39.3ZM379.39 38.458C379.583 39.6623 380.115 40.6689 381.061 41.337L382.214 39.703C381.801 39.4111 381.492 38.9377 381.365 38.142L379.39 38.458ZM381.083 41.3521C382.004 41.9659 383.109 42.24 384.338 42.24V40.24C383.406 40.24 382.711 40.0341 382.192 39.688L381.083 41.3521ZM384.338 42.24C385.145 42.24 385.909 42.0749 386.531 41.6392L385.384 40.0008C385.206 40.1251 384.891 40.24 384.338 40.24V42.24ZM386.582 41.6009C387.176 41.126 387.557 40.4756 387.557 39.68H385.557C385.557 39.7644 385.539 39.8739 385.333 40.0391L386.582 41.6009ZM387.557 39.68C387.557 39.1037 387.394 38.5561 387.032 38.0911C386.679 37.6379 386.192 37.3307 385.654 37.1255L384.942 38.9945C385.243 39.1093 385.386 39.2321 385.453 39.3189C385.511 39.3939 385.557 39.4963 385.557 39.68H387.557ZM385.654 37.1255C384.729 36.7733 383.237 36.4002 381.234 35.9994L380.841 37.9606C382.838 38.3598 384.186 38.7067 384.942 38.9945L385.654 37.1255ZM381.231 35.9988C378.818 35.5242 376.848 35.0151 375.308 34.4761L374.647 36.3639C376.307 36.9449 378.377 37.4758 380.844 37.9612L381.231 35.9988ZM375.315 34.4788C373.929 33.981 372.687 33.1242 371.587 31.8784L370.088 33.2016C371.388 34.6758 372.906 35.739 374.64 36.3612L375.315 34.4788ZM371.598 31.8911C370.639 30.766 370.098 29.1442 370.098 26.9H368.098C368.098 29.4558 368.716 31.594 370.077 33.1889L371.598 31.8911ZM370.098 26.9C370.098 25.0034 370.587 23.3126 371.559 21.8008L369.876 20.7192C368.688 22.5674 368.098 24.6366 368.098 26.9H370.098ZM371.556 21.8057C372.555 20.271 374.033 19.0476 376.044 18.1538L375.231 16.3262C372.922 17.3524 371.12 18.809 369.88 20.7143L371.556 21.8057ZM376.058 18.1475C378.053 17.2236 380.522 16.74 383.497 16.74V14.74C380.313 14.74 377.542 15.2564 375.217 16.3325L376.058 18.1475ZM383.497 16.74C387.899 16.74 391.196 17.8196 393.519 19.8526L394.836 18.3474C392.039 15.9004 388.216 14.74 383.497 14.74V16.74ZM393.525 19.8576C395.93 21.9301 397.38 24.6262 397.868 28.003L399.847 27.717C399.295 23.8938 397.625 20.7499 394.83 18.3424L393.525 19.8576ZM398.858 26.86H387.038V28.86H398.858V26.86ZM388.015 27.6476C387.773 26.5365 387.243 25.609 386.378 24.96L385.178 26.56C385.592 26.871 385.902 27.3435 386.06 28.0724L388.015 27.6476ZM386.408 24.9839C385.541 24.2795 384.435 23.98 383.198 23.98V25.98C384.12 25.98 384.734 26.2005 385.147 26.5361L386.408 24.9839ZM383.198 23.98C382.4 23.98 381.627 24.1415 381.024 24.6106L382.251 26.1894C382.368 26.0985 382.635 25.98 383.198 25.98V23.98ZM381.083 24.5679C380.386 25.0326 380.098 25.7631 380.098 26.54H382.098C382.098 26.3938 382.123 26.3214 382.136 26.2931C382.146 26.2718 382.158 26.2546 382.192 26.232L381.083 24.5679ZM380.098 26.54C380.098 27.1044 380.278 27.6271 380.635 28.0683C380.978 28.493 381.446 28.7974 381.964 29.0191L382.751 27.1809C382.429 27.0426 382.267 26.907 382.19 26.8117C382.127 26.7329 382.098 26.6556 382.098 26.54H380.098ZM382.002 29.0345C382.926 29.3866 384.336 29.7396 386.185 30.1014L386.57 28.1386C384.739 27.7804 383.469 27.4534 382.714 27.1655L382.002 29.0345ZM386.185 30.1012C388.593 30.575 390.602 31.1035 392.221 31.6817L392.894 29.7983C391.153 29.1765 389.042 28.625 386.571 28.1388L386.185 30.1012ZM392.221 31.6817C393.72 32.217 395.036 33.1469 396.171 34.5022L397.704 33.2178C396.36 31.6131 394.755 30.463 392.894 29.7983L392.221 31.6817ZM396.18 34.5125C397.216 35.7163 397.798 37.4558 397.798 39.86H399.798C399.798 37.1442 399.139 34.8837 397.695 33.2075L396.18 34.5125ZM397.798 39.86C397.798 41.6519 397.283 43.2459 396.248 44.673L397.867 45.847C399.152 44.0741 399.798 42.0681 399.798 39.86H397.798ZM396.248 44.673C395.216 46.0963 393.697 47.2536 391.632 48.1174L392.403 49.9626C394.738 48.9864 396.579 47.6237 397.867 45.847L396.248 44.673ZM391.626 48.12C389.616 48.976 387.215 49.42 384.398 49.42V51.42C387.42 51.42 390.099 50.944 392.409 49.96L391.626 48.12ZM447.104 16.16H448.104C448.104 15.6077 447.656 15.16 447.104 15.16V16.16ZM447.104 50V51C447.656 51 448.104 50.5523 448.104 50H447.104ZM433.784 50H432.784C432.784 50.5523 433.231 51 433.784 51V50ZM433.784 44.84H434.784C434.784 44.3972 434.492 44.0071 434.068 43.8812C433.643 43.7554 433.186 43.9237 432.945 44.295L433.784 44.84ZM429.584 48.74L429.09 47.8705L429.081 47.8755L429.584 48.74ZM414.284 46.34L413.514 46.979L413.52 46.9859L414.284 46.34ZM411.044 16.16V15.16C410.491 15.16 410.044 15.6077 410.044 16.16H411.044ZM424.304 16.16H425.304C425.304 15.6077 424.856 15.16 424.304 15.16V16.16ZM425.564 37.94L424.811 38.5985C424.821 38.6096 424.831 38.6205 424.841 38.6312L425.564 37.94ZM432.524 37.94L433.262 38.6143C433.267 38.6091 433.271 38.6038 433.276 38.5985L432.524 37.94ZM433.784 16.16V15.16C433.231 15.16 432.784 15.6077 432.784 16.16H433.784ZM446.104 16.16V50H448.104V16.16H446.104ZM447.104 49H433.784V51H447.104V49ZM434.784 50V44.84H432.784V50H434.784ZM432.945 44.295C431.998 45.7527 430.719 46.9446 429.09 47.8705L430.078 49.6095C431.968 48.5354 433.49 47.1273 434.622 45.385L432.945 44.295ZM429.081 47.8755C427.542 48.7701 425.663 49.24 423.404 49.24V51.24C425.944 51.24 428.185 50.7099 430.086 49.6045L429.081 47.8755ZM423.404 49.24C419.772 49.24 417.029 48.0368 415.047 45.6941L413.52 46.9859C415.938 49.8432 419.275 51.24 423.404 51.24V49.24ZM415.053 45.701C413.083 43.3302 412.044 40.0606 412.044 35.78H410.044C410.044 40.3794 411.164 44.1498 413.514 46.979L415.053 45.701ZM412.044 35.78V16.16H410.044V35.78H412.044ZM411.044 17.16H424.304V15.16H411.044V17.16ZM423.304 16.16V34.1H425.304V16.16H423.304ZM423.304 34.1C423.304 35.8785 423.774 37.4134 424.811 38.5985L426.316 37.2815C425.673 36.5466 425.304 35.5215 425.304 34.1H423.304ZM424.841 38.6312C425.935 39.7751 427.37 40.32 429.044 40.32V38.32C427.837 38.32 426.952 37.9449 426.286 37.2488L424.841 38.6312ZM429.044 40.32C430.747 40.32 432.197 39.7808 433.262 38.6143L431.785 37.2657C431.17 37.9392 430.3 38.32 429.044 38.32V40.32ZM433.276 38.5985C434.313 37.4134 434.784 35.8785 434.784 34.1H432.784C432.784 35.5215 432.414 36.5466 431.771 37.2815L433.276 38.5985ZM434.784 34.1V16.16H432.784V34.1H434.784ZM433.784 17.16H447.104V15.16H433.784V17.16ZM515.52 19.82L514.779 20.4921L514.785 20.4983L515.52 19.82ZM519.12 50V51C519.672 51 520.12 50.5523 520.12 50H519.12ZM505.86 50H504.86C504.86 50.5523 505.307 51 505.86 51V50ZM504.54 28.7L503.832 29.4071C503.844 29.4183 503.855 29.4293 503.867 29.4399L504.54 28.7ZM497.64 28.7L498.329 29.4241C498.335 29.4185 498.341 29.4129 498.347 29.4071L497.64 28.7ZM496.38 50V51C496.932 51 497.38 50.5523 497.38 50H496.38ZM483.12 50H482.12C482.12 50.5523 482.567 51 483.12 51V50ZM481.8 28.7L481.092 29.4071C481.104 29.4183 481.115 29.4293 481.127 29.4399L481.8 28.7ZM474.9 28.7L475.589 29.4241C475.595 29.4185 475.601 29.4129 475.607 29.4071L474.9 28.7ZM473.64 50V51C474.192 51 474.64 50.5523 474.64 50H473.64ZM460.32 50H459.32C459.32 50.5523 459.767 51 460.32 51V50ZM460.32 16.16V15.16C459.767 15.16 459.32 15.6077 459.32 16.16H460.32ZM473.64 16.16H474.64C474.64 15.6077 474.192 15.16 473.64 15.16V16.16ZM473.64 20.72H472.64C472.64 21.1607 472.928 21.5494 473.35 21.6771C473.772 21.8048 474.227 21.6414 474.472 21.2747L473.64 20.72ZM477.54 17.24L477.076 16.3541L477.067 16.3588L477.54 17.24ZM489.9 17.54L489.401 18.4071C489.406 18.4098 489.411 18.4124 489.416 18.415L489.9 17.54ZM494.4 21.98L493.536 22.4839C493.707 22.7779 494.017 22.9645 494.357 22.9791C494.697 22.9937 495.021 22.8342 495.217 22.556L494.4 21.98ZM499.14 17.66L499.643 18.5238C499.648 18.5212 499.652 18.5186 499.657 18.5159L499.14 17.66ZM505.5 16.92C509.608 16.92 512.651 18.1477 514.779 20.4921L516.26 19.1479C513.668 16.2923 510.032 14.92 505.5 14.92V16.92ZM514.785 20.4983C516.974 22.8697 518.12 26.1246 518.12 30.38H520.12C520.12 25.7554 518.865 21.9703 516.254 19.1417L514.785 20.4983ZM518.12 30.38V50H520.12V30.38H518.12ZM519.12 49H505.86V51H519.12V49ZM506.86 50V32.06H504.86V50H506.86ZM506.86 32.06C506.86 30.4026 506.344 28.9889 505.212 27.9601L503.867 29.4399C504.495 30.0111 504.86 30.8374 504.86 32.06H506.86ZM505.247 27.9929C504.181 26.9268 502.765 26.44 501.12 26.44V28.44C502.354 28.44 503.219 28.7932 503.832 29.4071L505.247 27.9929ZM501.12 26.44C499.443 26.44 498.004 26.9217 496.932 27.9929L498.347 29.4071C498.955 28.7983 499.836 28.44 501.12 28.44V26.44ZM496.95 27.9759C495.866 29.0082 495.38 30.4168 495.38 32.06H497.38C497.38 30.8232 497.733 29.9918 498.329 29.4241L496.95 27.9759ZM495.38 32.06V50H497.38V32.06H495.38ZM496.38 49H483.12V51H496.38V49ZM484.12 50V32.06H482.12V50H484.12ZM484.12 32.06C484.12 30.4026 483.604 28.9889 482.472 27.9601L481.127 29.4399C481.755 30.0111 482.12 30.8374 482.12 32.06H484.12ZM482.507 27.9929C481.441 26.9268 480.025 26.44 478.38 26.44V28.44C479.614 28.44 480.479 28.7932 481.092 29.4071L482.507 27.9929ZM478.38 26.44C476.703 26.44 475.264 26.9217 474.192 27.9929L475.607 29.4071C476.215 28.7983 477.096 28.44 478.38 28.44V26.44ZM474.21 27.9759C473.126 29.0082 472.64 30.4168 472.64 32.06H474.64C474.64 30.8232 474.993 29.9918 475.589 29.4241L474.21 27.9759ZM472.64 32.06V50H474.64V32.06H472.64ZM473.64 49H460.32V51H473.64V49ZM461.32 50V16.16H459.32V50H461.32ZM460.32 17.16H473.64V15.16H460.32V17.16ZM472.64 16.16V20.72H474.64V16.16H472.64ZM474.472 21.2747C475.334 19.9816 476.506 18.9295 478.012 18.1212L477.067 16.3588C475.293 17.3105 473.865 18.5784 472.808 20.1653L474.472 21.2747ZM478.004 18.1258C479.517 17.3333 481.312 16.92 483.42 16.92V14.92C481.047 14.92 478.923 15.3867 477.076 16.3542L478.004 18.1258ZM483.42 16.92C485.707 16.92 487.691 17.4247 489.401 18.4071L490.398 16.6729C488.348 15.4953 486.012 14.92 483.42 14.92V16.92ZM489.416 18.415C491.132 19.3647 492.503 20.7139 493.536 22.4839L495.263 21.4761C494.056 19.4061 492.427 17.7953 490.384 16.665L489.416 18.415ZM495.217 22.556C496.372 20.9171 497.843 19.5739 499.643 18.5238L498.636 16.7962C496.596 17.9861 494.907 19.5229 493.582 21.404L495.217 22.556ZM499.657 18.5159C501.415 17.4535 503.355 16.92 505.5 16.92V14.92C503.004 14.92 500.704 15.5465 498.622 16.8041L499.657 18.5159ZM587.29 19.82L586.549 20.4921L586.555 20.4983L587.29 19.82ZM590.89 50V51C591.442 51 591.89 50.5523 591.89 50H590.89ZM577.63 50H576.63C576.63 50.5523 577.078 51 577.63 51V50ZM576.31 28.7L575.603 29.4071C575.614 29.4183 575.625 29.4293 575.637 29.4399L576.31 28.7ZM569.41 28.7L570.099 29.4241C570.105 29.4185 570.111 29.4129 570.117 29.4071L569.41 28.7ZM568.15 50V51C568.702 51 569.15 50.5523 569.15 50H568.15ZM554.89 50H553.89C553.89 50.5523 554.338 51 554.89 51V50ZM553.57 28.7L552.863 29.4071C552.874 29.4183 552.885 29.4293 552.897 29.4399L553.57 28.7ZM546.67 28.7L547.359 29.4241C547.365 29.4185 547.371 29.4129 547.377 29.4071L546.67 28.7ZM545.41 50V51C545.962 51 546.41 50.5523 546.41 50H545.41ZM532.09 50H531.09C531.09 50.5523 531.538 51 532.09 51V50ZM532.09 16.16V15.16C531.538 15.16 531.09 15.6077 531.09 16.16H532.09ZM545.41 16.16H546.41C546.41 15.6077 545.962 15.16 545.41 15.16V16.16ZM545.41 20.72H544.41C544.41 21.1607 544.698 21.5494 545.12 21.6771C545.542 21.8048 545.997 21.6414 546.242 21.2747L545.41 20.72ZM549.31 17.24L548.846 16.3541L548.837 16.3588L549.31 17.24ZM561.67 17.54L561.172 18.4071C561.176 18.4098 561.181 18.4124 561.186 18.415L561.67 17.54ZM566.17 21.98L565.306 22.4839C565.478 22.7779 565.787 22.9645 566.127 22.9791C566.467 22.9937 566.791 22.8342 566.987 22.556L566.17 21.98ZM570.91 17.66L571.414 18.5238C571.418 18.5212 571.423 18.5186 571.427 18.5159L570.91 17.66ZM577.27 16.92C581.378 16.92 584.421 18.1477 586.549 20.4921L588.03 19.1479C585.438 16.2923 581.802 14.92 577.27 14.92V16.92ZM586.555 20.4983C588.744 22.8697 589.89 26.1246 589.89 30.38H591.89C591.89 25.7554 590.636 21.9703 588.025 19.1417L586.555 20.4983ZM589.89 30.38V50H591.89V30.38H589.89ZM590.89 49H577.63V51H590.89V49ZM578.63 50V32.06H576.63V50H578.63ZM578.63 32.06C578.63 30.4026 578.114 28.9889 576.983 27.9601L575.637 29.4399C576.265 30.0111 576.63 30.8374 576.63 32.06H578.63ZM577.017 27.9929C575.951 26.9268 574.535 26.44 572.89 26.44V28.44C574.125 28.44 574.989 28.7932 575.603 29.4071L577.017 27.9929ZM572.89 26.44C571.214 26.44 569.774 26.9217 568.703 27.9929L570.117 29.4071C570.726 28.7983 571.606 28.44 572.89 28.44V26.44ZM568.72 27.9759C567.636 29.0082 567.15 30.4168 567.15 32.06H569.15C569.15 30.8232 569.503 29.9918 570.099 29.4241L568.72 27.9759ZM567.15 32.06V50H569.15V32.06H567.15ZM568.15 49H554.89V51H568.15V49ZM555.89 50V32.06H553.89V50H555.89ZM555.89 32.06C555.89 30.4026 555.374 28.9889 554.242 27.9601L552.897 29.4399C553.525 30.0111 553.89 30.8374 553.89 32.06H555.89ZM554.277 27.9929C553.211 26.9268 551.795 26.44 550.15 26.44V28.44C551.385 28.44 552.249 28.7932 552.863 29.4071L554.277 27.9929ZM550.15 26.44C548.474 26.44 547.034 26.9217 545.963 27.9929L547.377 29.4071C547.986 28.7983 548.866 28.44 550.15 28.44V26.44ZM545.98 27.9759C544.896 29.0082 544.41 30.4168 544.41 32.06H546.41C546.41 30.8232 546.763 29.9918 547.359 29.4241L545.98 27.9759ZM544.41 32.06V50H546.41V32.06H544.41ZM545.41 49H532.09V51H545.41V49ZM533.09 50V16.16H531.09V50H533.09ZM532.09 17.16H545.41V15.16H532.09V17.16ZM544.41 16.16V20.72H546.41V16.16H544.41ZM546.242 21.2747C547.104 19.9816 548.276 18.9295 549.783 18.1212L548.837 16.3588C547.063 17.3105 545.636 18.5784 544.578 20.1653L546.242 21.2747ZM549.774 18.1258C551.287 17.3333 553.082 16.92 555.19 16.92V14.92C552.817 14.92 550.693 15.3867 548.846 16.3542L549.774 18.1258ZM555.19 16.92C557.477 16.92 559.462 17.4247 561.172 18.4071L562.168 16.6729C560.118 15.4953 557.782 14.92 555.19 14.92V16.92ZM561.186 18.415C562.902 19.3647 564.274 20.7139 565.306 22.4839L567.034 21.4761C565.826 19.4061 564.197 17.7953 562.154 16.665L561.186 18.415ZM566.987 22.556C568.142 20.9171 569.614 19.5739 571.414 18.5238L570.406 16.7962C568.366 17.9861 566.678 19.5229 565.352 21.404L566.987 22.556ZM571.427 18.5159C573.185 17.4535 575.126 16.92 577.27 16.92V14.92C574.774 14.92 572.474 15.5465 570.393 16.8041L571.427 18.5159ZM636.44 35.42V36.42C636.938 36.42 637.36 36.0541 637.43 35.5614L636.44 35.42ZM615.02 35.42V34.42C614.743 34.42 614.478 34.535 614.289 34.7375C614.1 34.94 614.004 35.2119 614.022 35.4883L615.02 35.42ZM621.8 37.82V36.82C621.417 36.82 621.067 37.0389 620.9 37.3837L621.8 37.82ZM635.9 37.82L636.881 38.0161C636.939 37.7223 636.863 37.4177 636.673 37.186C636.484 36.9543 636.2 36.82 635.9 36.82V37.82ZM632.84 44.3L632.064 43.6694L632.062 43.6713L632.84 44.3ZM627.02 48.8L627.442 49.7066L627.449 49.7034L627.02 48.8ZM610.34 48.32L609.866 49.2005L609.872 49.2035L610.34 48.32ZM604.22 42.32L603.342 42.7989C603.345 42.8042 603.348 42.8094 603.351 42.8147L604.22 42.32ZM604.22 23.9L603.348 23.411L603.345 23.4155L604.22 23.9ZM610.34 17.84L609.872 16.9565L609.866 16.9595L610.34 17.84ZM628.28 17.84L627.806 18.7205C627.811 18.7234 627.817 18.7262 627.822 18.729L628.28 17.84ZM634.4 23.72L633.528 24.2103L633.534 24.2205L634.4 23.72ZM623.12 29.6V30.6C623.672 30.6 624.12 30.1523 624.12 29.6H623.12ZM622.04 27.08L621.4 27.8482C621.409 27.8554 621.417 27.8625 621.426 27.8694L622.04 27.08ZM615.2 29.6L614.215 29.4272C614.164 29.7182 614.244 30.0169 614.434 30.2431C614.624 30.4694 614.905 30.6 615.2 30.6V29.6ZM635.62 32.78C635.62 33.6566 635.563 34.4891 635.45 35.2786L637.43 35.5614C637.557 34.6709 637.62 33.7434 637.62 32.78H635.62ZM636.44 34.42H615.02V36.42H636.44V34.42ZM614.022 35.4883C614.13 37.0526 614.517 38.3883 615.318 39.3462C616.152 40.3448 617.322 40.8 618.68 40.8V38.8C617.798 38.8 617.238 38.5252 616.852 38.0638C616.433 37.5617 616.111 36.7074 616.018 35.3517L614.022 35.4883ZM618.68 40.8C619.557 40.8 620.37 40.5972 621.076 40.1493C621.781 39.7022 622.315 39.0512 622.7 38.2563L620.9 37.3837C620.646 37.9088 620.34 38.2478 620.004 38.4607C619.67 38.6728 619.243 38.8 618.68 38.8V40.8ZM621.8 38.82H635.9V36.82H621.8V38.82ZM634.92 37.6239C634.472 39.8628 633.523 41.8741 632.064 43.6694L633.616 44.9306C635.278 42.8859 636.368 40.5772 636.881 38.0161L634.92 37.6239ZM632.062 43.6713C630.644 45.4255 628.827 46.8356 626.591 47.8966L627.449 49.7034C629.933 48.5244 631.996 46.9345 633.618 44.9287L632.062 43.6713ZM626.598 47.8934C624.422 48.9063 622.008 49.42 619.34 49.42V51.42C622.272 51.42 624.978 50.8537 627.442 49.7066L626.598 47.8934ZM619.34 49.42C616.123 49.42 613.287 48.7509 610.809 47.4365L609.872 49.2035C612.673 50.6891 615.837 51.42 619.34 51.42V49.42ZM610.814 47.4395C608.382 46.1297 606.478 44.2645 605.089 41.8253L603.351 42.8147C604.923 45.5755 607.099 47.7103 609.866 49.2005L610.814 47.4395ZM605.098 41.8411C603.751 39.3713 603.06 36.4613 603.06 33.08H601.06C601.06 36.7387 601.809 39.9887 603.342 42.7989L605.098 41.8411ZM603.06 33.08C603.06 29.6982 603.751 26.8111 605.095 24.3845L603.345 23.4155C601.809 26.1889 601.06 29.4218 601.06 33.08H603.06ZM605.092 24.389C606.482 21.9103 608.386 20.0281 610.814 18.7205L609.866 16.9595C607.094 18.4519 604.918 20.6097 603.348 23.411L605.092 24.389ZM610.809 18.7235C613.287 17.4091 616.123 16.74 619.34 16.74V14.74C615.837 14.74 612.673 15.4709 609.872 16.9565L610.809 18.7235ZM619.34 16.74C622.558 16.74 625.371 17.4092 627.806 18.7205L628.754 16.9595C625.989 15.4708 622.843 14.74 619.34 14.74V16.74ZM627.822 18.729C630.29 20.0004 632.186 21.8228 633.529 24.2103L635.272 23.2297C633.735 20.4972 631.55 18.3996 628.738 16.951L627.822 18.729ZM633.534 24.2205C634.912 26.6034 635.62 29.4444 635.62 32.78H637.62C637.62 29.1556 636.848 25.9566 635.266 23.2195L633.534 24.2205ZM624.12 29.6C624.12 28.2494 623.673 27.0833 622.654 26.2906L621.426 27.8694C621.847 28.1967 622.12 28.7106 622.12 29.6H624.12ZM622.68 26.3118C621.754 25.5396 620.616 25.18 619.34 25.18V27.18C620.224 27.18 620.887 27.4204 621.4 27.8482L622.68 26.3118ZM619.34 25.18C618.002 25.18 616.818 25.5045 615.898 26.264C614.976 27.0256 614.444 28.1229 614.215 29.4272L616.185 29.7728C616.356 28.7971 616.714 28.1844 617.172 27.806C617.633 27.4255 618.318 27.18 619.34 27.18V25.18ZM615.2 30.6H623.12V28.6H615.2V30.6ZM661.353 22.4H660.353C660.353 22.8372 660.637 23.2238 661.054 23.3544C661.471 23.4849 661.925 23.3293 662.174 22.9701L661.353 22.4ZM666.333 17.72L666.842 18.5806C666.846 18.578 666.851 18.5755 666.855 18.5728L666.333 17.72ZM672.453 15.92H673.453C673.453 15.3677 673.005 14.92 672.453 14.92V15.92ZM672.453 30.14V31.14C673.005 31.14 673.453 30.6923 673.453 30.14H672.453ZM663.093 31.46L662.501 30.6536C662.497 30.6568 662.493 30.66 662.488 30.6633L663.093 31.46ZM661.353 50V51C661.905 51 662.353 50.5523 662.353 50H661.353ZM648.033 50H647.033C647.033 50.5523 647.481 51 648.033 51V50ZM648.033 16.16V15.16C647.481 15.16 647.033 15.6077 647.033 16.16H648.033ZM661.353 16.16H662.353C662.353 15.6077 661.905 15.16 661.353 15.16V16.16ZM662.174 22.9701C663.456 21.1225 665.012 19.6638 666.842 18.5806L665.823 16.8594C663.734 18.0961 661.969 19.7575 660.531 21.8299L662.174 22.9701ZM666.855 18.5728C668.672 17.4607 670.533 16.92 672.453 16.92V14.92C670.133 14.92 667.914 15.5793 665.811 16.8671L666.855 18.5728ZM671.453 15.92V30.14H673.453V15.92H671.453ZM672.453 29.14H668.673V31.14H672.453V29.14ZM668.673 29.14C666.073 29.14 663.956 29.5871 662.501 30.6536L663.684 32.2664C664.63 31.5729 666.233 31.14 668.673 31.14V29.14ZM662.488 30.6633C660.968 31.8167 660.353 33.7596 660.353 36.14H662.353C662.353 34.0404 662.898 32.8633 663.697 32.2567L662.488 30.6633ZM660.353 36.14V50H662.353V36.14H660.353ZM661.353 49H648.033V51H661.353V49ZM649.033 50V16.16H647.033V50H649.033ZM648.033 17.16H661.353V15.16H648.033V17.16ZM660.353 16.16V22.4H662.353V16.16H660.353ZM699.316 39.38L698.718 38.5786C698.465 38.7673 698.316 39.0644 698.316 39.38H699.316ZM712.036 28.52L712.756 29.2137L712.761 29.2092L712.036 28.52ZM716.056 17.12L715.263 17.7297C715.273 17.742 715.283 17.7541 715.293 17.7659L716.056 17.12ZM712.516 17.6L711.648 17.1039C711.645 17.1086 711.642 17.1133 711.64 17.1181L712.516 17.6ZM712.036 21.32V22.32C712.314 22.32 712.579 22.2046 712.768 22.0014C712.957 21.7983 713.053 21.5256 713.033 21.2488L712.036 21.32ZM699.136 21.32L698.137 21.2878C698.128 21.5584 698.229 21.8211 698.418 22.0156C698.606 22.2102 698.865 22.32 699.136 22.32V21.32ZM701.536 12.14L700.691 11.6049L700.685 11.6151L701.536 12.14ZM707.416 6.86L706.993 5.95381L707.416 6.86ZM726.556 8.9L725.832 9.58936C725.835 9.59335 725.839 9.59731 725.843 9.60123L726.556 8.9ZM726.256 29.72L725.448 29.1302L725.447 29.1318L726.256 29.72ZM716.596 38.66L716.064 37.8135C715.686 38.0507 715.512 38.5089 715.635 38.937C715.759 39.3652 716.15 39.66 716.596 39.66V38.66ZM730.336 38.66H731.336C731.336 38.1077 730.888 37.66 730.336 37.66V38.66ZM730.336 49.4V50.4C730.888 50.4 731.336 49.9523 731.336 49.4H730.336ZM699.316 49.4H698.316C698.316 49.9523 698.764 50.4 699.316 50.4V49.4ZM699.914 40.1814C705.299 36.1629 709.585 32.5068 712.756 29.2136L711.316 27.8264C708.247 31.0132 704.053 34.5971 698.718 38.5786L699.914 40.1814ZM712.761 29.2092C715.957 25.849 717.716 22.5525 717.716 19.34H715.716C715.716 21.8075 714.355 24.631 711.311 27.8308L712.761 29.2092ZM717.716 19.34C717.716 18.2392 717.464 17.2362 716.819 16.4741L715.293 17.7659C715.528 18.0438 715.716 18.5208 715.716 19.34H717.716ZM716.849 16.5103C716.251 15.7339 715.413 15.34 714.436 15.34V17.34C714.819 17.34 715.061 17.4661 715.263 17.7297L716.849 16.5103ZM714.436 15.34C713.196 15.34 712.262 16.0293 711.648 17.1039L713.384 18.0961C713.73 17.4907 714.076 17.34 714.436 17.34V15.34ZM711.64 17.1181C711.057 18.1776 710.915 19.6581 711.039 21.3912L713.033 21.2488C712.917 19.6219 713.095 18.6224 713.392 18.0819L711.64 17.1181ZM712.036 20.32H699.136V22.32H712.036V20.32ZM700.135 21.3522C700.252 17.7525 701.023 14.8763 702.387 12.6649L700.685 11.6151C699.089 14.2037 698.26 17.4475 698.137 21.2878L700.135 21.3522ZM702.381 12.675C703.806 10.4243 705.625 8.79942 707.839 7.76618L706.993 5.95381C704.407 7.16058 702.306 9.0557 700.691 11.6049L702.381 12.675ZM707.839 7.76618C710.095 6.71323 712.589 6.18 715.336 6.18V4.18C712.323 4.18 709.537 4.76677 706.993 5.95381L707.839 7.76618ZM715.336 6.18C720.317 6.18 723.737 7.38805 725.832 9.58936L727.28 8.21063C724.655 5.45195 720.595 4.18 715.336 4.18V6.18ZM725.843 9.60123C728.036 11.8307 729.156 14.7075 729.156 18.32H731.156C731.156 14.2525 729.876 10.8493 727.269 8.19876L725.843 9.60123ZM729.156 18.32C729.156 22.1285 727.935 25.725 725.448 29.1302L727.064 30.3098C729.777 26.595 731.156 22.5915 731.156 18.32H729.156ZM725.447 29.1318C722.966 32.5435 719.842 35.4376 716.064 37.8135L717.128 39.5065C721.11 37.0024 724.426 33.9365 727.065 30.3082L725.447 29.1318ZM716.596 39.66H730.336V37.66H716.596V39.66ZM729.336 38.66V49.4H731.336V38.66H729.336ZM730.336 48.4H699.316V50.4H730.336V48.4ZM700.316 49.4V39.38H698.316V49.4H700.316ZM745.12 11.12L744.319 10.5213L744.315 10.5265L745.12 11.12ZM772.3 11.18L771.496 11.7748L771.499 11.7787L772.3 11.18ZM772.3 43.82L773.101 44.4187L773.104 44.4148L772.3 43.82ZM745.12 43.82L744.313 44.4096L744.319 44.4187L745.12 43.82ZM762.64 20.24L761.709 20.6036L761.712 20.6114L762.64 20.24ZM754.78 20.24L755.709 20.6114L755.712 20.6035L754.78 20.24ZM754.78 34.76L753.849 35.1236L753.852 35.1314L754.78 34.76ZM762.64 34.76L763.569 35.1314L763.572 35.1235L762.64 34.76ZM741.74 27.44C741.74 20.6492 743.174 15.4442 745.925 11.7135L744.315 10.5265C741.226 14.7158 739.74 20.3908 739.74 27.44H741.74ZM745.921 11.7187C748.648 8.07142 752.852 6.18 758.74 6.18V4.18C752.388 4.18 747.513 6.24858 744.319 10.5213L745.921 11.7187ZM758.74 6.18C764.582 6.18 768.767 8.08699 771.496 11.7748L773.104 10.5852C769.913 6.273 765.059 4.18 758.74 4.18V6.18ZM771.499 11.7787C774.288 15.5097 775.74 20.6932 775.74 27.44H777.74C777.74 20.4268 776.232 14.7703 773.101 10.5813L771.499 11.7787ZM775.74 27.44C775.74 34.2275 774.288 39.4531 771.496 43.2252L773.104 44.4148C776.233 40.1869 777.74 34.4925 777.74 27.44H775.74ZM771.499 43.2213C768.772 46.8703 764.586 48.76 758.74 48.76V50.76C765.055 50.76 769.909 48.6897 773.101 44.4187L771.499 43.2213ZM758.74 48.76C752.852 48.76 748.648 46.8686 745.921 43.2213L744.319 44.4187C747.513 48.6914 752.388 50.76 758.74 50.76V48.76ZM745.928 43.2304C743.174 39.4577 741.74 34.23 741.74 27.44H739.74C739.74 34.49 741.227 40.1823 744.313 44.4096L745.928 43.2304ZM764.6 27.44C764.6 24.2028 764.281 21.6485 763.569 19.8686L761.712 20.6114C762.28 22.0315 762.6 24.2772 762.6 27.44H764.6ZM763.572 19.8765C763.186 18.8874 762.575 18.0894 761.719 17.5492C760.871 17.0142 759.858 16.78 758.74 16.78V18.78C759.583 18.78 760.2 18.9558 760.652 19.2408C761.095 19.5206 761.455 19.9526 761.709 20.6035L763.572 19.8765ZM758.74 16.78C757.607 16.78 756.581 17.0126 755.723 17.5456C754.855 18.0845 754.236 18.8831 753.849 19.8765L755.712 20.6035C755.964 19.9569 756.326 19.5255 756.778 19.2444C757.24 18.9574 757.874 18.78 758.74 18.78V16.78ZM753.852 19.8686C753.14 21.6485 752.82 24.2028 752.82 27.44H754.82C754.82 24.2772 755.141 22.0315 755.709 20.6114L753.852 19.8686ZM752.82 27.44C752.82 30.7178 753.14 33.3078 753.849 35.1235L755.712 34.3965C755.141 32.9322 754.82 30.6422 754.82 27.44H752.82ZM753.852 35.1314C754.243 36.1082 754.865 36.8897 755.732 37.4152C756.588 37.9341 757.611 38.16 758.74 38.16V36.16C757.87 36.16 757.232 35.9859 756.769 35.7048C756.316 35.4303 755.958 35.0118 755.709 34.3886L753.852 35.1314ZM758.74 38.16C759.854 38.16 760.863 37.9326 761.709 37.4117C762.565 36.8848 763.18 36.1038 763.569 35.1314L761.712 34.3886C761.461 35.0162 761.105 35.4352 760.661 35.7083C760.208 35.9874 759.587 36.16 758.74 36.16V38.16ZM763.572 35.1235C764.28 33.3078 764.6 30.7178 764.6 27.44H762.6C762.6 30.6422 762.28 32.9322 761.709 34.3965L763.572 35.1235ZM787.427 39.38L786.829 38.5786C786.576 38.7673 786.427 39.0644 786.427 39.38H787.427ZM800.147 28.52L800.867 29.2137L800.871 29.2092L800.147 28.52ZM804.167 17.12L803.374 17.7297C803.384 17.742 803.393 17.7541 803.403 17.7659L804.167 17.12ZM800.627 17.6L799.759 17.1039C799.756 17.1086 799.753 17.1133 799.751 17.1181L800.627 17.6ZM800.147 21.32V22.32C800.424 22.32 800.69 22.2046 800.879 22.0014C801.068 21.7983 801.164 21.5256 801.144 21.2488L800.147 21.32ZM787.247 21.32L786.247 21.2878C786.239 21.5584 786.34 21.8211 786.528 22.0156C786.717 22.2102 786.976 22.32 787.247 22.32V21.32ZM789.647 12.14L788.802 11.6049L788.796 11.6151L789.647 12.14ZM795.527 6.86L795.104 5.95381L795.527 6.86ZM814.667 8.9L813.942 9.58936C813.946 9.59335 813.95 9.59731 813.954 9.60123L814.667 8.9ZM814.367 29.72L813.559 29.1302L813.558 29.1318L814.367 29.72ZM804.707 38.66L804.174 37.8135C803.797 38.0507 803.623 38.5089 803.746 38.937C803.869 39.3652 804.261 39.66 804.707 39.66V38.66ZM818.447 38.66H819.447C819.447 38.1077 818.999 37.66 818.447 37.66V38.66ZM818.447 49.4V50.4C818.999 50.4 819.447 49.9523 819.447 49.4H818.447ZM787.427 49.4H786.427C786.427 49.9523 786.875 50.4 787.427 50.4V49.4ZM788.025 40.1814C793.41 36.1629 797.696 32.5068 800.867 29.2136L799.427 27.8264C796.358 31.0132 792.164 34.5971 786.829 38.5786L788.025 40.1814ZM800.871 29.2092C804.068 25.849 805.827 22.5525 805.827 19.34H803.827C803.827 21.8075 802.466 24.631 799.422 27.8308L800.871 29.2092ZM805.827 19.34C805.827 18.2392 805.575 17.2362 804.93 16.4741L803.403 17.7659C803.639 18.0438 803.827 18.5208 803.827 19.34H805.827ZM804.959 16.5103C804.362 15.7339 803.524 15.34 802.547 15.34V17.34C802.93 17.34 803.171 17.4661 803.374 17.7297L804.959 16.5103ZM802.547 15.34C801.307 15.34 800.373 16.0293 799.759 17.1039L801.495 18.0961C801.841 17.4907 802.186 17.34 802.547 17.34V15.34ZM799.751 17.1181C799.168 18.1776 799.026 19.6581 799.149 21.3912L801.144 21.2488C801.028 19.6219 801.206 18.6224 801.503 18.0819L799.751 17.1181ZM800.147 20.32H787.247V22.32H800.147V20.32ZM788.246 21.3522C788.362 17.7525 789.134 14.8763 790.498 12.6649L788.796 11.6151C787.199 14.2037 786.371 17.4475 786.247 21.2878L788.246 21.3522ZM790.492 12.675C791.917 10.4243 793.736 8.79942 795.95 7.76618L795.104 5.95381C792.518 7.16058 790.417 9.0557 788.802 11.6049L790.492 12.675ZM795.95 7.76618C798.206 6.71323 800.7 6.18 803.447 6.18V4.18C800.434 4.18 797.648 4.76677 795.104 5.95381L795.95 7.76618ZM803.447 6.18C808.428 6.18 811.848 7.38805 813.942 9.58936L815.391 8.21063C812.766 5.45195 808.705 4.18 803.447 4.18V6.18ZM813.954 9.60123C816.147 11.8307 817.267 14.7075 817.267 18.32H819.267C819.267 14.2525 817.987 10.8493 815.38 8.19876L813.954 9.60123ZM817.267 18.32C817.267 22.1285 816.046 25.725 813.559 29.1302L815.174 30.3098C817.887 26.595 819.267 22.5915 819.267 18.32H817.267ZM813.558 29.1318C811.077 32.5435 807.953 35.4376 804.174 37.8135L805.239 39.5065C809.221 37.0024 812.537 33.9365 815.176 30.3082L813.558 29.1318ZM804.707 39.66H818.447V37.66H804.707V39.66ZM817.447 38.66V49.4H819.447V38.66H817.447ZM818.447 48.4H787.427V50.4H818.447V48.4ZM788.427 49.4V39.38H786.427V49.4H788.427ZM828.611 39.38L828.013 38.5786C827.76 38.7673 827.611 39.0644 827.611 39.38H828.611ZM841.331 28.52L842.052 29.2137L842.056 29.2092L841.331 28.52ZM845.351 17.12L844.559 17.7297C844.568 17.742 844.578 17.7541 844.588 17.7659L845.351 17.12ZM841.811 17.6L840.943 17.1039C840.94 17.1086 840.938 17.1133 840.935 17.1181L841.811 17.6ZM841.331 21.32V22.32C841.609 22.32 841.874 22.2046 842.063 22.0014C842.252 21.7983 842.349 21.5256 842.329 21.2488L841.331 21.32ZM828.431 21.32L827.432 21.2878C827.423 21.5584 827.525 21.8211 827.713 22.0156C827.901 22.2102 828.161 22.32 828.431 22.32V21.32ZM830.831 12.14L829.986 11.6049L829.98 11.6151L830.831 12.14ZM836.711 6.86L836.288 5.95381L836.711 6.86ZM855.851 8.9L855.127 9.58936C855.131 9.59335 855.135 9.59731 855.138 9.60123L855.851 8.9ZM855.551 29.72L854.744 29.1302L854.743 29.1318L855.551 29.72ZM845.891 38.66L845.359 37.8135C844.982 38.0507 844.807 38.5089 844.93 38.937C845.054 39.3652 845.446 39.66 845.891 39.66V38.66ZM859.631 38.66H860.631C860.631 38.1077 860.184 37.66 859.631 37.66V38.66ZM859.631 49.4V50.4C860.184 50.4 860.631 49.9523 860.631 49.4H859.631ZM828.611 49.4H827.611C827.611 49.9523 828.059 50.4 828.611 50.4V49.4ZM829.209 40.1814C834.594 36.1629 838.88 32.5068 842.052 29.2136L840.611 27.8264C837.542 31.0132 833.348 34.5971 828.013 38.5786L829.209 40.1814ZM842.056 29.2092C845.252 25.849 847.011 22.5525 847.011 19.34H845.011C845.011 21.8075 843.65 24.631 840.607 27.8308L842.056 29.2092ZM847.011 19.34C847.011 18.2392 846.76 17.2362 846.115 16.4741L844.588 17.7659C844.823 18.0438 845.011 18.5208 845.011 19.34H847.011ZM846.144 16.5103C845.547 15.7339 844.708 15.34 843.731 15.34V17.34C844.114 17.34 844.356 17.4661 844.559 17.7297L846.144 16.5103ZM843.731 15.34C842.492 15.34 841.557 16.0293 840.943 17.1039L842.68 18.0961C843.026 17.4907 843.371 17.34 843.731 17.34V15.34ZM840.935 17.1181C840.352 18.1776 840.21 19.6581 840.334 21.3912L842.329 21.2488C842.213 19.6219 842.39 18.6224 842.688 18.0819L840.935 17.1181ZM841.331 20.32H828.431V22.32H841.331V20.32ZM829.431 21.3522C829.547 17.7525 830.319 14.8763 831.682 12.6649L829.98 11.6151C828.384 14.2037 827.556 17.4475 827.432 21.2878L829.431 21.3522ZM831.676 12.675C833.102 10.4243 834.92 8.79942 837.134 7.76618L836.288 5.95381C833.703 7.16058 831.601 9.0557 829.986 11.6049L831.676 12.675ZM837.134 7.76618C839.391 6.71323 841.884 6.18 844.631 6.18V4.18C841.618 4.18 838.832 4.76677 836.288 5.95381L837.134 7.76618ZM844.631 6.18C849.613 6.18 853.032 7.38805 855.127 9.58936L856.576 8.21063C853.95 5.45195 849.89 4.18 844.631 4.18V6.18ZM855.138 9.60123C857.331 11.8307 858.451 14.7075 858.451 18.32H860.451C860.451 14.2525 859.171 10.8493 856.564 8.19876L855.138 9.60123ZM858.451 18.32C858.451 22.1285 857.231 25.725 854.744 29.1302L856.359 30.3098C859.072 26.595 860.451 22.5915 860.451 18.32H858.451ZM854.743 29.1318C852.261 32.5435 849.137 35.4376 845.359 37.8135L846.424 39.5065C850.406 37.0024 853.721 33.9365 856.36 30.3082L854.743 29.1318ZM845.891 39.66H859.631V37.66H845.891V39.66ZM858.631 38.66V49.4H860.631V38.66H858.631ZM859.631 48.4H828.611V50.4H859.631V48.4ZM829.611 49.4V39.38H827.611V49.4H829.611Z" fill="url(#paint0_linear_23_310)"/>
<defs>
<linearGradient id="paint0_linear_23_310" x1="429" y1="-16" x2="428.477" y2="151.733" gradientUnits="userSpaceOnUse">
<stop stop-color="#00CEFF"/>
<stop offset="0.625" stop-opacity="0"/>
</linearGradient>
</defs>
</svg>
