<svg width="1191" height="197" viewBox="0 0 1191 197" fill="none" xmlns="http://www.w3.org/2000/svg">
<path d="M96.286 195L60.376 126.42H60.106V195H0.166016V3.84H89.266C104.746 3.84 117.976 6.63 128.956 12.21C139.936 17.61 148.126 25.08 153.526 34.62C159.106 43.98 161.896 54.6 161.896 66.48C161.896 79.26 158.296 90.6 151.096 100.5C144.076 110.4 133.906 117.51 120.586 121.83L162.166 195H96.286ZM60.106 86.46H83.866C89.626 86.46 93.946 85.2 96.826 82.68C99.706 79.98 101.146 75.84 101.146 70.26C101.146 65.22 99.616 61.26 96.556 58.38C93.676 55.5 89.446 54.06 83.866 54.06H60.106V86.46ZM273.385 51.63V75.12H332.785V120.21H273.385V147.21H340.885V195H213.445V3.84H340.885V51.63H273.385ZM470.664 196.89C447.804 196.89 428.904 191.58 413.964 180.96C399.204 170.16 391.194 154.41 389.934 133.71H453.654C454.554 144.69 459.414 150.18 468.234 150.18C471.474 150.18 474.174 149.46 476.334 148.02C478.674 146.4 479.844 143.97 479.844 140.73C479.844 136.23 477.414 132.63 472.554 129.93C467.694 127.05 460.134 123.81 449.874 120.21C437.634 115.89 427.464 111.66 419.364 107.52C411.444 103.38 404.604 97.35 398.844 89.43C393.084 81.51 390.294 71.34 390.474 58.92C390.474 46.5 393.624 35.97 399.924 27.33C406.404 18.51 415.134 11.85 426.114 7.34999C437.274 2.84999 449.784 0.599992 463.644 0.599992C487.044 0.599992 505.584 5.99999 519.264 16.8C533.124 27.6 540.414 42.81 541.134 62.43H476.604C476.424 57.03 475.074 53.16 472.554 50.82C470.034 48.48 466.974 47.31 463.374 47.31C460.854 47.31 458.784 48.21 457.164 50.01C455.544 51.63 454.734 53.97 454.734 57.03C454.734 61.35 457.074 64.95 461.754 67.83C466.614 70.53 474.264 73.86 484.704 77.82C496.764 82.32 506.664 86.64 514.404 90.78C522.324 94.92 529.164 100.68 534.924 108.06C540.684 115.44 543.564 124.71 543.564 135.87C543.564 147.57 540.684 158.1 534.924 167.46C529.164 176.64 520.794 183.84 509.814 189.06C498.834 194.28 485.784 196.89 470.664 196.89ZM753.354 69.45C753.354 81.51 750.564 92.49 744.984 102.39C739.404 112.11 731.124 119.85 720.144 125.61C709.344 131.37 696.204 134.25 680.724 134.25H656.964V195H597.024V3.84H680.724C704.124 3.84 722.034 9.78 734.454 21.66C747.054 33.54 753.354 49.47 753.354 69.45ZM673.974 87C686.394 87 692.604 81.15 692.604 69.45C692.604 57.75 686.394 51.9 673.974 51.9H656.964V87H673.974ZM799.366 99.15C799.366 80.25 803.146 63.42 810.706 48.66C818.446 33.9 829.426 22.47 843.646 14.37C857.866 6.08999 874.606 1.94999 893.866 1.94999C910.426 1.94999 925.186 5.09999 938.146 11.4C951.286 17.52 961.906 26.25 970.006 37.59C978.286 48.93 983.776 62.16 986.476 77.28H923.296C920.416 70.98 916.276 66.12 910.876 62.7C905.656 59.1 899.626 57.3 892.786 57.3C882.706 57.3 874.696 61.08 868.756 68.64C862.996 76.2 860.116 86.37 860.116 99.15C860.116 111.93 862.996 122.1 868.756 129.66C874.696 137.22 882.706 141 892.786 141C899.626 141 905.656 139.29 910.876 135.87C916.276 132.27 920.416 127.32 923.296 121.02H986.476C983.776 136.14 978.286 149.37 970.006 160.71C961.906 172.05 951.286 180.87 938.146 187.17C925.186 193.29 910.426 196.35 893.866 196.35C874.606 196.35 857.866 192.3 843.646 184.2C829.426 175.92 818.446 164.4 810.706 149.64C803.146 134.88 799.366 118.05 799.366 99.15ZM1190.58 3.84V51.36H1139.82V195H1079.88V51.36H1029.66V3.84H1190.58Z" fill="#131312"/>
<path d="M96.286 195L93.6283 196.392C94.1461 197.38 95.1699 198 96.286 198V195ZM60.376 126.42L63.0337 125.028C62.516 124.04 61.4921 123.42 60.376 123.42V126.42ZM60.106 126.42V123.42C58.4492 123.42 57.106 124.763 57.106 126.42H60.106ZM60.106 195V198C61.7629 198 63.106 196.657 63.106 195H60.106ZM0.166016 195H-2.83398C-2.83398 196.657 -1.49084 198 0.166016 198V195ZM0.166016 3.84V0.839996C-1.49084 0.839996 -2.83398 2.18314 -2.83398 3.84H0.166016ZM128.956 12.21L127.597 14.8844C127.609 14.8904 127.62 14.8962 127.632 14.902L128.956 12.21ZM153.526 34.62L150.915 36.0978C150.926 36.1174 150.938 36.1368 150.949 36.1562L153.526 34.62ZM151.096 100.5L148.67 98.7355C148.663 98.7452 148.656 98.7549 148.649 98.7647L151.096 100.5ZM120.586 121.83L119.661 118.976C118.803 119.255 118.116 119.904 117.789 120.745C117.463 121.585 117.532 122.528 117.978 123.312L120.586 121.83ZM162.166 195V198C163.234 198 164.222 197.432 164.759 196.509C165.296 195.586 165.302 194.446 164.774 193.518L162.166 195ZM60.106 86.46H57.106C57.106 88.1169 58.4492 89.46 60.106 89.46V86.46ZM96.826 82.68L98.8015 84.9377C98.8274 84.9151 98.8528 84.8921 98.8779 84.8686L96.826 82.68ZM96.556 58.38L94.4347 60.5013C94.4561 60.5227 94.4779 60.5438 94.4999 60.5646L96.556 58.38ZM60.106 54.06V51.06C58.4492 51.06 57.106 52.4031 57.106 54.06H60.106ZM98.9437 193.608L63.0337 125.028L57.7183 127.812L93.6283 196.392L98.9437 193.608ZM60.376 123.42H60.106V129.42H60.376V123.42ZM57.106 126.42V195H63.106V126.42H57.106ZM60.106 192H0.166016V198H60.106V192ZM3.16602 195V3.84H-2.83398V195H3.16602ZM0.166016 6.84H89.266V0.839996H0.166016V6.84ZM89.266 6.84C104.392 6.84 117.132 9.56635 127.597 14.8844L130.315 9.53553C118.82 3.69365 105.1 0.839996 89.266 0.839996V6.84ZM127.632 14.902C138.136 20.068 145.846 27.1427 150.915 36.0978L156.137 33.1422C150.406 23.0173 141.736 15.152 130.28 9.51794L127.632 14.902ZM150.949 36.1562C156.228 45.0102 158.896 55.0905 158.896 66.48H164.896C164.896 54.1095 161.985 42.9498 156.103 33.0838L150.949 36.1562ZM158.896 66.48C158.896 78.6557 155.48 89.3718 148.67 98.7355L153.522 102.265C161.112 91.8282 164.896 79.8643 164.896 66.48H158.896ZM148.649 98.7647C142.058 108.059 132.464 114.824 119.661 118.976L121.512 124.684C135.348 120.196 146.094 112.741 153.543 102.235L148.649 98.7647ZM117.978 123.312L159.558 196.482L164.774 193.518L123.194 120.348L117.978 123.312ZM162.166 192H96.286V198H162.166V192ZM60.106 89.46H83.866V83.46H60.106V89.46ZM83.866 89.46C89.9974 89.46 95.1562 88.1274 98.8015 84.9377L94.8505 80.4223C92.7359 82.2726 89.2547 83.46 83.866 83.46V89.46ZM98.8779 84.8686C102.578 81.3997 104.146 76.319 104.146 70.26H98.146C98.146 75.361 96.834 78.5603 94.7742 80.4914L98.8779 84.8686ZM104.146 70.26C104.146 64.5711 102.393 59.7539 98.6121 56.1954L94.4999 60.5646C96.839 62.7661 98.146 65.8689 98.146 70.26H104.146ZM98.6773 56.2587C95.0526 52.6339 89.9405 51.06 83.866 51.06V57.06C88.9516 57.06 92.2995 58.3661 94.4347 60.5013L98.6773 56.2587ZM83.866 51.06H60.106V57.06H83.866V51.06ZM57.106 54.06V86.46H63.106V54.06H57.106ZM273.385 51.63V48.63C271.728 48.63 270.385 49.9731 270.385 51.63H273.385ZM273.385 75.12H270.385C270.385 76.7768 271.728 78.12 273.385 78.12V75.12ZM332.785 75.12H335.785C335.785 73.4631 334.442 72.12 332.785 72.12V75.12ZM332.785 120.21V123.21C334.442 123.21 335.785 121.867 335.785 120.21H332.785ZM273.385 120.21V117.21C271.728 117.21 270.385 118.553 270.385 120.21H273.385ZM273.385 147.21H270.385C270.385 148.867 271.728 150.21 273.385 150.21V147.21ZM340.885 147.21H343.885C343.885 145.553 342.542 144.21 340.885 144.21V147.21ZM340.885 195V198C342.542 198 343.885 196.657 343.885 195H340.885ZM213.445 195H210.445C210.445 196.657 211.788 198 213.445 198V195ZM213.445 3.84V0.839996C211.788 0.839996 210.445 2.18314 210.445 3.84H213.445ZM340.885 3.84H343.885C343.885 2.18314 342.542 0.839996 340.885 0.839996V3.84ZM340.885 51.63V54.63C342.542 54.63 343.885 53.2868 343.885 51.63H340.885ZM270.385 51.63V75.12H276.385V51.63H270.385ZM273.385 78.12H332.785V72.12H273.385V78.12ZM329.785 75.12V120.21H335.785V75.12H329.785ZM332.785 117.21H273.385V123.21H332.785V117.21ZM270.385 120.21V147.21H276.385V120.21H270.385ZM273.385 150.21H340.885V144.21H273.385V150.21ZM337.885 147.21V195H343.885V147.21H337.885ZM340.885 192H213.445V198H340.885V192ZM216.445 195V3.84H210.445V195H216.445ZM213.445 6.84H340.885V0.839996H213.445V6.84ZM337.885 3.84V51.63H343.885V3.84H337.885ZM340.885 48.63H273.385V54.63H340.885V48.63ZM413.964 180.96L412.193 183.381C412.204 183.389 412.215 183.397 412.226 183.405L413.964 180.96ZM389.934 133.71V130.71C389.107 130.71 388.316 131.052 387.749 131.654C387.182 132.257 386.889 133.066 386.94 133.892L389.934 133.71ZM453.654 133.71L456.644 133.465C456.517 131.908 455.216 130.71 453.654 130.71V133.71ZM476.334 148.02L477.998 150.516C478.013 150.506 478.027 150.497 478.042 150.487L476.334 148.02ZM472.554 129.93L471.025 132.511C471.049 132.525 471.073 132.539 471.097 132.552L472.554 129.93ZM449.874 120.21L448.876 123.039L448.881 123.041L449.874 120.21ZM419.364 107.52L417.974 110.179C417.983 110.183 417.991 110.187 417.999 110.191L419.364 107.52ZM398.844 89.43L401.27 87.6655L398.844 89.43ZM390.474 58.92L393.474 58.9635C393.474 58.949 393.474 58.9345 393.474 58.92H390.474ZM399.924 27.33L397.507 25.5537L397.5 25.5625L399.924 27.33ZM426.114 7.34998L424.992 4.56766C424.987 4.56979 424.982 4.57192 424.977 4.57407L426.114 7.34998ZM519.264 16.8L517.405 19.1546C517.41 19.1586 517.415 19.1625 517.42 19.1664L519.264 16.8ZM541.134 62.43V65.43C541.949 65.43 542.729 65.0986 543.294 64.5121C543.859 63.9255 544.162 63.1342 544.132 62.32L541.134 62.43ZM476.604 62.43L473.606 62.5299C473.66 64.147 474.986 65.43 476.604 65.43V62.43ZM457.164 50.01L459.286 52.1313C459.323 52.0941 459.359 52.056 459.394 52.0169L457.164 50.01ZM461.754 67.83L460.182 70.385C460.22 70.4083 460.258 70.4308 460.297 70.4525L461.754 67.83ZM484.704 77.82L483.64 80.625C483.645 80.6269 483.65 80.6288 483.655 80.6307L484.704 77.82ZM514.404 90.78L512.989 93.4254C512.998 93.4298 513.006 93.4343 513.014 93.4387L514.404 90.78ZM534.924 108.06L532.559 109.906L534.924 108.06ZM534.924 167.46L537.465 169.054C537.47 169.047 537.475 169.04 537.479 169.032L534.924 167.46ZM509.814 189.06L508.526 186.351L509.814 189.06ZM470.664 193.89C448.272 193.89 430.021 188.693 415.702 178.515L412.226 183.405C427.787 194.467 447.337 199.89 470.664 199.89V193.89ZM415.736 178.539C401.798 168.341 394.143 153.471 392.929 133.528L386.94 133.892C388.246 155.349 396.61 171.979 412.193 183.381L415.736 178.539ZM389.934 136.71H453.654V130.71H389.934V136.71ZM450.664 133.955C451.142 139.783 452.7 144.631 455.728 148.051C458.842 151.569 463.155 153.18 468.234 153.18V147.18C464.493 147.18 461.966 146.046 460.221 144.074C458.388 142.004 457.066 138.617 456.644 133.465L450.664 133.955ZM468.234 153.18C471.919 153.18 475.236 152.358 477.998 150.516L474.67 145.524C473.113 146.562 471.029 147.18 468.234 147.18V153.18ZM478.042 150.487C481.313 148.222 482.844 144.796 482.844 140.73H476.844C476.844 143.144 476.035 144.578 474.627 145.553L478.042 150.487ZM482.844 140.73C482.844 134.868 479.559 130.39 474.011 127.308L471.097 132.552C475.269 134.87 476.844 137.591 476.844 140.73H482.844ZM474.084 127.349C468.962 124.314 461.176 120.996 450.867 117.379L448.881 123.041C459.092 126.624 466.426 129.786 471.025 132.511L474.084 127.349ZM450.873 117.381C438.71 113.088 428.673 108.909 420.73 104.849L417.999 110.191C426.256 114.411 436.558 118.692 448.876 123.039L450.873 117.381ZM420.754 104.861C413.282 100.955 406.785 95.2479 401.27 87.6655L396.418 91.1945C402.423 99.4521 409.607 105.805 417.974 110.179L420.754 104.861ZM401.27 87.6655C395.984 80.3966 393.301 70.9105 393.474 58.9635L387.475 58.8765C387.288 71.7695 390.184 82.6234 396.418 91.1945L401.27 87.6655ZM393.474 58.92C393.474 47.0291 396.481 37.1445 402.348 29.0975L397.5 25.5625C390.768 34.7955 387.474 45.9709 387.474 58.92H393.474ZM402.342 29.1062C408.468 20.7681 416.738 14.435 427.252 10.1259L424.977 4.57407C413.531 9.26501 404.341 16.2519 397.507 25.5538L402.342 29.1062ZM427.236 10.1323C437.99 5.79621 450.111 3.59999 463.644 3.59999V-2.40001C449.458 -2.40001 436.559 -0.0962296 424.992 4.56766L427.236 10.1323ZM463.644 3.59999C486.6 3.59999 504.411 8.89594 517.405 19.1546L521.123 14.4453C506.758 3.10404 487.488 -2.40001 463.644 -2.40001V3.59999ZM517.42 19.1664C530.494 29.3535 537.444 43.6886 538.136 62.54L544.132 62.32C543.384 41.9313 535.755 25.8464 521.108 14.4336L517.42 19.1664ZM541.134 59.43H476.604V65.43H541.134V59.43ZM479.603 62.33C479.411 56.574 477.961 51.7471 474.596 48.6216L470.513 53.0184C472.187 54.5729 473.438 57.4859 473.606 62.5299L479.603 62.33ZM474.596 48.6216C471.493 45.7404 467.692 44.31 463.374 44.31V50.31C466.256 50.31 468.576 51.2196 470.513 53.0184L474.596 48.6216ZM463.374 44.31C460.043 44.31 457.149 45.5424 454.934 48.0031L459.394 52.0169C460.419 50.8776 461.665 50.31 463.374 50.31V44.31ZM455.043 47.8887C452.691 50.2401 451.734 53.4501 451.734 57.03H457.734C457.734 54.4899 458.397 53.0199 459.286 52.1313L455.043 47.8887ZM451.734 57.03C451.734 62.6794 454.891 67.1289 460.182 70.385L463.326 65.275C459.258 62.7711 457.734 60.0206 457.734 57.03H451.734ZM460.297 70.4525C465.354 73.262 473.171 76.654 483.64 80.625L485.768 75.015C475.357 71.066 467.874 67.798 463.211 65.2075L460.297 70.4525ZM483.655 80.6307C495.642 85.1033 505.408 89.3703 512.989 93.4254L515.819 88.1346C507.92 83.9097 497.886 79.5367 485.753 75.0093L483.655 80.6307ZM513.014 93.4387C520.537 97.371 527.05 102.847 532.559 109.906L537.289 106.214C531.279 98.5132 524.111 92.469 515.794 88.1213L513.014 93.4387ZM532.559 109.906C537.833 116.662 540.564 125.246 540.564 135.87H546.564C546.564 124.174 543.536 114.218 537.289 106.214L532.559 109.906ZM540.564 135.87C540.564 147.052 537.819 157.031 532.369 165.888L537.479 169.032C543.549 159.169 546.564 148.088 546.564 135.87H540.564ZM532.383 165.866C526.962 174.505 519.056 181.345 508.526 186.351L511.102 191.769C522.533 186.335 531.366 178.775 537.465 169.054L532.383 165.866ZM508.526 186.351C498.034 191.339 485.444 193.89 470.664 193.89V199.89C486.124 199.89 499.634 197.221 511.102 191.769L508.526 186.351ZM744.984 102.39L747.586 103.884C747.59 103.877 747.594 103.87 747.598 103.863L744.984 102.39ZM720.144 125.61L718.751 122.953C718.745 122.957 718.739 122.96 718.732 122.963L720.144 125.61ZM656.964 134.25V131.25C655.307 131.25 653.964 132.593 653.964 134.25H656.964ZM656.964 195V198C658.621 198 659.964 196.657 659.964 195H656.964ZM597.024 195H594.024C594.024 196.657 595.367 198 597.024 198V195ZM597.024 3.84V0.839996C595.367 0.839996 594.024 2.18314 594.024 3.84H597.024ZM734.454 21.66L732.381 23.8279C732.386 23.8329 732.391 23.8378 732.396 23.8428L734.454 21.66ZM656.964 51.9V48.9C655.307 48.9 653.964 50.2431 653.964 51.9H656.964ZM656.964 87H653.964C653.964 88.6568 655.307 90 656.964 90V87ZM750.354 69.45C750.354 81.0266 747.682 91.4942 742.371 100.917L747.598 103.863C753.447 93.4858 756.354 81.9934 756.354 69.45H750.354ZM742.383 100.896C737.116 110.07 729.281 117.429 718.751 122.953L721.538 128.267C732.967 122.271 741.692 114.15 747.586 103.884L742.383 100.896ZM718.732 122.963C708.467 128.438 695.839 131.25 680.724 131.25V137.25C696.569 137.25 710.221 134.302 721.556 128.257L718.732 122.963ZM680.724 131.25H656.964V137.25H680.724V131.25ZM653.964 134.25V195H659.964V134.25H653.964ZM656.964 192H597.024V198H656.964V192ZM600.024 195V3.84H594.024V195H600.024ZM597.024 6.84H680.724V0.839996H597.024V6.84ZM680.724 6.84C703.636 6.84 720.695 12.6506 732.381 23.8279L736.528 19.4921C723.373 6.90936 704.612 0.839996 680.724 0.839996V6.84ZM732.396 23.8428C744.301 35.0672 750.354 50.1573 750.354 69.45H756.354C756.354 48.7827 749.808 32.0128 736.512 19.4772L732.396 23.8428ZM673.974 90C680.604 90 686.133 88.4422 690.004 84.7962C693.908 81.1185 695.604 75.8098 695.604 69.45H689.604C689.604 74.7902 688.196 78.2565 685.89 80.4288C683.55 82.6328 679.765 84 673.974 84V90ZM695.604 69.45C695.604 63.0902 693.908 57.7815 690.004 54.1038C686.133 50.4578 680.604 48.9 673.974 48.9V54.9C679.765 54.9 683.55 56.2672 685.89 58.4712C688.196 60.6435 689.604 64.1097 689.604 69.45H695.604ZM673.974 48.9H656.964V54.9H673.974V48.9ZM653.964 51.9V87H659.964V51.9H653.964ZM656.964 90H673.974V84H656.964V90ZM810.706 48.66L808.049 47.2668C808.045 47.2753 808.04 47.2838 808.036 47.2924L810.706 48.66ZM843.646 14.37L845.131 16.9767C845.139 16.972 845.147 16.9673 845.156 16.9625L843.646 14.37ZM938.146 11.4L936.834 14.0981C936.849 14.1054 936.864 14.1125 936.879 14.1195L938.146 11.4ZM970.006 37.59L967.565 39.3337C967.571 39.3422 967.577 39.3507 967.583 39.3591L970.006 37.59ZM986.476 77.28V80.28C987.364 80.28 988.206 79.8867 988.776 79.2059C989.346 78.5251 989.585 77.6267 989.429 76.7526L986.476 77.28ZM923.296 77.28L920.568 78.5273C921.056 79.5951 922.122 80.28 923.296 80.28V77.28ZM910.876 62.7L909.173 65.1696C909.205 65.1919 909.238 65.2135 909.271 65.2345L910.876 62.7ZM868.756 68.64L866.397 66.7865C866.388 66.7982 866.379 66.81 866.37 66.8219L868.756 68.64ZM868.756 129.66L866.37 131.478C866.379 131.49 866.388 131.502 866.397 131.513L868.756 129.66ZM910.876 135.87L912.52 138.379C912.527 138.375 912.533 138.371 912.54 138.366L910.876 135.87ZM923.296 121.02V118.02C922.122 118.02 921.056 118.705 920.568 119.773L923.296 121.02ZM986.476 121.02L989.429 121.547C989.585 120.673 989.346 119.775 988.776 119.094C988.206 118.413 987.364 118.02 986.476 118.02V121.02ZM970.006 160.71L967.583 158.941C967.577 158.949 967.571 158.958 967.565 158.966L970.006 160.71ZM938.146 187.17L939.427 189.883C939.432 189.88 939.438 189.878 939.443 189.875L938.146 187.17ZM843.646 184.2L842.136 186.793C842.145 186.797 842.153 186.802 842.161 186.807L843.646 184.2ZM810.706 149.64L808.036 151.008C808.04 151.016 808.045 151.025 808.049 151.033L810.706 149.64ZM802.366 99.15C802.366 80.6587 806.062 64.3086 813.376 50.0276L808.036 47.2924C800.23 62.5314 796.366 79.8413 796.366 99.15H802.366ZM813.363 50.0532C820.841 35.7916 831.419 24.7872 845.131 16.9767L842.161 11.7632C827.433 20.1528 816.05 32.0084 808.049 47.2668L813.363 50.0532ZM845.156 16.9625C858.844 8.99184 875.045 4.94999 893.866 4.94999V-1.05001C874.167 -1.05001 856.888 3.18814 842.136 11.7775L845.156 16.9625ZM893.866 4.94999C910.039 4.94999 924.34 8.02444 936.834 14.0981L939.458 8.7019C926.032 2.17554 910.813 -1.05001 893.866 -1.05001V4.94999ZM936.879 14.1195C949.57 20.0301 959.778 28.4321 967.565 39.3337L972.447 35.8463C964.034 24.0679 953.002 15.0099 939.413 8.6805L936.879 14.1195ZM967.583 39.3591C975.57 50.2973 980.895 63.0934 983.523 77.8074L989.429 76.7526C986.657 61.2266 981.002 47.5627 972.429 35.8209L967.583 39.3591ZM986.476 74.28H923.296V80.28H986.476V74.28ZM926.024 76.0327C922.924 69.2501 918.414 63.9228 912.481 60.1655L909.271 65.2345C914.138 68.3172 917.908 72.7099 920.568 78.5273L926.024 76.0327ZM912.579 60.2304C906.818 56.2574 900.184 54.3 892.786 54.3V60.3C899.068 60.3 904.494 61.9425 909.173 65.1696L912.579 60.2304ZM892.786 54.3C881.837 54.3 872.937 58.463 866.397 66.7865L871.115 70.4935C876.455 63.697 883.575 60.3 892.786 60.3V54.3ZM866.37 66.8219C860.094 75.0586 857.116 85.9377 857.116 99.15H863.116C863.116 86.8023 865.898 77.3414 871.142 70.4581L866.37 66.8219ZM857.116 99.15C857.116 112.362 860.094 123.241 866.37 131.478L871.142 127.842C865.898 120.959 863.116 111.498 863.116 99.15H857.116ZM866.397 131.513C872.937 139.837 881.837 144 892.786 144V138C883.575 138 876.455 134.603 871.115 127.807L866.397 131.513ZM892.786 144C900.152 144 906.765 142.15 912.52 138.379L909.232 133.361C904.547 136.43 899.1 138 892.786 138V144ZM912.54 138.366C918.436 134.436 922.929 129.039 926.024 122.267L920.568 119.773C917.903 125.601 914.116 130.104 909.212 133.374L912.54 138.366ZM923.296 124.02H986.476V118.02H923.296V124.02ZM983.523 120.493C980.895 135.207 975.57 148.003 967.583 158.941L972.429 162.479C981.002 150.737 986.657 137.073 989.429 121.547L983.523 120.493ZM967.565 158.966C959.773 169.875 949.554 178.373 936.849 184.465L939.443 189.875C953.018 183.367 964.039 174.225 972.447 162.454L967.565 158.966ZM936.865 184.457C924.363 190.361 910.052 193.35 893.866 193.35V199.35C910.8 199.35 926.009 196.219 939.427 189.883L936.865 184.457ZM893.866 193.35C875.034 193.35 858.824 189.393 845.131 181.593L842.161 186.807C856.908 195.207 874.178 199.35 893.866 199.35V193.35ZM845.156 181.607C831.43 173.615 820.844 162.514 813.363 148.247L808.049 151.033C816.048 166.286 827.422 178.225 842.136 186.793L845.156 181.607ZM813.376 148.272C806.062 133.991 802.366 117.641 802.366 99.15H796.366C796.366 118.459 800.23 135.769 808.036 151.008L813.376 148.272ZM1190.58 3.84H1193.58C1193.58 2.18314 1192.23 0.839996 1190.58 0.839996V3.84ZM1190.58 51.36V54.36C1192.23 54.36 1193.58 53.0168 1193.58 51.36H1190.58ZM1139.82 51.36V48.36C1138.16 48.36 1136.82 49.7031 1136.82 51.36H1139.82ZM1139.82 195V198C1141.47 198 1142.82 196.657 1142.82 195H1139.82ZM1079.88 195H1076.88C1076.88 196.657 1078.22 198 1079.88 198V195ZM1079.88 51.36H1082.88C1082.88 49.7031 1081.53 48.36 1079.88 48.36V51.36ZM1029.66 51.36H1026.66C1026.66 53.0168 1028 54.36 1029.66 54.36V51.36ZM1029.66 3.84V0.839996C1028 0.839996 1026.66 2.18314 1026.66 3.84H1029.66ZM1187.58 3.84V51.36H1193.58V3.84H1187.58ZM1190.58 48.36H1139.82V54.36H1190.58V48.36ZM1136.82 51.36V195H1142.82V51.36H1136.82ZM1139.82 192H1079.88V198H1139.82V192ZM1082.88 195V51.36H1076.88V195H1082.88ZM1079.88 48.36H1029.66V54.36H1079.88V48.36ZM1032.66 51.36V3.84H1026.66V51.36H1032.66ZM1029.66 6.84H1190.58V0.839996H1029.66V6.84Z" fill="url(#paint0_linear_23_309)"/>
<defs>
<linearGradient id="paint0_linear_23_309" x1="590" y1="-102" x2="586.479" y2="333.11" gradientUnits="userSpaceOnUse">
<stop stop-color="#9E52FF"/>
<stop offset="0.827491" stop-opacity="0"/>
</linearGradient>
</defs>
</svg>
