<svg width="612" height="906" viewBox="0 0 612 906" fill="none" xmlns="http://www.w3.org/2000/svg">
<path d="M310.31 448.24C355.723 448.24 401.133 448.24 446.54 448.24C448.24 448.24 450.01 447.84 451.61 448.98C451.98 449.24 452.7 449.04 453.26 448.98C477.26 447.03 498.53 438.29 516.66 422.39C536.51 404.98 548.91 383.16 552.66 357.01C557.66 322.17 547.85 291.63 523.79 265.95C508.14 249.25 488.79 238.86 466.38 234.26C462.939 233.545 459.434 233.183 455.92 233.18C368.78 233.22 281.643 233.22 194.51 233.18C189.473 233.205 184.44 232.915 179.44 232.31C158.14 229.778 137.993 221.266 121.33 207.76C98.64 189.51 84.1 166.05 79.23 137.33C72.59 98.23 83.3 64 110.73 35.33C127.33 17.98 147.73 7.22003 171.29 2.44003C178.261 1.01981 185.356 0.299569 192.47 0.290029C281.21 0.290029 369.947 0.290029 458.68 0.290029C460.09 0.290029 461.85 -0.299972 462.8 0.730028C463.75 1.76003 463.08 3.34003 463.07 4.73003C463.07 5.90003 463.63 7.37003 462.74 8.18003C461.85 8.99003 460.6 8.27003 459.5 8.27003H457.58C369.88 8.27003 282.183 8.27003 194.49 8.27003C171.3 8.22731 148.698 15.5704 129.962 29.2351C111.225 42.8998 97.3261 62.1761 90.28 84.27C85.6506 98.8909 84.1915 114.331 86 129.56C91.1 173.85 124.52 212.89 171.29 222.98C175.506 223.886 179.807 224.338 184.12 224.33C270.86 224.29 357.597 224.273 444.33 224.28C456.245 223.936 468.129 225.651 479.46 229.35C519.76 241.69 550.92 275.65 559.46 316.97C572.6 380.51 532 439.68 472.75 454C463.736 456.178 454.494 457.272 445.22 457.26H181.89C180.61 457.26 179.33 457.26 178.05 457.26C177.5 457.26 176.84 457.44 176.45 456.98C175.79 456.22 175 456.46 174.23 456.53C146.37 458.79 122.67 469.94 103.33 490.1C88 506 78.25 525 74.83 546.79C69.32 582.06 78.83 613.03 103.14 639.16C119.48 656.76 139.82 667.4 163.46 671.68C165.981 672.099 168.535 672.29 171.09 672.25C258.55 672.25 346.007 672.25 433.46 672.25C461.382 672.213 488.375 682.276 509.46 700.58C530.66 718.96 544.05 742.03 548.36 769.76C554.36 808.2 543.57 841.76 516.72 869.93C500.26 887.16 480.05 897.98 456.72 902.83C449.362 904.36 441.866 905.131 434.35 905.13H169C167.8 905.13 166.6 905.07 165.4 905.08C164.63 905.08 164.22 904.84 164.23 903.98C164.23 901.98 164.23 899.98 164.23 897.98C164.23 897.27 164.58 896.98 165.29 897.05C166.8 897.14 168.29 897.23 169.84 897.23C257.693 897.23 345.543 897.23 433.39 897.23C483.17 897.23 527.03 862.75 538.82 814.55C542.343 799.98 542.818 784.839 540.216 770.077C537.613 755.315 531.989 741.25 523.696 728.763C515.403 716.276 504.62 705.637 492.023 697.512C479.426 689.388 465.286 683.954 450.49 681.55C448.27 681.246 446.03 681.123 443.79 681.18C356.263 681.18 268.727 681.18 181.18 681.18C175.749 681.27 170.319 680.935 164.94 680.18C158.564 679.165 152.278 677.651 146.14 675.65C106.82 662.82 76.69 630.4 68.14 589.94C59.69 549.8 69.82 514.3 97.81 484.3C114.81 466.12 135.9 454.98 160.32 450.23C167.24 448.892 174.272 448.222 181.32 448.23L310.31 448.24Z" fill="#EC2227"/>
<path d="M83 149.5C100.397 149.5 114.5 135.397 114.5 118C114.5 100.603 100.397 86.5 83 86.5C65.603 86.5 51.5 100.603 51.5 118C51.5 135.397 65.603 149.5 83 149.5Z" fill="white" stroke="#EB2329" stroke-width="7" stroke-miterlimit="10"/>
<path d="M558 381.5C575.397 381.5 589.5 367.397 589.5 350C589.5 332.603 575.397 318.5 558 318.5C540.603 318.5 526.5 332.603 526.5 350C526.5 367.397 540.603 381.5 558 381.5Z" fill="white" stroke="#EB2329" stroke-width="7" stroke-miterlimit="10"/>
<path d="M70 600.5C87.397 600.5 101.5 586.397 101.5 569C101.5 551.603 87.397 537.5 70 537.5C52.603 537.5 38.5 551.603 38.5 569C38.5 586.397 52.603 600.5 70 600.5Z" fill="white" stroke="#EB2329" stroke-width="7" stroke-miterlimit="10"/>
<path d="M547 832.5C564.397 832.5 578.5 818.397 578.5 801C578.5 783.603 564.397 769.5 547 769.5C529.603 769.5 515.5 783.603 515.5 801C515.5 818.397 529.603 832.5 547 832.5Z" fill="white" stroke="#EB2329" stroke-width="7" stroke-miterlimit="10"/>
<path d="M455 4.5L633 5.5" stroke="#EB2329" stroke-width="7" stroke-miterlimit="10"/>
<path d="M-5 900.5L173 901.5" stroke="#EB2329" stroke-width="7" stroke-miterlimit="10"/>
<path d="M163.358 80.4927H159.307V79.2393H163.358V80.4927ZM177.336 74.2256H173.452V85H171.866V74.2256H167.99V72.9141H177.336V74.2256ZM181.786 85.166C180.568 85.166 179.578 84.7676 178.814 83.9707C178.05 83.1683 177.668 82.0975 177.668 80.7583V80.4761C177.668 79.5851 177.837 78.791 178.175 78.0938C178.518 77.391 178.994 76.8431 179.603 76.4502C180.217 76.0518 180.881 75.8525 181.595 75.8525C182.762 75.8525 183.67 76.2371 184.317 77.0063C184.965 77.7756 185.289 78.8768 185.289 80.3101V80.9492H179.204C179.226 81.8346 179.484 82.5513 179.976 83.0991C180.474 83.6414 181.105 83.9126 181.869 83.9126C182.411 83.9126 182.87 83.8019 183.247 83.5806C183.623 83.3592 183.952 83.0659 184.234 82.7007L185.172 83.4312C184.42 84.5877 183.291 85.166 181.786 85.166ZM181.595 77.1143C180.975 77.1143 180.455 77.3411 180.034 77.7949C179.614 78.2432 179.354 78.874 179.254 79.6875H183.753V79.5713C183.709 78.791 183.498 78.1878 183.122 77.7617C182.746 77.3301 182.237 77.1143 181.595 77.1143ZM192.303 82.6177C192.303 82.2026 192.145 81.8817 191.83 81.6548C191.52 81.4224 190.975 81.2231 190.194 81.0571C189.42 80.8911 188.803 80.6919 188.343 80.4595C187.889 80.2271 187.552 79.9504 187.331 79.6294C187.115 79.3084 187.007 78.9266 187.007 78.4839C187.007 77.7479 187.317 77.1253 187.937 76.6162C188.562 76.1071 189.359 75.8525 190.327 75.8525C191.345 75.8525 192.17 76.1154 192.801 76.6411C193.437 77.1668 193.755 77.8392 193.755 78.6582H192.211C192.211 78.2376 192.032 77.8752 191.672 77.5708C191.318 77.2664 190.869 77.1143 190.327 77.1143C189.768 77.1143 189.331 77.236 189.016 77.4795C188.7 77.723 188.542 78.0412 188.542 78.4341C188.542 78.8049 188.689 79.0843 188.982 79.2725C189.276 79.4606 189.804 79.6405 190.568 79.812C191.337 79.9836 191.96 80.1883 192.436 80.4263C192.911 80.6642 193.263 80.952 193.49 81.2896C193.722 81.6216 193.838 82.0283 193.838 82.5098C193.838 83.3122 193.517 83.9569 192.875 84.4438C192.234 84.9253 191.401 85.166 190.377 85.166C189.658 85.166 189.021 85.0387 188.468 84.7842C187.914 84.5296 187.48 84.1755 187.165 83.7217C186.855 83.2624 186.7 82.7671 186.7 82.2358H188.235C188.263 82.7505 188.468 83.16 188.85 83.4644C189.237 83.7632 189.746 83.9126 190.377 83.9126C190.958 83.9126 191.423 83.7964 191.771 83.564C192.126 83.326 192.303 83.0106 192.303 82.6177ZM197.922 73.8438V76.0186H199.599V77.2056H197.922V82.7754C197.922 83.1351 197.997 83.4062 198.146 83.5889C198.296 83.766 198.55 83.8545 198.91 83.8545C199.087 83.8545 199.331 83.8213 199.641 83.7549V85C199.237 85.1107 198.844 85.166 198.462 85.166C197.776 85.166 197.258 84.9585 196.91 84.5435C196.561 84.1284 196.387 83.5391 196.387 82.7754V77.2056H194.751V76.0186H196.387V73.8438H197.922ZM202.853 76.0186L202.903 77.1475C203.589 76.2842 204.486 75.8525 205.592 75.8525C207.49 75.8525 208.448 76.9233 208.464 79.0649V85H206.929V79.0566C206.923 78.4092 206.774 77.9305 206.48 77.6206C206.193 77.3107 205.742 77.1558 205.127 77.1558C204.629 77.1558 204.192 77.2886 203.816 77.5542C203.44 77.8198 203.146 78.1685 202.936 78.6001V85H201.4V76.0186H202.853ZM214.507 85.166C213.29 85.166 212.299 84.7676 211.536 83.9707C210.772 83.1683 210.39 82.0975 210.39 80.7583V80.4761C210.39 79.5851 210.559 78.791 210.896 78.0938C211.24 77.391 211.715 76.8431 212.324 76.4502C212.938 76.0518 213.603 75.8525 214.316 75.8525C215.484 75.8525 216.392 76.2371 217.039 77.0063C217.687 77.7756 218.01 78.8768 218.01 80.3101V80.9492H211.926C211.948 81.8346 212.205 82.5513 212.698 83.0991C213.196 83.6414 213.827 83.9126 214.59 83.9126C215.133 83.9126 215.592 83.8019 215.968 83.5806C216.345 83.3592 216.674 83.0659 216.956 82.7007L217.894 83.4312C217.141 84.5877 216.013 85.166 214.507 85.166ZM214.316 77.1143C213.697 77.1143 213.176 77.3411 212.756 77.7949C212.335 78.2432 212.075 78.874 211.976 79.6875H216.475V79.5713C216.43 78.791 216.22 78.1878 215.844 77.7617C215.467 77.3301 214.958 77.1143 214.316 77.1143ZM221.878 73.8438V76.0186H223.555V77.2056H221.878V82.7754C221.878 83.1351 221.953 83.4062 222.103 83.5889C222.252 83.766 222.507 83.8545 222.866 83.8545C223.043 83.8545 223.287 83.8213 223.597 83.7549V85C223.193 85.1107 222.8 85.166 222.418 85.166C221.732 85.166 221.214 84.9585 220.866 84.5435C220.517 84.1284 220.343 83.5391 220.343 82.7754V77.2056H218.708V76.0186H220.343V73.8438H221.878ZM229.814 85V72.9141H233.226C234.277 72.9141 235.207 73.1465 236.015 73.6113C236.823 74.0762 237.445 74.7375 237.882 75.5952C238.325 76.453 238.549 77.438 238.555 78.5503V79.3223C238.555 80.4622 238.333 81.4611 237.891 82.3188C237.453 83.1766 236.825 83.8351 236.006 84.2944C235.193 84.7537 234.244 84.9889 233.159 85H229.814ZM231.408 74.2256V83.6968H233.084C234.313 83.6968 235.268 83.3149 235.948 82.5513C236.634 81.7876 236.978 80.7002 236.978 79.2891V78.5835C236.978 77.2111 236.654 76.1458 236.006 75.3877C235.364 74.624 234.451 74.2367 233.267 74.2256H231.408ZM247.802 79.4136H242.564V83.6968H248.648V85H240.97V72.9141H248.565V74.2256H242.564V78.1104H247.802V79.4136ZM254.575 77.5459L257.472 72.9141H259.348L255.53 78.9072L259.439 85H257.547L254.575 80.2852L251.587 85H249.703L253.621 78.9072L249.794 72.9141H251.662L254.575 77.5459ZM264.943 81.7544C264.943 81.1733 265.103 80.6393 265.424 80.1523C265.751 79.6654 266.371 79.0981 267.284 78.4507C266.747 77.7977 266.387 77.272 266.205 76.8735C266.022 76.4751 265.931 76.0794 265.931 75.6865C265.931 74.7679 266.202 74.0485 266.744 73.5283C267.286 73.0081 268.022 72.748 268.952 72.748C269.782 72.748 270.468 72.9915 271.011 73.4785C271.553 73.96 271.824 74.5687 271.824 75.3047C271.824 75.7917 271.7 76.2427 271.451 76.6577C271.207 77.0672 270.778 77.4989 270.164 77.9526L269.276 78.6084L271.965 81.8208C272.342 81.1014 272.53 80.3018 272.53 79.4219H273.916C273.916 80.833 273.576 82.0034 272.895 82.9331L274.622 85H272.779L271.974 84.0454C271.564 84.4106 271.083 84.6901 270.529 84.8838C269.981 85.0719 269.423 85.166 268.853 85.166C267.674 85.166 266.728 84.8534 266.014 84.228C265.3 83.6027 264.943 82.7782 264.943 81.7544ZM268.853 83.9126C269.666 83.9126 270.41 83.6027 271.085 82.9829L268.139 79.4551L267.865 79.6543C266.941 80.335 266.479 81.035 266.479 81.7544C266.479 82.4074 266.689 82.9303 267.109 83.3232C267.535 83.7161 268.117 83.9126 268.853 83.9126ZM267.466 75.6367C267.466 76.168 267.793 76.832 268.446 77.6289L269.425 76.9399C269.802 76.6743 270.059 76.4225 270.197 76.1846C270.336 75.9411 270.405 75.6478 270.405 75.3047C270.405 74.9339 270.266 74.6268 269.99 74.3833C269.713 74.1343 269.364 74.0098 268.944 74.0098C268.49 74.0098 268.13 74.1647 267.865 74.4746C267.599 74.779 267.466 75.1663 267.466 75.6367ZM281.901 83.6968H287.629V85H280.299V72.9141H281.901V83.6968ZM291.041 80.2686V85H289.447V72.9141H293.904C295.227 72.9141 296.262 73.2516 297.009 73.9268C297.761 74.6019 298.138 75.4956 298.138 76.6079C298.138 77.7811 297.77 78.6859 297.034 79.3223C296.303 79.9531 295.255 80.2686 293.888 80.2686H291.041ZM291.041 78.9653H293.904C294.757 78.9653 295.41 78.7661 295.863 78.3677C296.317 77.9637 296.544 77.3826 296.544 76.6245C296.544 75.9051 296.317 75.3296 295.863 74.8979C295.41 74.4663 294.787 74.2422 293.996 74.2256H291.041V78.9653ZM305.816 85H304.28V72.25H305.816V85ZM313.826 85C313.738 84.8229 313.666 84.5075 313.61 84.0537C312.896 84.7952 312.044 85.166 311.054 85.166C310.168 85.166 309.441 84.917 308.871 84.4189C308.306 83.9154 308.024 83.279 308.024 82.5098C308.024 81.5745 308.378 80.8496 309.086 80.335C309.8 79.8148 310.802 79.5547 312.091 79.5547H313.585V78.8491C313.585 78.3123 313.425 77.8862 313.104 77.5708C312.783 77.2498 312.31 77.0894 311.685 77.0894C311.137 77.0894 310.677 77.2277 310.307 77.5044C309.936 77.7811 309.75 78.1159 309.75 78.5088H308.207C308.207 78.0605 308.364 77.6289 308.68 77.2139C309.001 76.7933 309.432 76.4613 309.975 76.2178C310.522 75.9743 311.123 75.8525 311.776 75.8525C312.811 75.8525 313.621 76.1126 314.208 76.6328C314.795 77.1475 315.099 77.8586 315.121 78.7661V82.8999C315.121 83.7244 315.226 84.3802 315.437 84.8672V85H313.826ZM311.278 83.8296C311.759 83.8296 312.216 83.7051 312.647 83.4561C313.079 83.207 313.392 82.8833 313.585 82.4849V80.6421H312.382C310.5 80.6421 309.56 81.1927 309.56 82.2939C309.56 82.7754 309.72 83.1517 310.041 83.4229C310.362 83.694 310.774 83.8296 311.278 83.8296ZM323.073 84.1118C322.476 84.8146 321.598 85.166 320.442 85.166C319.485 85.166 318.754 84.8893 318.25 84.3359C317.752 83.777 317.501 82.9525 317.495 81.8623V76.0186H319.031V81.8208C319.031 83.1821 319.584 83.8628 320.691 83.8628C321.864 83.8628 322.644 83.4256 323.032 82.5513V76.0186H324.567V85H323.106L323.073 84.1118ZM328.361 76.0186L328.411 77.1475C329.097 76.2842 329.993 75.8525 331.1 75.8525C332.998 75.8525 333.956 76.9233 333.972 79.0649V85H332.437V79.0566C332.431 78.4092 332.282 77.9305 331.988 77.6206C331.701 77.3107 331.25 77.1558 330.635 77.1558C330.137 77.1558 329.7 77.2886 329.324 77.5542C328.947 77.8198 328.654 78.1685 328.444 78.6001V85H326.908V76.0186H328.361ZM339.891 83.9126C340.438 83.9126 340.917 83.7466 341.327 83.4146C341.736 83.0825 341.963 82.6675 342.007 82.1694H343.46C343.432 82.6841 343.255 83.1738 342.929 83.6387C342.602 84.1035 342.165 84.4743 341.617 84.751C341.075 85.0277 340.499 85.166 339.891 85.166C338.668 85.166 337.694 84.7593 336.969 83.9458C336.249 83.1268 335.89 82.009 335.89 80.5923V80.335C335.89 79.4606 336.05 78.6831 336.371 78.0024C336.692 77.3218 337.151 76.7933 337.749 76.417C338.352 76.0407 339.063 75.8525 339.882 75.8525C340.889 75.8525 341.725 76.1541 342.389 76.7573C343.059 77.3605 343.416 78.1436 343.46 79.1064H342.007C341.963 78.5254 341.742 78.0495 341.343 77.6787C340.95 77.3024 340.463 77.1143 339.882 77.1143C339.102 77.1143 338.496 77.3965 338.064 77.9609C337.638 78.5199 337.425 79.3306 337.425 80.3931V80.6836C337.425 81.7184 337.638 82.5153 338.064 83.0742C338.491 83.6331 339.099 83.9126 339.891 83.9126ZM346.722 77.106C347.403 76.2703 348.288 75.8525 349.378 75.8525C351.277 75.8525 352.234 76.9233 352.25 79.0649V85H350.715V79.0566C350.709 78.4092 350.56 77.9305 350.267 77.6206C349.979 77.3107 349.528 77.1558 348.914 77.1558C348.416 77.1558 347.978 77.2886 347.602 77.5542C347.226 77.8198 346.932 78.1685 346.722 78.6001V85H345.187V72.25H346.722V77.106ZM358.708 80.0942C358.708 78.8436 358.875 77.6427 359.207 76.4917C359.544 75.3407 360.045 74.2948 360.709 73.354C361.373 72.4132 362.062 71.7492 362.776 71.3618L363.091 72.3745C362.283 72.9943 361.619 73.9406 361.099 75.2134C360.584 76.4862 360.302 77.9111 360.252 79.4883L360.244 80.1938C360.244 82.3299 360.634 84.1838 361.415 85.7554C361.885 86.6961 362.444 87.4321 363.091 87.9634L362.776 88.9014C362.04 88.4919 361.337 87.8057 360.667 86.8428C359.361 84.9613 358.708 82.7118 358.708 80.0942ZM373.168 74.2256H369.284V85H367.698V74.2256H363.822V72.9141H373.168V74.2256ZM377.618 85.166C376.4 85.166 375.41 84.7676 374.646 83.9707C373.882 83.1683 373.5 82.0975 373.5 80.7583V80.4761C373.5 79.5851 373.669 78.791 374.007 78.0938C374.35 77.391 374.826 76.8431 375.435 76.4502C376.049 76.0518 376.713 75.8525 377.427 75.8525C378.594 75.8525 379.502 76.2371 380.149 77.0063C380.797 77.7756 381.121 78.8768 381.121 80.3101V80.9492H375.036C375.058 81.8346 375.316 82.5513 375.808 83.0991C376.306 83.6414 376.937 83.9126 377.701 83.9126C378.243 83.9126 378.702 83.8019 379.079 83.5806C379.455 83.3592 379.784 83.0659 380.066 82.7007L381.004 83.4312C380.252 84.5877 379.123 85.166 377.618 85.166ZM377.427 77.1143C376.807 77.1143 376.287 77.3411 375.866 77.7949C375.446 78.2432 375.186 78.874 375.086 79.6875H379.585V79.5713C379.541 78.791 379.33 78.1878 378.954 77.7617C378.578 77.3301 378.069 77.1143 377.427 77.1143ZM388.135 82.6177C388.135 82.2026 387.977 81.8817 387.662 81.6548C387.352 81.4224 386.807 81.2231 386.026 81.0571C385.252 80.8911 384.635 80.6919 384.175 80.4595C383.722 80.2271 383.384 79.9504 383.163 79.6294C382.947 79.3084 382.839 78.9266 382.839 78.4839C382.839 77.7479 383.149 77.1253 383.769 76.6162C384.394 76.1071 385.191 75.8525 386.159 75.8525C387.177 75.8525 388.002 76.1154 388.633 76.6411C389.269 77.1668 389.587 77.8392 389.587 78.6582H388.043C388.043 78.2376 387.864 77.8752 387.504 77.5708C387.15 77.2664 386.701 77.1143 386.159 77.1143C385.6 77.1143 385.163 77.236 384.848 77.4795C384.532 77.723 384.375 78.0412 384.375 78.4341C384.375 78.8049 384.521 79.0843 384.814 79.2725C385.108 79.4606 385.636 79.6405 386.4 79.812C387.169 79.9836 387.792 80.1883 388.268 80.4263C388.743 80.6642 389.095 80.952 389.322 81.2896C389.554 81.6216 389.67 82.0283 389.67 82.5098C389.67 83.3122 389.349 83.9569 388.708 84.4438C388.066 84.9253 387.233 85.166 386.209 85.166C385.49 85.166 384.853 85.0387 384.3 84.7842C383.746 84.5296 383.312 84.1755 382.997 83.7217C382.687 83.2624 382.532 82.7671 382.532 82.2358H384.067C384.095 82.7505 384.3 83.16 384.682 83.4644C385.069 83.7632 385.578 83.9126 386.209 83.9126C386.79 83.9126 387.255 83.7964 387.604 83.564C387.958 83.326 388.135 83.0106 388.135 82.6177ZM393.754 73.8438V76.0186H395.431V77.2056H393.754V82.7754C393.754 83.1351 393.829 83.4062 393.979 83.5889C394.128 83.766 394.382 83.8545 394.742 83.8545C394.919 83.8545 395.163 83.8213 395.473 83.7549V85C395.069 85.1107 394.676 85.166 394.294 85.166C393.608 85.166 393.09 84.9585 392.742 84.5435C392.393 84.1284 392.219 83.5391 392.219 82.7754V77.2056H390.583V76.0186H392.219V73.8438H393.754ZM398.685 76.0186L398.735 77.1475C399.421 76.2842 400.318 75.8525 401.424 75.8525C403.322 75.8525 404.28 76.9233 404.296 79.0649V85H402.761V79.0566C402.755 78.4092 402.606 77.9305 402.312 77.6206C402.025 77.3107 401.574 77.1558 400.959 77.1558C400.461 77.1558 400.024 77.2886 399.648 77.5542C399.272 77.8198 398.978 78.1685 398.768 78.6001V85H397.232V76.0186H398.685ZM410.339 85.166C409.122 85.166 408.131 84.7676 407.368 83.9707C406.604 83.1683 406.222 82.0975 406.222 80.7583V80.4761C406.222 79.5851 406.391 78.791 406.729 78.0938C407.072 77.391 407.548 76.8431 408.156 76.4502C408.771 76.0518 409.435 75.8525 410.148 75.8525C411.316 75.8525 412.224 76.2371 412.871 77.0063C413.519 77.7756 413.842 78.8768 413.842 80.3101V80.9492H407.758C407.78 81.8346 408.037 82.5513 408.53 83.0991C409.028 83.6414 409.659 83.9126 410.422 83.9126C410.965 83.9126 411.424 83.8019 411.8 83.5806C412.177 83.3592 412.506 83.0659 412.788 82.7007L413.726 83.4312C412.973 84.5877 411.845 85.166 410.339 85.166ZM410.148 77.1143C409.529 77.1143 409.008 77.3411 408.588 77.7949C408.167 78.2432 407.907 78.874 407.808 79.6875H412.307V79.5713C412.262 78.791 412.052 78.1878 411.676 77.7617C411.299 77.3301 410.79 77.1143 410.148 77.1143ZM417.71 73.8438V76.0186H419.387V77.2056H417.71V82.7754C417.71 83.1351 417.785 83.4062 417.935 83.5889C418.084 83.766 418.339 83.8545 418.698 83.8545C418.875 83.8545 419.119 83.8213 419.429 83.7549V85C419.025 85.1107 418.632 85.166 418.25 85.166C417.564 85.166 417.046 84.9585 416.698 84.5435C416.349 84.1284 416.175 83.5391 416.175 82.7754V77.2056H414.54V76.0186H416.175V73.8438H417.71ZM424.733 80.1772C424.733 81.4113 424.57 82.5955 424.243 83.73C423.922 84.8589 423.427 85.902 422.757 86.8594C422.093 87.8167 421.396 88.4974 420.666 88.9014L420.342 87.9634C421.194 87.3104 421.877 86.2977 422.392 84.9253C422.912 83.5474 423.178 82.02 423.189 80.3433V80.0776C423.189 78.9155 423.067 77.8364 422.824 76.8403C422.58 75.8387 422.24 74.9422 421.803 74.1509C421.371 73.3595 420.884 72.7425 420.342 72.2998L420.666 71.3618C421.396 71.7658 422.09 72.4409 422.749 73.3872C423.413 74.3335 423.908 75.3766 424.235 76.5166C424.567 77.6566 424.733 78.8768 424.733 80.1772ZM163.358 100.493H159.307V99.2393H163.358V100.493ZM170.912 100.269V105H169.318V92.9141H173.775C175.098 92.9141 176.133 93.2516 176.88 93.9268C177.632 94.6019 178.009 95.4956 178.009 96.6079C178.009 97.7811 177.641 98.6859 176.905 99.3223C176.174 99.9531 175.126 100.269 173.759 100.269H170.912ZM170.912 98.9653H173.775C174.628 98.9653 175.281 98.7661 175.734 98.3677C176.188 97.9637 176.415 97.3826 176.415 96.6245C176.415 95.9051 176.188 95.3296 175.734 94.8979C175.281 94.4663 174.658 94.2422 173.867 94.2256H170.912V98.9653ZM184.143 97.3965C183.911 97.3577 183.659 97.3384 183.388 97.3384C182.381 97.3384 181.697 97.7673 181.337 98.625V105H179.802V96.0186H181.296L181.321 97.0562C181.824 96.2537 182.538 95.8525 183.462 95.8525C183.761 95.8525 183.988 95.8913 184.143 95.9688V97.3965ZM187.231 105H185.695V96.0186H187.231V105ZM185.571 93.6362C185.571 93.3872 185.646 93.1769 185.795 93.0054C185.95 92.8338 186.177 92.748 186.476 92.748C186.774 92.748 187.001 92.8338 187.156 93.0054C187.311 93.1769 187.389 93.3872 187.389 93.6362C187.389 93.8853 187.311 94.0928 187.156 94.2588C187.001 94.4248 186.774 94.5078 186.476 94.5078C186.177 94.5078 185.95 94.4248 185.795 94.2588C185.646 94.0928 185.571 93.8853 185.571 93.6362ZM192.66 102.917L194.884 96.0186H196.453L193.232 105H192.062L188.808 96.0186H190.377L192.66 102.917ZM203.343 105C203.254 104.823 203.182 104.507 203.127 104.054C202.413 104.795 201.561 105.166 200.57 105.166C199.685 105.166 198.957 104.917 198.387 104.419C197.823 103.915 197.541 103.279 197.541 102.51C197.541 101.575 197.895 100.85 198.603 100.335C199.317 99.8148 200.319 99.5547 201.608 99.5547H203.102V98.8491C203.102 98.3123 202.942 97.8862 202.621 97.5708C202.3 97.2498 201.826 97.0894 201.201 97.0894C200.653 97.0894 200.194 97.2277 199.823 97.5044C199.452 97.7811 199.267 98.1159 199.267 98.5088H197.723C197.723 98.0605 197.881 97.6289 198.196 97.2139C198.517 96.7933 198.949 96.4613 199.491 96.2178C200.039 95.9743 200.639 95.8525 201.292 95.8525C202.327 95.8525 203.138 96.1126 203.725 96.6328C204.311 97.1475 204.616 97.8586 204.638 98.7661V102.9C204.638 103.724 204.743 104.38 204.953 104.867V105H203.343ZM200.794 103.83C201.276 103.83 201.732 103.705 202.164 103.456C202.596 103.207 202.908 102.883 203.102 102.485V100.642H201.898C200.017 100.642 199.076 101.193 199.076 102.294C199.076 102.775 199.237 103.152 199.558 103.423C199.879 103.694 200.291 103.83 200.794 103.83ZM209.128 93.8438V96.0186H210.805V97.2056H209.128V102.775C209.128 103.135 209.203 103.406 209.353 103.589C209.502 103.766 209.757 103.854 210.116 103.854C210.293 103.854 210.537 103.821 210.847 103.755V105C210.443 105.111 210.05 105.166 209.668 105.166C208.982 105.166 208.464 104.958 208.116 104.543C207.767 104.128 207.593 103.539 207.593 102.775V97.2056H205.958V96.0186H207.593V93.8438H209.128ZM216.333 105.166C215.116 105.166 214.125 104.768 213.362 103.971C212.598 103.168 212.216 102.097 212.216 100.758V100.476C212.216 99.5851 212.385 98.791 212.723 98.0938C213.066 97.391 213.542 96.8431 214.15 96.4502C214.765 96.0518 215.429 95.8525 216.143 95.8525C217.31 95.8525 218.218 96.2371 218.865 97.0063C219.513 97.7756 219.836 98.8768 219.836 100.31V100.949H213.752C213.774 101.835 214.031 102.551 214.524 103.099C215.022 103.641 215.653 103.913 216.417 103.913C216.959 103.913 217.418 103.802 217.794 103.581C218.171 103.359 218.5 103.066 218.782 102.701L219.72 103.431C218.968 104.588 217.839 105.166 216.333 105.166ZM216.143 97.1143C215.523 97.1143 215.003 97.3411 214.582 97.7949C214.161 98.2432 213.901 98.874 213.802 99.6875H218.301V99.5713C218.257 98.791 218.046 98.1878 217.67 97.7617C217.294 97.3301 216.785 97.1143 216.143 97.1143ZM234.097 94.2256H230.212V105H228.627V94.2256H224.75V92.9141H234.097V94.2256ZM234.413 100.426C234.413 99.5464 234.584 98.755 234.927 98.0522C235.276 97.3494 235.757 96.8071 236.372 96.4253C236.991 96.0435 237.697 95.8525 238.488 95.8525C239.711 95.8525 240.699 96.2759 241.452 97.1226C242.21 97.9692 242.589 99.0954 242.589 100.501V100.609C242.589 101.483 242.42 102.269 242.083 102.966C241.75 103.658 241.272 104.198 240.646 104.585C240.027 104.972 239.313 105.166 238.505 105.166C237.287 105.166 236.3 104.743 235.542 103.896C234.789 103.049 234.413 101.929 234.413 100.534V100.426ZM235.957 100.609C235.957 101.605 236.186 102.405 236.646 103.008C237.11 103.611 237.73 103.913 238.505 103.913C239.285 103.913 239.905 103.608 240.364 103C240.824 102.385 241.053 101.528 241.053 100.426C241.053 99.4412 240.818 98.6444 240.348 98.0356C239.883 97.4214 239.263 97.1143 238.488 97.1143C237.73 97.1143 237.119 97.4159 236.654 98.019C236.189 98.6222 235.957 99.4855 235.957 100.609ZM247.021 100.841L246.059 101.846V105H244.523V92.25H246.059V99.9614L246.88 98.9736L249.678 96.0186H251.545L248.051 99.7705L251.952 105H250.151L247.021 100.841ZM256.692 105.166C255.474 105.166 254.484 104.768 253.72 103.971C252.957 103.168 252.575 102.097 252.575 100.758V100.476C252.575 99.5851 252.743 98.791 253.081 98.0938C253.424 97.391 253.9 96.8431 254.509 96.4502C255.123 96.0518 255.787 95.8525 256.501 95.8525C257.669 95.8525 258.576 96.2371 259.224 97.0063C259.871 97.7756 260.195 98.8768 260.195 100.31V100.949H254.11C254.132 101.835 254.39 102.551 254.882 103.099C255.38 103.641 256.011 103.913 256.775 103.913C257.317 103.913 257.777 103.802 258.153 103.581C258.529 103.359 258.858 103.066 259.141 102.701L260.079 103.431C259.326 104.588 258.197 105.166 256.692 105.166ZM256.501 97.1143C255.881 97.1143 255.361 97.3411 254.94 97.7949C254.52 98.2432 254.26 98.874 254.16 99.6875H258.659V99.5713C258.615 98.791 258.405 98.1878 258.028 97.7617C257.652 97.3301 257.143 97.1143 256.501 97.1143ZM263.432 96.0186L263.482 97.1475C264.168 96.2842 265.065 95.8525 266.171 95.8525C268.069 95.8525 269.027 96.9233 269.043 99.0649V105H267.508V99.0566C267.502 98.4092 267.353 97.9305 267.06 97.6206C266.772 97.3107 266.321 97.1558 265.707 97.1558C265.208 97.1558 264.771 97.2886 264.395 97.5542C264.019 97.8198 263.725 98.1685 263.515 98.6001V105H261.979V96.0186H263.432ZM279.378 99.6128C278.011 99.2199 277.015 98.7384 276.39 98.1685C275.77 97.5929 275.46 96.8846 275.46 96.0435C275.46 95.0916 275.839 94.3058 276.597 93.686C277.361 93.0607 278.351 92.748 279.569 92.748C280.399 92.748 281.138 92.9085 281.785 93.2295C282.438 93.5505 282.942 93.9932 283.296 94.5576C283.656 95.1221 283.835 95.7391 283.835 96.4087H282.233C282.233 95.6782 282.001 95.1055 281.536 94.6904C281.071 94.2699 280.416 94.0596 279.569 94.0596C278.783 94.0596 278.169 94.2339 277.726 94.5825C277.289 94.9256 277.07 95.4043 277.07 96.0186C277.07 96.5111 277.278 96.9289 277.693 97.272C278.113 97.6095 278.825 97.9194 279.826 98.2017C280.833 98.4839 281.619 98.7965 282.184 99.1396C282.754 99.4772 283.174 99.8729 283.445 100.327C283.722 100.78 283.86 101.314 283.86 101.929C283.86 102.908 283.479 103.694 282.715 104.286C281.951 104.873 280.93 105.166 279.652 105.166C278.822 105.166 278.047 105.008 277.328 104.693C276.608 104.372 276.052 103.935 275.659 103.381C275.272 102.828 275.078 102.2 275.078 101.497H276.68C276.68 102.228 276.949 102.806 277.485 103.232C278.028 103.653 278.75 103.863 279.652 103.863C280.493 103.863 281.138 103.691 281.586 103.348C282.034 103.005 282.258 102.537 282.258 101.945C282.258 101.353 282.051 100.897 281.636 100.576C281.221 100.249 280.468 99.9282 279.378 99.6128ZM291.215 105C291.126 104.823 291.054 104.507 290.999 104.054C290.285 104.795 289.433 105.166 288.442 105.166C287.557 105.166 286.829 104.917 286.259 104.419C285.695 103.915 285.413 103.279 285.413 102.51C285.413 101.575 285.767 100.85 286.475 100.335C287.189 99.8148 288.191 99.5547 289.48 99.5547H290.974V98.8491C290.974 98.3123 290.814 97.8862 290.493 97.5708C290.172 97.2498 289.699 97.0894 289.073 97.0894C288.525 97.0894 288.066 97.2277 287.695 97.5044C287.325 97.7811 287.139 98.1159 287.139 98.5088H285.595C285.595 98.0605 285.753 97.6289 286.068 97.2139C286.389 96.7933 286.821 96.4613 287.363 96.2178C287.911 95.9743 288.512 95.8525 289.165 95.8525C290.199 95.8525 291.01 96.1126 291.597 96.6328C292.183 97.1475 292.488 97.8586 292.51 98.7661V102.9C292.51 103.724 292.615 104.38 292.825 104.867V105H291.215ZM288.667 103.83C289.148 103.83 289.604 103.705 290.036 103.456C290.468 103.207 290.78 102.883 290.974 102.485V100.642H289.771C287.889 100.642 286.948 101.193 286.948 102.294C286.948 102.775 287.109 103.152 287.43 103.423C287.751 103.694 288.163 103.83 288.667 103.83ZM296.585 105H295.05V92.25H296.585V105ZM302.778 105.166C301.56 105.166 300.57 104.768 299.806 103.971C299.042 103.168 298.661 102.097 298.661 100.758V100.476C298.661 99.5851 298.829 98.791 299.167 98.0938C299.51 97.391 299.986 96.8431 300.595 96.4502C301.209 96.0518 301.873 95.8525 302.587 95.8525C303.755 95.8525 304.662 96.2371 305.31 97.0063C305.957 97.7756 306.281 98.8768 306.281 100.31V100.949H300.196C300.218 101.835 300.476 102.551 300.968 103.099C301.466 103.641 302.097 103.913 302.861 103.913C303.403 103.913 303.862 103.802 304.239 103.581C304.615 103.359 304.944 103.066 305.227 102.701L306.165 103.431C305.412 104.588 304.283 105.166 302.778 105.166ZM302.587 97.1143C301.967 97.1143 301.447 97.3411 301.026 97.7949C300.606 98.2432 300.346 98.874 300.246 99.6875H304.745V99.5713C304.701 98.791 304.491 98.1878 304.114 97.7617C303.738 97.3301 303.229 97.1143 302.587 97.1143ZM313.295 102.618C313.295 102.203 313.137 101.882 312.822 101.655C312.512 101.422 311.967 101.223 311.187 101.057C310.412 100.891 309.795 100.692 309.335 100.459C308.882 100.227 308.544 99.9504 308.323 99.6294C308.107 99.3084 307.999 98.9266 307.999 98.4839C307.999 97.7479 308.309 97.1253 308.929 96.6162C309.554 96.1071 310.351 95.8525 311.319 95.8525C312.338 95.8525 313.162 96.1154 313.793 96.6411C314.429 97.1668 314.748 97.8392 314.748 98.6582H313.204C313.204 98.2376 313.024 97.8752 312.664 97.5708C312.31 97.2664 311.862 97.1143 311.319 97.1143C310.76 97.1143 310.323 97.236 310.008 97.4795C309.692 97.723 309.535 98.0412 309.535 98.4341C309.535 98.8049 309.681 99.0843 309.975 99.2725C310.268 99.4606 310.796 99.6405 311.56 99.812C312.329 99.9836 312.952 100.188 313.428 100.426C313.904 100.664 314.255 100.952 314.482 101.29C314.714 101.622 314.831 102.028 314.831 102.51C314.831 103.312 314.51 103.957 313.868 104.444C313.226 104.925 312.393 105.166 311.369 105.166C310.65 105.166 310.013 105.039 309.46 104.784C308.907 104.53 308.472 104.175 308.157 103.722C307.847 103.262 307.692 102.767 307.692 102.236H309.228C309.255 102.75 309.46 103.16 309.842 103.464C310.229 103.763 310.738 103.913 311.369 103.913C311.95 103.913 312.415 103.796 312.764 103.564C313.118 103.326 313.295 103.011 313.295 102.618ZM320.99 100.094C320.99 98.8436 321.156 97.6427 321.488 96.4917C321.825 95.3407 322.326 94.2948 322.99 93.354C323.654 92.4132 324.343 91.7492 325.057 91.3618L325.373 92.3745C324.565 92.9943 323.901 93.9406 323.38 95.2134C322.866 96.4862 322.583 97.9111 322.534 99.4883L322.525 100.194C322.525 102.33 322.916 104.184 323.696 105.755C324.166 106.696 324.725 107.432 325.373 107.963L325.057 108.901C324.321 108.492 323.618 107.806 322.949 106.843C321.643 104.961 320.99 102.712 320.99 100.094ZM330.66 99.6128C329.293 99.2199 328.297 98.7384 327.672 98.1685C327.052 97.5929 326.742 96.8846 326.742 96.0435C326.742 95.0916 327.121 94.3058 327.879 93.686C328.643 93.0607 329.634 92.748 330.851 92.748C331.681 92.748 332.42 92.9085 333.067 93.2295C333.72 93.5505 334.224 93.9932 334.578 94.5576C334.938 95.1221 335.118 95.7391 335.118 96.4087H333.516C333.516 95.6782 333.283 95.1055 332.818 94.6904C332.354 94.2699 331.698 94.0596 330.851 94.0596C330.065 94.0596 329.451 94.2339 329.008 94.5825C328.571 94.9256 328.353 95.4043 328.353 96.0186C328.353 96.5111 328.56 96.9289 328.975 97.272C329.396 97.6095 330.107 97.9194 331.108 98.2017C332.116 98.4839 332.901 98.7965 333.466 99.1396C334.036 99.4772 334.456 99.8729 334.728 100.327C335.004 100.78 335.143 101.314 335.143 101.929C335.143 102.908 334.761 103.694 333.997 104.286C333.233 104.873 332.212 105.166 330.934 105.166C330.104 105.166 329.329 105.008 328.61 104.693C327.89 104.372 327.334 103.935 326.941 103.381C326.554 102.828 326.36 102.2 326.36 101.497H327.962C327.962 102.228 328.231 102.806 328.768 103.232C329.31 103.653 330.032 103.863 330.934 103.863C331.775 103.863 332.42 103.691 332.868 103.348C333.316 103.005 333.541 102.537 333.541 101.945C333.541 101.353 333.333 100.897 332.918 100.576C332.503 100.249 331.75 99.9282 330.66 99.6128ZM342.497 105C342.409 104.823 342.337 104.507 342.281 104.054C341.567 104.795 340.715 105.166 339.725 105.166C338.839 105.166 338.111 104.917 337.542 104.419C336.977 103.915 336.695 103.279 336.695 102.51C336.695 101.575 337.049 100.85 337.757 100.335C338.471 99.8148 339.473 99.5547 340.762 99.5547H342.256V98.8491C342.256 98.3123 342.096 97.8862 341.775 97.5708C341.454 97.2498 340.981 97.0894 340.355 97.0894C339.808 97.0894 339.348 97.2277 338.978 97.5044C338.607 97.7811 338.421 98.1159 338.421 98.5088H336.877C336.877 98.0605 337.035 97.6289 337.351 97.2139C337.672 96.7933 338.103 96.4613 338.646 96.2178C339.193 95.9743 339.794 95.8525 340.447 95.8525C341.482 95.8525 342.292 96.1126 342.879 96.6328C343.465 97.1475 343.77 97.8586 343.792 98.7661V102.9C343.792 103.724 343.897 104.38 344.107 104.867V105H342.497ZM339.949 103.83C340.43 103.83 340.887 103.705 341.318 103.456C341.75 103.207 342.063 102.883 342.256 102.485V100.642H341.053C339.171 100.642 338.23 101.193 338.23 102.294C338.23 102.775 338.391 103.152 338.712 103.423C339.033 103.694 339.445 103.83 339.949 103.83ZM347.868 105H346.332V92.25H347.868V105ZM354.06 105.166C352.843 105.166 351.852 104.768 351.088 103.971C350.325 103.168 349.943 102.097 349.943 100.758V100.476C349.943 99.5851 350.112 98.791 350.449 98.0938C350.792 97.391 351.268 96.8431 351.877 96.4502C352.491 96.0518 353.155 95.8525 353.869 95.8525C355.037 95.8525 355.944 96.2371 356.592 97.0063C357.239 97.7756 357.563 98.8768 357.563 100.31V100.949H351.479C351.501 101.835 351.758 102.551 352.25 103.099C352.749 103.641 353.379 103.913 354.143 103.913C354.685 103.913 355.145 103.802 355.521 103.581C355.897 103.359 356.227 103.066 356.509 102.701L357.447 103.431C356.694 104.588 355.565 105.166 354.06 105.166ZM353.869 97.1143C353.249 97.1143 352.729 97.3411 352.309 97.7949C351.888 98.2432 351.628 98.874 351.528 99.6875H356.027V99.5713C355.983 98.791 355.773 98.1878 355.396 97.7617C355.02 97.3301 354.511 97.1143 353.869 97.1143ZM364.577 102.618C364.577 102.203 364.419 101.882 364.104 101.655C363.794 101.422 363.249 101.223 362.469 101.057C361.694 100.891 361.077 100.692 360.618 100.459C360.164 100.227 359.826 99.9504 359.605 99.6294C359.389 99.3084 359.281 98.9266 359.281 98.4839C359.281 97.7479 359.591 97.1253 360.211 96.6162C360.836 96.1071 361.633 95.8525 362.602 95.8525C363.62 95.8525 364.444 96.1154 365.075 96.6411C365.712 97.1668 366.03 97.8392 366.03 98.6582H364.486C364.486 98.2376 364.306 97.8752 363.946 97.5708C363.592 97.2664 363.144 97.1143 362.602 97.1143C362.043 97.1143 361.605 97.236 361.29 97.4795C360.975 97.723 360.817 98.0412 360.817 98.4341C360.817 98.8049 360.964 99.0843 361.257 99.2725C361.55 99.4606 362.079 99.6405 362.842 99.812C363.611 99.9836 364.234 100.188 364.71 100.426C365.186 100.664 365.537 100.952 365.764 101.29C365.997 101.622 366.113 102.028 366.113 102.51C366.113 103.312 365.792 103.957 365.15 104.444C364.508 104.925 363.675 105.166 362.651 105.166C361.932 105.166 361.296 105.039 360.742 104.784C360.189 104.53 359.754 104.175 359.439 103.722C359.129 103.262 358.974 102.767 358.974 102.236H360.51C360.537 102.75 360.742 103.16 361.124 103.464C361.511 103.763 362.021 103.913 362.651 103.913C363.232 103.913 363.697 103.796 364.046 103.564C364.4 103.326 364.577 103.011 364.577 102.618ZM371.658 100.177C371.658 101.411 371.494 102.596 371.168 103.73C370.847 104.859 370.352 105.902 369.682 106.859C369.018 107.817 368.321 108.497 367.59 108.901L367.267 107.963C368.119 107.31 368.802 106.298 369.317 104.925C369.837 103.547 370.103 102.02 370.114 100.343V100.078C370.114 98.9155 369.992 97.8364 369.749 96.8403C369.505 95.8387 369.165 94.9422 368.728 94.1509C368.296 93.3595 367.809 92.7425 367.267 92.2998L367.59 91.3618C368.321 91.7658 369.015 92.4409 369.674 93.3872C370.338 94.3335 370.833 95.3766 371.16 96.5166C371.492 97.6566 371.658 98.8768 371.658 100.177ZM163.358 120.493H159.307V119.239H163.358V120.493ZM172.879 119.613C171.512 119.22 170.516 118.738 169.891 118.168C169.271 117.593 168.961 116.885 168.961 116.043C168.961 115.092 169.34 114.306 170.098 113.686C170.862 113.061 171.852 112.748 173.07 112.748C173.9 112.748 174.639 112.909 175.286 113.229C175.939 113.55 176.443 113.993 176.797 114.558C177.157 115.122 177.336 115.739 177.336 116.409H175.734C175.734 115.678 175.502 115.105 175.037 114.69C174.572 114.27 173.917 114.06 173.07 114.06C172.284 114.06 171.67 114.234 171.227 114.583C170.79 114.926 170.571 115.404 170.571 116.019C170.571 116.511 170.779 116.929 171.194 117.272C171.614 117.61 172.326 117.919 173.327 118.202C174.334 118.484 175.12 118.797 175.685 119.14C176.255 119.477 176.675 119.873 176.946 120.327C177.223 120.78 177.361 121.314 177.361 121.929C177.361 122.908 176.979 123.694 176.216 124.286C175.452 124.873 174.431 125.166 173.153 125.166C172.323 125.166 171.548 125.008 170.829 124.693C170.109 124.372 169.553 123.935 169.16 123.381C168.773 122.828 168.579 122.2 168.579 121.497H170.181C170.181 122.228 170.45 122.806 170.986 123.232C171.529 123.653 172.251 123.863 173.153 123.863C173.994 123.863 174.639 123.691 175.087 123.348C175.535 123.005 175.759 122.537 175.759 121.945C175.759 121.353 175.552 120.897 175.137 120.576C174.722 120.249 173.969 119.928 172.879 119.613ZM178.764 120.426C178.764 119.546 178.936 118.755 179.279 118.052C179.627 117.349 180.109 116.807 180.723 116.425C181.343 116.043 182.049 115.853 182.84 115.853C184.063 115.853 185.051 116.276 185.803 117.123C186.561 117.969 186.94 119.095 186.94 120.501V120.609C186.94 121.483 186.772 122.269 186.434 122.966C186.102 123.658 185.623 124.198 184.998 124.585C184.378 124.972 183.664 125.166 182.856 125.166C181.639 125.166 180.651 124.743 179.893 123.896C179.14 123.049 178.764 121.929 178.764 120.534V120.426ZM180.308 120.609C180.308 121.605 180.538 122.405 180.997 123.008C181.462 123.611 182.082 123.913 182.856 123.913C183.637 123.913 184.257 123.608 184.716 123C185.175 122.385 185.405 121.528 185.405 120.426C185.405 119.441 185.17 118.644 184.699 118.036C184.234 117.421 183.615 117.114 182.84 117.114C182.082 117.114 181.47 117.416 181.005 118.019C180.541 118.622 180.308 119.486 180.308 120.609ZM192.469 123.913C193.017 123.913 193.495 123.747 193.905 123.415C194.314 123.083 194.541 122.667 194.585 122.169H196.038C196.01 122.684 195.833 123.174 195.507 123.639C195.18 124.104 194.743 124.474 194.195 124.751C193.653 125.028 193.077 125.166 192.469 125.166C191.246 125.166 190.272 124.759 189.547 123.946C188.827 123.127 188.468 122.009 188.468 120.592V120.335C188.468 119.461 188.628 118.683 188.949 118.002C189.27 117.322 189.729 116.793 190.327 116.417C190.93 116.041 191.641 115.853 192.46 115.853C193.468 115.853 194.303 116.154 194.967 116.757C195.637 117.361 195.994 118.144 196.038 119.106H194.585C194.541 118.525 194.32 118.049 193.921 117.679C193.528 117.302 193.042 117.114 192.46 117.114C191.68 117.114 191.074 117.396 190.643 117.961C190.216 118.52 190.003 119.331 190.003 120.393V120.684C190.003 121.718 190.216 122.515 190.643 123.074C191.069 123.633 191.677 123.913 192.469 123.913ZM199.433 125H197.897V116.019H199.433V125ZM197.773 113.636C197.773 113.387 197.848 113.177 197.997 113.005C198.152 112.834 198.379 112.748 198.678 112.748C198.977 112.748 199.203 112.834 199.358 113.005C199.513 113.177 199.591 113.387 199.591 113.636C199.591 113.885 199.513 114.093 199.358 114.259C199.203 114.425 198.977 114.508 198.678 114.508C198.379 114.508 198.152 114.425 197.997 114.259C197.848 114.093 197.773 113.885 197.773 113.636ZM207.443 125C207.355 124.823 207.283 124.507 207.228 124.054C206.514 124.795 205.661 125.166 204.671 125.166C203.785 125.166 203.058 124.917 202.488 124.419C201.923 123.915 201.641 123.279 201.641 122.51C201.641 121.575 201.995 120.85 202.704 120.335C203.417 119.815 204.419 119.555 205.708 119.555H207.203V118.849C207.203 118.312 207.042 117.886 206.721 117.571C206.4 117.25 205.927 117.089 205.302 117.089C204.754 117.089 204.295 117.228 203.924 117.504C203.553 117.781 203.368 118.116 203.368 118.509H201.824C201.824 118.061 201.981 117.629 202.297 117.214C202.618 116.793 203.049 116.461 203.592 116.218C204.14 115.974 204.74 115.853 205.393 115.853C206.428 115.853 207.239 116.113 207.825 116.633C208.412 117.147 208.716 117.859 208.738 118.766V122.9C208.738 123.724 208.843 124.38 209.054 124.867V125H207.443ZM204.895 123.83C205.376 123.83 205.833 123.705 206.265 123.456C206.696 123.207 207.009 122.883 207.203 122.485V120.642H205.999C204.118 120.642 203.177 121.193 203.177 122.294C203.177 122.775 203.337 123.152 203.658 123.423C203.979 123.694 204.391 123.83 204.895 123.83ZM212.814 125H211.278V112.25H212.814V125ZM221.795 112.914L225.747 122.775L229.698 112.914H231.765V125H230.171V120.293L230.32 115.213L226.353 125H225.132L221.173 115.238L221.331 120.293V125H219.737V112.914H221.795ZM238.065 125.166C236.847 125.166 235.857 124.768 235.093 123.971C234.33 123.168 233.948 122.097 233.948 120.758V120.476C233.948 119.585 234.117 118.791 234.454 118.094C234.797 117.391 235.273 116.843 235.882 116.45C236.496 116.052 237.16 115.853 237.874 115.853C239.042 115.853 239.949 116.237 240.597 117.006C241.244 117.776 241.568 118.877 241.568 120.31V120.949H235.483C235.506 121.835 235.763 122.551 236.255 123.099C236.753 123.641 237.384 123.913 238.148 123.913C238.69 123.913 239.15 123.802 239.526 123.581C239.902 123.359 240.231 123.066 240.514 122.701L241.452 123.431C240.699 124.588 239.57 125.166 238.065 125.166ZM237.874 117.114C237.254 117.114 236.734 117.341 236.313 117.795C235.893 118.243 235.633 118.874 235.533 119.688H240.032V119.571C239.988 118.791 239.778 118.188 239.401 117.762C239.025 117.33 238.516 117.114 237.874 117.114ZM242.979 120.435C242.979 119.057 243.306 117.95 243.958 117.114C244.611 116.273 245.466 115.853 246.523 115.853C247.575 115.853 248.408 116.212 249.022 116.932V112.25H250.558V125H249.146L249.072 124.037C248.458 124.79 247.603 125.166 246.507 125.166C245.466 125.166 244.617 124.74 243.958 123.888C243.306 123.035 242.979 121.923 242.979 120.551V120.435ZM244.515 120.609C244.515 121.627 244.725 122.424 245.146 123C245.566 123.575 246.147 123.863 246.889 123.863C247.863 123.863 248.574 123.426 249.022 122.551V118.426C248.563 117.579 247.857 117.156 246.905 117.156C246.153 117.156 245.566 117.446 245.146 118.027C244.725 118.608 244.515 119.469 244.515 120.609ZM254.617 125H253.081V116.019H254.617V125ZM252.957 113.636C252.957 113.387 253.031 113.177 253.181 113.005C253.336 112.834 253.562 112.748 253.861 112.748C254.16 112.748 254.387 112.834 254.542 113.005C254.697 113.177 254.774 113.387 254.774 113.636C254.774 113.885 254.697 114.093 254.542 114.259C254.387 114.425 254.16 114.508 253.861 114.508C253.562 114.508 253.336 114.425 253.181 114.259C253.031 114.093 252.957 113.885 252.957 113.636ZM262.627 125C262.538 124.823 262.466 124.507 262.411 124.054C261.697 124.795 260.845 125.166 259.854 125.166C258.969 125.166 258.241 124.917 257.671 124.419C257.107 123.915 256.825 123.279 256.825 122.51C256.825 121.575 257.179 120.85 257.887 120.335C258.601 119.815 259.603 119.555 260.892 119.555H262.386V118.849C262.386 118.312 262.226 117.886 261.905 117.571C261.584 117.25 261.111 117.089 260.485 117.089C259.938 117.089 259.478 117.228 259.107 117.504C258.737 117.781 258.551 118.116 258.551 118.509H257.007C257.007 118.061 257.165 117.629 257.48 117.214C257.801 116.793 258.233 116.461 258.775 116.218C259.323 115.974 259.924 115.853 260.577 115.853C261.611 115.853 262.422 116.113 263.009 116.633C263.595 117.147 263.9 117.859 263.922 118.766V122.9C263.922 123.724 264.027 124.38 264.237 124.867V125H262.627ZM260.079 123.83C260.56 123.83 261.017 123.705 261.448 123.456C261.88 123.207 262.193 122.883 262.386 122.485V120.642H261.183C259.301 120.642 258.36 121.193 258.36 122.294C258.36 122.775 258.521 123.152 258.842 123.423C259.163 123.694 259.575 123.83 260.079 123.83ZM272.38 120.269V125H270.787V112.914H275.244C276.567 112.914 277.602 113.252 278.349 113.927C279.101 114.602 279.478 115.496 279.478 116.608C279.478 117.781 279.11 118.686 278.374 119.322C277.643 119.953 276.594 120.269 275.228 120.269H272.38ZM272.38 118.965H275.244C276.096 118.965 276.749 118.766 277.203 118.368C277.657 117.964 277.884 117.383 277.884 116.625C277.884 115.905 277.657 115.33 277.203 114.898C276.749 114.466 276.127 114.242 275.335 114.226H272.38V118.965ZM285.612 117.396C285.379 117.358 285.128 117.338 284.856 117.338C283.849 117.338 283.166 117.767 282.806 118.625V125H281.271V116.019H282.765L282.79 117.056C283.293 116.254 284.007 115.853 284.931 115.853C285.23 115.853 285.457 115.891 285.612 115.969V117.396ZM290.592 125.166C289.375 125.166 288.384 124.768 287.621 123.971C286.857 123.168 286.475 122.097 286.475 120.758V120.476C286.475 119.585 286.644 118.791 286.981 118.094C287.325 117.391 287.8 116.843 288.409 116.45C289.023 116.052 289.688 115.853 290.401 115.853C291.569 115.853 292.477 116.237 293.124 117.006C293.771 117.776 294.095 118.877 294.095 120.31V120.949H288.011C288.033 121.835 288.29 122.551 288.783 123.099C289.281 123.641 289.912 123.913 290.675 123.913C291.218 123.913 291.677 123.802 292.053 123.581C292.43 123.359 292.759 123.066 293.041 122.701L293.979 123.431C293.226 124.588 292.097 125.166 290.592 125.166ZM290.401 117.114C289.782 117.114 289.261 117.341 288.841 117.795C288.42 118.243 288.16 118.874 288.061 119.688H292.56V119.571C292.515 118.791 292.305 118.188 291.929 117.762C291.552 117.33 291.043 117.114 290.401 117.114ZM301.109 122.618C301.109 122.203 300.952 121.882 300.636 121.655C300.326 121.422 299.781 121.223 299.001 121.057C298.226 120.891 297.609 120.692 297.15 120.459C296.696 120.227 296.359 119.95 296.137 119.629C295.921 119.308 295.813 118.927 295.813 118.484C295.813 117.748 296.123 117.125 296.743 116.616C297.368 116.107 298.165 115.853 299.134 115.853C300.152 115.853 300.977 116.115 301.607 116.641C302.244 117.167 302.562 117.839 302.562 118.658H301.018C301.018 118.238 300.838 117.875 300.479 117.571C300.124 117.266 299.676 117.114 299.134 117.114C298.575 117.114 298.138 117.236 297.822 117.479C297.507 117.723 297.349 118.041 297.349 118.434C297.349 118.805 297.496 119.084 297.789 119.272C298.082 119.461 298.611 119.64 299.375 119.812C300.144 119.984 300.766 120.188 301.242 120.426C301.718 120.664 302.069 120.952 302.296 121.29C302.529 121.622 302.645 122.028 302.645 122.51C302.645 123.312 302.324 123.957 301.682 124.444C301.04 124.925 300.207 125.166 299.184 125.166C298.464 125.166 297.828 125.039 297.274 124.784C296.721 124.53 296.287 124.175 295.971 123.722C295.661 123.262 295.506 122.767 295.506 122.236H297.042C297.07 122.75 297.274 123.16 297.656 123.464C298.044 123.763 298.553 123.913 299.184 123.913C299.765 123.913 300.229 123.796 300.578 123.564C300.932 123.326 301.109 123.011 301.109 122.618ZM308.373 125.166C307.155 125.166 306.165 124.768 305.401 123.971C304.637 123.168 304.255 122.097 304.255 120.758V120.476C304.255 119.585 304.424 118.791 304.762 118.094C305.105 117.391 305.581 116.843 306.189 116.45C306.804 116.052 307.468 115.853 308.182 115.853C309.349 115.853 310.257 116.237 310.904 117.006C311.552 117.776 311.875 118.877 311.875 120.31V120.949H305.791C305.813 121.835 306.07 122.551 306.563 123.099C307.061 123.641 307.692 123.913 308.456 123.913C308.998 123.913 309.457 123.802 309.833 123.581C310.21 123.359 310.539 123.066 310.821 122.701L311.759 123.431C311.007 124.588 309.878 125.166 308.373 125.166ZM308.182 117.114C307.562 117.114 307.042 117.341 306.621 117.795C306.201 118.243 305.94 118.874 305.841 119.688H310.34V119.571C310.296 118.791 310.085 118.188 309.709 117.762C309.333 117.33 308.824 117.114 308.182 117.114ZM315.113 116.019L315.163 117.147C315.849 116.284 316.745 115.853 317.852 115.853C319.75 115.853 320.708 116.923 320.724 119.065V125H319.188V119.057C319.183 118.409 319.034 117.931 318.74 117.621C318.452 117.311 318.001 117.156 317.387 117.156C316.889 117.156 316.452 117.289 316.076 117.554C315.699 117.82 315.406 118.168 315.196 118.6V125H313.66V116.019H315.113ZM326.643 123.913C327.19 123.913 327.669 123.747 328.079 123.415C328.488 123.083 328.715 122.667 328.759 122.169H330.212C330.184 122.684 330.007 123.174 329.681 123.639C329.354 124.104 328.917 124.474 328.369 124.751C327.827 125.028 327.251 125.166 326.643 125.166C325.42 125.166 324.446 124.759 323.721 123.946C323.001 123.127 322.642 122.009 322.642 120.592V120.335C322.642 119.461 322.802 118.683 323.123 118.002C323.444 117.322 323.903 116.793 324.501 116.417C325.104 116.041 325.815 115.853 326.634 115.853C327.641 115.853 328.477 116.154 329.141 116.757C329.811 117.361 330.168 118.144 330.212 119.106H328.759C328.715 118.525 328.494 118.049 328.095 117.679C327.702 117.302 327.215 117.114 326.634 117.114C325.854 117.114 325.248 117.396 324.816 117.961C324.39 118.52 324.177 119.331 324.177 120.393V120.684C324.177 121.718 324.39 122.515 324.816 123.074C325.243 123.633 325.851 123.913 326.643 123.913ZM335.666 125.166C334.448 125.166 333.458 124.768 332.694 123.971C331.93 123.168 331.548 122.097 331.548 120.758V120.476C331.548 119.585 331.717 118.791 332.055 118.094C332.398 117.391 332.874 116.843 333.482 116.45C334.097 116.052 334.761 115.853 335.475 115.853C336.642 115.853 337.55 116.237 338.197 117.006C338.845 117.776 339.168 118.877 339.168 120.31V120.949H333.084C333.106 121.835 333.363 122.551 333.856 123.099C334.354 123.641 334.985 123.913 335.749 123.913C336.291 123.913 336.75 123.802 337.126 123.581C337.503 123.359 337.832 123.066 338.114 122.701L339.052 123.431C338.3 124.588 337.171 125.166 335.666 125.166ZM335.475 117.114C334.855 117.114 334.335 117.341 333.914 117.795C333.493 118.243 333.233 118.874 333.134 119.688H337.633V119.571C337.589 118.791 337.378 118.188 337.002 117.762C336.626 117.33 336.117 117.114 335.475 117.114ZM344.846 121.754C344.846 121.173 345.007 120.639 345.328 120.152C345.654 119.665 346.274 119.098 347.187 118.451C346.65 117.798 346.291 117.272 346.108 116.874C345.925 116.475 345.834 116.079 345.834 115.687C345.834 114.768 346.105 114.049 346.647 113.528C347.19 113.008 347.926 112.748 348.855 112.748C349.686 112.748 350.372 112.992 350.914 113.479C351.456 113.96 351.728 114.569 351.728 115.305C351.728 115.792 351.603 116.243 351.354 116.658C351.111 117.067 350.682 117.499 350.067 117.953L349.179 118.608L351.869 121.821C352.245 121.101 352.433 120.302 352.433 119.422H353.819C353.819 120.833 353.479 122.003 352.798 122.933L354.525 125H352.682L351.877 124.045C351.467 124.411 350.986 124.69 350.433 124.884C349.885 125.072 349.326 125.166 348.756 125.166C347.577 125.166 346.631 124.853 345.917 124.228C345.203 123.603 344.846 122.778 344.846 121.754ZM348.756 123.913C349.569 123.913 350.314 123.603 350.989 122.983L348.042 119.455L347.768 119.654C346.844 120.335 346.382 121.035 346.382 121.754C346.382 122.407 346.592 122.93 347.013 123.323C347.439 123.716 348.02 123.913 348.756 123.913ZM347.37 115.637C347.37 116.168 347.696 116.832 348.349 117.629L349.329 116.94C349.705 116.674 349.962 116.423 350.101 116.185C350.239 115.941 350.308 115.648 350.308 115.305C350.308 114.934 350.17 114.627 349.893 114.383C349.616 114.134 349.268 114.01 348.847 114.01C348.393 114.01 348.034 114.165 347.768 114.475C347.502 114.779 347.37 115.166 347.37 115.637ZM363.764 119.613C362.397 119.22 361.401 118.738 360.775 118.168C360.156 117.593 359.846 116.885 359.846 116.043C359.846 115.092 360.225 114.306 360.983 113.686C361.747 113.061 362.737 112.748 363.955 112.748C364.785 112.748 365.523 112.909 366.171 113.229C366.824 113.55 367.327 113.993 367.682 114.558C368.041 115.122 368.221 115.739 368.221 116.409H366.619C366.619 115.678 366.387 115.105 365.922 114.69C365.457 114.27 364.801 114.06 363.955 114.06C363.169 114.06 362.555 114.234 362.112 114.583C361.675 114.926 361.456 115.404 361.456 116.019C361.456 116.511 361.664 116.929 362.079 117.272C362.499 117.61 363.21 117.919 364.212 118.202C365.219 118.484 366.005 118.797 366.569 119.14C367.139 119.477 367.56 119.873 367.831 120.327C368.108 120.78 368.246 121.314 368.246 121.929C368.246 122.908 367.864 123.694 367.101 124.286C366.337 124.873 365.316 125.166 364.038 125.166C363.208 125.166 362.433 125.008 361.713 124.693C360.994 124.372 360.438 123.935 360.045 123.381C359.658 122.828 359.464 122.2 359.464 121.497H361.066C361.066 122.228 361.334 122.806 361.871 123.232C362.413 123.653 363.136 123.863 364.038 123.863C364.879 123.863 365.523 123.691 365.972 123.348C366.42 123.005 366.644 122.537 366.644 121.945C366.644 121.353 366.437 120.897 366.021 120.576C365.606 120.249 364.854 119.928 363.764 119.613ZM372.139 113.844V116.019H373.816V117.206H372.139V122.775C372.139 123.135 372.214 123.406 372.363 123.589C372.513 123.766 372.767 123.854 373.127 123.854C373.304 123.854 373.548 123.821 373.857 123.755V125C373.453 125.111 373.061 125.166 372.679 125.166C371.993 125.166 371.475 124.958 371.126 124.543C370.778 124.128 370.604 123.539 370.604 122.775V117.206H368.968V116.019H370.604V113.844H372.139ZM379.958 117.396C379.726 117.358 379.474 117.338 379.203 117.338C378.196 117.338 377.513 117.767 377.153 118.625V125H375.617V116.019H377.111L377.136 117.056C377.64 116.254 378.354 115.853 379.278 115.853C379.577 115.853 379.804 115.891 379.958 115.969V117.396ZM380.805 120.426C380.805 119.546 380.977 118.755 381.32 118.052C381.668 117.349 382.15 116.807 382.764 116.425C383.384 116.043 384.09 115.853 384.881 115.853C386.104 115.853 387.092 116.276 387.844 117.123C388.602 117.969 388.981 119.095 388.981 120.501V120.609C388.981 121.483 388.813 122.269 388.475 122.966C388.143 123.658 387.664 124.198 387.039 124.585C386.419 124.972 385.705 125.166 384.897 125.166C383.68 125.166 382.692 124.743 381.934 123.896C381.181 123.049 380.805 121.929 380.805 120.534V120.426ZM382.349 120.609C382.349 121.605 382.579 122.405 383.038 123.008C383.503 123.611 384.123 123.913 384.897 123.913C385.678 123.913 386.298 123.608 386.757 123C387.216 122.385 387.446 121.528 387.446 120.426C387.446 119.441 387.211 118.644 386.74 118.036C386.275 117.421 385.656 117.114 384.881 117.114C384.123 117.114 383.511 117.416 383.046 118.019C382.582 118.622 382.349 119.486 382.349 120.609ZM392.36 116.019L392.41 117.147C393.096 116.284 393.992 115.853 395.099 115.853C396.997 115.853 397.955 116.923 397.971 119.065V125H396.436V119.057C396.43 118.409 396.281 117.931 395.987 117.621C395.7 117.311 395.249 117.156 394.634 117.156C394.136 117.156 393.699 117.289 393.323 117.554C392.946 117.82 392.653 118.168 392.443 118.6V125H390.907V116.019H392.36ZM399.922 120.435C399.922 119.035 400.246 117.922 400.893 117.098C401.541 116.268 402.398 115.853 403.466 115.853C404.562 115.853 405.417 116.24 406.031 117.015L406.106 116.019H407.509V124.784C407.509 125.946 407.163 126.862 406.471 127.532C405.785 128.201 404.861 128.536 403.699 128.536C403.051 128.536 402.418 128.398 401.798 128.121C401.178 127.844 400.705 127.465 400.378 126.984L401.175 126.062C401.834 126.876 402.639 127.283 403.591 127.283C404.338 127.283 404.919 127.072 405.334 126.652C405.755 126.231 405.965 125.639 405.965 124.875V124.104C405.351 124.812 404.512 125.166 403.45 125.166C402.398 125.166 401.546 124.743 400.893 123.896C400.246 123.049 399.922 121.896 399.922 120.435ZM401.466 120.609C401.466 121.622 401.673 122.418 402.088 123C402.503 123.575 403.084 123.863 403.832 123.863C404.8 123.863 405.511 123.423 405.965 122.543V118.442C405.494 117.585 404.789 117.156 403.848 117.156C403.101 117.156 402.517 117.446 402.097 118.027C401.676 118.608 401.466 119.469 401.466 120.609ZM423.181 121.165C423.031 122.443 422.558 123.431 421.761 124.128C420.97 124.82 419.916 125.166 418.599 125.166C417.171 125.166 416.025 124.654 415.162 123.63C414.304 122.607 413.875 121.237 413.875 119.521V118.359C413.875 117.236 414.075 116.248 414.473 115.396C414.877 114.544 415.447 113.891 416.183 113.437C416.919 112.978 417.771 112.748 418.74 112.748C420.024 112.748 421.053 113.108 421.828 113.827C422.602 114.541 423.053 115.532 423.181 116.799H421.579C421.44 115.836 421.139 115.139 420.674 114.707C420.215 114.275 419.57 114.06 418.74 114.06C417.722 114.06 416.922 114.436 416.341 115.188C415.765 115.941 415.478 117.012 415.478 118.401V119.571C415.478 120.883 415.751 121.926 416.299 122.701C416.847 123.475 417.614 123.863 418.599 123.863C419.484 123.863 420.162 123.664 420.632 123.265C421.108 122.861 421.424 122.161 421.579 121.165H423.181ZM424.716 120.426C424.716 119.546 424.888 118.755 425.231 118.052C425.58 117.349 426.061 116.807 426.675 116.425C427.295 116.043 428.001 115.853 428.792 115.853C430.015 115.853 431.003 116.276 431.755 117.123C432.514 117.969 432.893 119.095 432.893 120.501V120.609C432.893 121.483 432.724 122.269 432.386 122.966C432.054 123.658 431.576 124.198 430.95 124.585C430.33 124.972 429.617 125.166 428.809 125.166C427.591 125.166 426.603 124.743 425.845 123.896C425.093 123.049 424.716 121.929 424.716 120.534V120.426ZM426.26 120.609C426.26 121.605 426.49 122.405 426.949 123.008C427.414 123.611 428.034 123.913 428.809 123.913C429.589 123.913 430.209 123.608 430.668 123C431.127 122.385 431.357 121.528 431.357 120.426C431.357 119.441 431.122 118.644 430.651 118.036C430.187 117.421 429.567 117.114 428.792 117.114C428.034 117.114 427.422 117.416 426.958 118.019C426.493 118.622 426.26 119.486 426.26 120.609ZM436.263 116.019L436.304 117.015C436.963 116.24 437.851 115.853 438.969 115.853C440.225 115.853 441.08 116.334 441.534 117.297C441.833 116.865 442.22 116.517 442.696 116.251C443.177 115.985 443.744 115.853 444.397 115.853C446.368 115.853 447.369 116.896 447.402 118.982V125H445.867V119.073C445.867 118.431 445.72 117.953 445.427 117.637C445.133 117.316 444.641 117.156 443.949 117.156C443.379 117.156 442.906 117.327 442.53 117.67C442.153 118.008 441.935 118.465 441.874 119.04V125H440.33V119.115C440.33 117.809 439.691 117.156 438.413 117.156C437.405 117.156 436.716 117.585 436.346 118.442V125H434.81V116.019H436.263ZM451.171 116.019L451.212 117.015C451.871 116.24 452.759 115.853 453.877 115.853C455.133 115.853 455.988 116.334 456.442 117.297C456.741 116.865 457.128 116.517 457.604 116.251C458.085 115.985 458.653 115.853 459.306 115.853C461.276 115.853 462.277 116.896 462.311 118.982V125H460.775V119.073C460.775 118.431 460.628 117.953 460.335 117.637C460.042 117.316 459.549 117.156 458.857 117.156C458.287 117.156 457.814 117.327 457.438 117.67C457.062 118.008 456.843 118.465 456.782 119.04V125H455.238V119.115C455.238 117.809 454.599 117.156 453.321 117.156C452.314 117.156 451.625 117.585 451.254 118.442V125H449.718V116.019H451.171ZM470.18 124.112C469.582 124.815 468.705 125.166 467.548 125.166C466.591 125.166 465.861 124.889 465.357 124.336C464.859 123.777 464.607 122.952 464.602 121.862V116.019H466.137V121.821C466.137 123.182 466.691 123.863 467.797 123.863C468.971 123.863 469.751 123.426 470.138 122.551V116.019H471.674V125H470.213L470.18 124.112ZM475.467 116.019L475.517 117.147C476.203 116.284 477.1 115.853 478.207 115.853C480.105 115.853 481.062 116.923 481.079 119.065V125H479.543V119.057C479.537 118.409 479.388 117.931 479.095 117.621C478.807 117.311 478.356 117.156 477.742 117.156C477.244 117.156 476.806 117.289 476.43 117.554C476.054 117.82 475.761 118.168 475.55 118.6V125H474.015V116.019H475.467ZM485.063 125H483.527V116.019H485.063V125ZM483.403 113.636C483.403 113.387 483.478 113.177 483.627 113.005C483.782 112.834 484.009 112.748 484.308 112.748C484.606 112.748 484.833 112.834 484.988 113.005C485.143 113.177 485.221 113.387 485.221 113.636C485.221 113.885 485.143 114.093 484.988 114.259C484.833 114.425 484.606 114.508 484.308 114.508C484.009 114.508 483.782 114.425 483.627 114.259C483.478 114.093 483.403 113.885 483.403 113.636ZM489.612 113.844V116.019H491.289V117.206H489.612V122.775C489.612 123.135 489.687 123.406 489.836 123.589C489.985 123.766 490.24 123.854 490.6 123.854C490.777 123.854 491.02 123.821 491.33 123.755V125C490.926 125.111 490.533 125.166 490.151 125.166C489.465 125.166 488.948 124.958 488.599 124.543C488.25 124.128 488.076 123.539 488.076 122.775V117.206H486.441V116.019H488.076V113.844H489.612ZM496.028 122.75L498.12 116.019H499.764L496.153 126.386C495.594 127.88 494.706 128.627 493.488 128.627L493.198 128.603L492.625 128.495V127.25L493.04 127.283C493.56 127.283 493.964 127.178 494.252 126.967C494.545 126.757 494.786 126.372 494.974 125.813L495.314 124.9L492.11 116.019H493.787L496.028 122.75ZM160.403 145V132.914H164.354C165.666 132.914 166.651 133.185 167.309 133.728C167.973 134.27 168.305 135.072 168.305 136.135C168.305 136.699 168.145 137.2 167.824 137.637C167.503 138.069 167.066 138.404 166.512 138.642C167.165 138.824 167.68 139.173 168.056 139.688C168.438 140.197 168.629 140.805 168.629 141.514C168.629 142.598 168.278 143.451 167.575 144.07C166.872 144.69 165.879 145 164.595 145H160.403ZM161.997 139.347V143.697H164.628C165.369 143.697 165.953 143.506 166.379 143.124C166.811 142.737 167.027 142.205 167.027 141.53C167.027 140.075 166.236 139.347 164.653 139.347H161.997ZM161.997 138.069H164.404C165.101 138.069 165.657 137.895 166.072 137.546C166.493 137.197 166.703 136.724 166.703 136.126C166.703 135.462 166.509 134.981 166.122 134.682C165.735 134.378 165.145 134.226 164.354 134.226H161.997V138.069ZM176.299 144.112C175.701 144.815 174.824 145.166 173.667 145.166C172.71 145.166 171.98 144.889 171.476 144.336C170.978 143.777 170.726 142.952 170.721 141.862V136.019H172.256V141.821C172.256 143.182 172.81 143.863 173.917 143.863C175.09 143.863 175.87 143.426 176.257 142.551V136.019H177.793V145H176.332L176.299 144.112ZM181.802 145H180.267V136.019H181.802V145ZM180.142 133.636C180.142 133.387 180.217 133.177 180.366 133.005C180.521 132.834 180.748 132.748 181.047 132.748C181.346 132.748 181.573 132.834 181.728 133.005C181.882 133.177 181.96 133.387 181.96 133.636C181.96 133.885 181.882 134.093 181.728 134.259C181.573 134.425 181.346 134.508 181.047 134.508C180.748 134.508 180.521 134.425 180.366 134.259C180.217 134.093 180.142 133.885 180.142 133.636ZM185.936 145H184.4V132.25H185.936V145ZM188.028 140.435C188.028 139.057 188.354 137.95 189.007 137.114C189.66 136.273 190.515 135.853 191.572 135.853C192.624 135.853 193.457 136.212 194.071 136.932V132.25H195.606V145H194.195L194.121 144.037C193.506 144.79 192.651 145.166 191.556 145.166C190.515 145.166 189.666 144.74 189.007 143.888C188.354 143.035 188.028 141.923 188.028 140.551V140.435ZM189.563 140.609C189.563 141.627 189.774 142.424 190.194 143C190.615 143.575 191.196 143.863 191.938 143.863C192.911 143.863 193.623 143.426 194.071 142.551V138.426C193.611 137.579 192.906 137.156 191.954 137.156C191.201 137.156 190.615 137.446 190.194 138.027C189.774 138.608 189.563 139.469 189.563 140.609ZM199.666 145H198.13V136.019H199.666V145ZM198.005 133.636C198.005 133.387 198.08 133.177 198.229 133.005C198.384 132.834 198.611 132.748 198.91 132.748C199.209 132.748 199.436 132.834 199.591 133.005C199.746 133.177 199.823 133.387 199.823 133.636C199.823 133.885 199.746 134.093 199.591 134.259C199.436 134.425 199.209 134.508 198.91 134.508C198.611 134.508 198.384 134.425 198.229 134.259C198.08 134.093 198.005 133.885 198.005 133.636ZM203.583 136.019L203.633 137.147C204.319 136.284 205.216 135.853 206.323 135.853C208.221 135.853 209.178 136.923 209.195 139.065V145H207.659V139.057C207.654 138.409 207.504 137.931 207.211 137.621C206.923 137.311 206.472 137.156 205.858 137.156C205.36 137.156 204.923 137.289 204.546 137.554C204.17 137.82 203.877 138.168 203.667 138.6V145H202.131V136.019H203.583ZM211.146 140.435C211.146 139.035 211.469 137.922 212.117 137.098C212.764 136.268 213.622 135.853 214.69 135.853C215.786 135.853 216.641 136.24 217.255 137.015L217.33 136.019H218.732V144.784C218.732 145.946 218.387 146.862 217.695 147.532C217.009 148.201 216.084 148.536 214.922 148.536C214.275 148.536 213.641 148.398 213.021 148.121C212.402 147.844 211.929 147.465 211.602 146.984L212.399 146.062C213.057 146.876 213.863 147.283 214.814 147.283C215.562 147.283 216.143 147.072 216.558 146.652C216.978 146.231 217.188 145.639 217.188 144.875V144.104C216.574 144.812 215.736 145.166 214.673 145.166C213.622 145.166 212.77 144.743 212.117 143.896C211.469 143.049 211.146 141.896 211.146 140.435ZM212.689 140.609C212.689 141.622 212.897 142.418 213.312 143C213.727 143.575 214.308 143.863 215.055 143.863C216.024 143.863 216.735 143.423 217.188 142.543V138.442C216.718 137.585 216.013 137.156 215.072 137.156C214.325 137.156 213.741 137.446 213.32 138.027C212.9 138.608 212.689 139.469 212.689 140.609ZM163.358 160.493H159.307V159.239H163.358V160.493ZM178.208 161.165C178.059 162.443 177.585 163.431 176.789 164.128C175.997 164.82 174.943 165.166 173.626 165.166C172.198 165.166 171.053 164.654 170.189 163.63C169.332 162.607 168.903 161.237 168.903 159.521V158.359C168.903 157.236 169.102 156.248 169.5 155.396C169.904 154.544 170.474 153.891 171.21 153.437C171.946 152.978 172.799 152.748 173.767 152.748C175.051 152.748 176.08 153.108 176.855 153.827C177.63 154.541 178.081 155.532 178.208 156.799H176.606C176.468 155.836 176.166 155.139 175.701 154.707C175.242 154.275 174.597 154.06 173.767 154.06C172.749 154.06 171.949 154.436 171.368 155.188C170.793 155.941 170.505 157.012 170.505 158.401V159.571C170.505 160.883 170.779 161.926 171.327 162.701C171.875 163.475 172.641 163.863 173.626 163.863C174.511 163.863 175.189 163.664 175.66 163.265C176.136 162.861 176.451 162.161 176.606 161.165H178.208ZM184.492 157.396C184.259 157.358 184.007 157.338 183.736 157.338C182.729 157.338 182.046 157.767 181.686 158.625V165H180.15V156.019H181.645L181.669 157.056C182.173 156.254 182.887 155.853 183.811 155.853C184.11 155.853 184.337 155.891 184.492 155.969V157.396ZM189.472 165.166C188.255 165.166 187.264 164.768 186.5 163.971C185.737 163.168 185.355 162.097 185.355 160.758V160.476C185.355 159.585 185.524 158.791 185.861 158.094C186.204 157.391 186.68 156.843 187.289 156.45C187.903 156.052 188.567 155.853 189.281 155.853C190.449 155.853 191.356 156.237 192.004 157.006C192.651 157.776 192.975 158.877 192.975 160.31V160.949H186.891C186.913 161.835 187.17 162.551 187.663 163.099C188.161 163.641 188.792 163.913 189.555 163.913C190.097 163.913 190.557 163.802 190.933 163.581C191.309 163.359 191.639 163.066 191.921 162.701L192.859 163.431C192.106 164.588 190.977 165.166 189.472 165.166ZM189.281 157.114C188.661 157.114 188.141 157.341 187.721 157.795C187.3 158.243 187.04 158.874 186.94 159.688H191.439V159.571C191.395 158.791 191.185 158.188 190.809 157.762C190.432 157.33 189.923 157.114 189.281 157.114ZM200.305 165C200.216 164.823 200.144 164.507 200.089 164.054C199.375 164.795 198.523 165.166 197.532 165.166C196.647 165.166 195.919 164.917 195.349 164.419C194.785 163.915 194.502 163.279 194.502 162.51C194.502 161.575 194.857 160.85 195.565 160.335C196.279 159.815 197.28 159.555 198.57 159.555H200.064V158.849C200.064 158.312 199.903 157.886 199.583 157.571C199.262 157.25 198.788 157.089 198.163 157.089C197.615 157.089 197.156 157.228 196.785 157.504C196.414 157.781 196.229 158.116 196.229 158.509H194.685C194.685 158.061 194.843 157.629 195.158 157.214C195.479 156.793 195.911 156.461 196.453 156.218C197.001 155.974 197.601 155.853 198.254 155.853C199.289 155.853 200.1 156.113 200.687 156.633C201.273 157.147 201.577 157.859 201.6 158.766V162.9C201.6 163.724 201.705 164.38 201.915 164.867V165H200.305ZM197.756 163.83C198.238 163.83 198.694 163.705 199.126 163.456C199.558 163.207 199.87 162.883 200.064 162.485V160.642H198.86C196.979 160.642 196.038 161.193 196.038 162.294C196.038 162.775 196.199 163.152 196.52 163.423C196.84 163.694 197.253 163.83 197.756 163.83ZM206.09 153.844V156.019H207.767V157.206H206.09V162.775C206.09 163.135 206.165 163.406 206.314 163.589C206.464 163.766 206.718 163.854 207.078 163.854C207.255 163.854 207.499 163.821 207.809 163.755V165C207.405 165.111 207.012 165.166 206.63 165.166C205.944 165.166 205.426 164.958 205.078 164.543C204.729 164.128 204.555 163.539 204.555 162.775V157.206H202.919V156.019H204.555V153.844H206.09ZM208.996 160.426C208.996 159.546 209.167 158.755 209.51 158.052C209.859 157.349 210.34 156.807 210.955 156.425C211.574 156.043 212.28 155.853 213.071 155.853C214.294 155.853 215.282 156.276 216.035 157.123C216.793 157.969 217.172 159.095 217.172 160.501V160.609C217.172 161.483 217.003 162.269 216.666 162.966C216.333 163.658 215.855 164.198 215.229 164.585C214.61 164.972 213.896 165.166 213.088 165.166C211.87 165.166 210.883 164.743 210.125 163.896C209.372 163.049 208.996 161.929 208.996 160.534V160.426ZM210.54 160.609C210.54 161.605 210.769 162.405 211.229 163.008C211.693 163.611 212.313 163.913 213.088 163.913C213.868 163.913 214.488 163.608 214.947 163C215.407 162.385 215.636 161.528 215.636 160.426C215.636 159.441 215.401 158.644 214.931 158.036C214.466 157.421 213.846 157.114 213.071 157.114C212.313 157.114 211.702 157.416 211.237 158.019C210.772 158.622 210.54 159.486 210.54 160.609ZM223.439 157.396C223.207 157.358 222.955 157.338 222.684 157.338C221.676 157.338 220.993 157.767 220.633 158.625V165H219.098V156.019H220.592L220.617 157.056C221.12 156.254 221.834 155.853 222.758 155.853C223.057 155.853 223.284 155.891 223.439 155.969V157.396ZM230.918 163.697H236.646V165H229.316V152.914H230.918V163.697ZM243.768 165C243.679 164.823 243.607 164.507 243.552 164.054C242.838 164.795 241.986 165.166 240.995 165.166C240.11 165.166 239.382 164.917 238.812 164.419C238.248 163.915 237.965 163.279 237.965 162.51C237.965 161.575 238.319 160.85 239.028 160.335C239.742 159.815 240.743 159.555 242.033 159.555H243.527V158.849C243.527 158.312 243.366 157.886 243.045 157.571C242.724 157.25 242.251 157.089 241.626 157.089C241.078 157.089 240.619 157.228 240.248 157.504C239.877 157.781 239.692 158.116 239.692 158.509H238.148C238.148 158.061 238.306 157.629 238.621 157.214C238.942 156.793 239.374 156.461 239.916 156.218C240.464 155.974 241.064 155.853 241.717 155.853C242.752 155.853 243.563 156.113 244.149 156.633C244.736 157.147 245.04 157.859 245.062 158.766V162.9C245.062 163.724 245.168 164.38 245.378 164.867V165H243.768ZM241.219 163.83C241.701 163.83 242.157 163.705 242.589 163.456C243.021 163.207 243.333 162.883 243.527 162.485V160.642H242.323C240.442 160.642 239.501 161.193 239.501 162.294C239.501 162.775 239.661 163.152 239.982 163.423C240.303 163.694 240.716 163.83 241.219 163.83ZM253.015 164.112C252.417 164.815 251.54 165.166 250.383 165.166C249.426 165.166 248.695 164.889 248.192 164.336C247.694 163.777 247.442 162.952 247.437 161.862V156.019H248.972V161.821C248.972 163.182 249.526 163.863 250.632 163.863C251.806 163.863 252.586 163.426 252.973 162.551V156.019H254.509V165H253.048L253.015 164.112ZM258.302 156.019L258.352 157.147C259.038 156.284 259.935 155.853 261.042 155.853C262.94 155.853 263.897 156.923 263.914 159.065V165H262.378V159.057C262.372 158.409 262.223 157.931 261.93 157.621C261.642 157.311 261.191 157.156 260.577 157.156C260.079 157.156 259.641 157.289 259.265 157.554C258.889 157.82 258.596 158.168 258.385 158.6V165H256.85V156.019H258.302ZM269.832 163.913C270.38 163.913 270.859 163.747 271.268 163.415C271.678 163.083 271.904 162.667 271.949 162.169H273.401C273.374 162.684 273.197 163.174 272.87 163.639C272.544 164.104 272.106 164.474 271.559 164.751C271.016 165.028 270.441 165.166 269.832 165.166C268.609 165.166 267.635 164.759 266.91 163.946C266.191 163.127 265.831 162.009 265.831 160.592V160.335C265.831 159.461 265.992 158.683 266.312 158.002C266.633 157.322 267.093 156.793 267.69 156.417C268.294 156.041 269.005 155.853 269.824 155.853C270.831 155.853 271.667 156.154 272.331 156.757C273 157.361 273.357 158.144 273.401 159.106H271.949C271.904 158.525 271.683 158.049 271.285 157.679C270.892 157.302 270.405 157.114 269.824 157.114C269.043 157.114 268.438 157.396 268.006 157.961C267.58 158.52 267.367 159.331 267.367 160.393V160.684C267.367 161.718 267.58 162.515 268.006 163.074C268.432 163.633 269.041 163.913 269.832 163.913ZM276.664 157.106C277.344 156.27 278.23 155.853 279.32 155.853C281.218 155.853 282.175 156.923 282.192 159.065V165H280.656V159.057C280.651 158.409 280.501 157.931 280.208 157.621C279.92 157.311 279.469 157.156 278.855 157.156C278.357 157.156 277.92 157.289 277.543 157.554C277.167 157.82 276.874 158.168 276.664 158.6V165H275.128V152.25H276.664V157.106ZM292.078 160.609C292.078 161.976 291.765 163.077 291.14 163.913C290.515 164.748 289.668 165.166 288.6 165.166C287.51 165.166 286.652 164.82 286.027 164.128V168.453H284.491V156.019H285.894L285.969 157.015C286.594 156.24 287.463 155.853 288.575 155.853C289.654 155.853 290.507 156.259 291.132 157.073C291.763 157.886 292.078 159.018 292.078 160.468V160.609ZM290.542 160.435C290.542 159.422 290.327 158.622 289.895 158.036C289.463 157.449 288.871 157.156 288.119 157.156C287.189 157.156 286.492 157.568 286.027 158.393V162.684C286.486 163.503 287.189 163.913 288.135 163.913C288.871 163.913 289.455 163.622 289.887 163.041C290.324 162.454 290.542 161.586 290.542 160.435ZM299.582 165C299.493 164.823 299.422 164.507 299.366 164.054C298.652 164.795 297.8 165.166 296.81 165.166C295.924 165.166 295.196 164.917 294.626 164.419C294.062 163.915 293.78 163.279 293.78 162.51C293.78 161.575 294.134 160.85 294.842 160.335C295.556 159.815 296.558 159.555 297.847 159.555H299.341V158.849C299.341 158.312 299.181 157.886 298.86 157.571C298.539 157.25 298.066 157.089 297.44 157.089C296.893 157.089 296.433 157.228 296.062 157.504C295.692 157.781 295.506 158.116 295.506 158.509H293.962C293.962 158.061 294.12 157.629 294.436 157.214C294.757 156.793 295.188 156.461 295.73 156.218C296.278 155.974 296.879 155.853 297.532 155.853C298.567 155.853 299.377 156.113 299.964 156.633C300.55 157.147 300.855 157.859 300.877 158.766V162.9C300.877 163.724 300.982 164.38 301.192 164.867V165H299.582ZM297.034 163.83C297.515 163.83 297.972 163.705 298.403 163.456C298.835 163.207 299.148 162.883 299.341 162.485V160.642H298.138C296.256 160.642 295.315 161.193 295.315 162.294C295.315 162.775 295.476 163.152 295.797 163.423C296.118 163.694 296.53 163.83 297.034 163.83ZM302.911 160.435C302.911 159.057 303.237 157.95 303.89 157.114C304.543 156.273 305.398 155.853 306.455 155.853C307.507 155.853 308.339 156.212 308.954 156.932V152.25H310.489V165H309.078L309.003 164.037C308.389 164.79 307.534 165.166 306.438 165.166C305.398 165.166 304.549 164.74 303.89 163.888C303.237 163.035 302.911 161.923 302.911 160.551V160.435ZM304.446 160.609C304.446 161.627 304.657 162.424 305.077 163C305.498 163.575 306.079 163.863 306.82 163.863C307.794 163.863 308.505 163.426 308.954 162.551V158.426C308.494 157.579 307.789 157.156 306.837 157.156C306.084 157.156 305.498 157.446 305.077 158.027C304.657 158.608 304.446 159.469 304.446 160.609ZM321.338 162.883L324.792 152.914H326.535L322.052 165H320.641L316.167 152.914H317.902L321.338 162.883ZM332.81 165H331.266V154.765L328.17 155.902V154.508L332.569 152.856H332.81V165Z" fill="black"/>
<path d="M81.9141 107.68C81.9141 108.779 81.7396 109.727 81.3906 110.523C81.0417 111.315 80.5521 111.935 79.9219 112.383L81.9531 113.977L80.9297 114.922L78.5312 113.016C78.1562 113.109 77.7604 113.156 77.3438 113.156C76.4479 113.156 75.6536 112.938 74.9609 112.5C74.2682 112.057 73.7292 111.43 73.3438 110.617C72.9635 109.799 72.7682 108.854 72.7578 107.781V106.961C72.7578 105.867 72.9479 104.901 73.3281 104.062C73.7083 103.224 74.2448 102.583 74.9375 102.141C75.6354 101.693 76.4323 101.469 77.3281 101.469C78.2448 101.469 79.0495 101.69 79.7422 102.133C80.4401 102.576 80.9766 103.214 81.3516 104.047C81.7266 104.875 81.9141 105.844 81.9141 106.953V107.68ZM80.4141 106.945C80.4141 105.607 80.1458 104.576 79.6094 103.852C79.0781 103.122 78.3177 102.758 77.3281 102.758C76.3854 102.758 75.6406 103.12 75.0938 103.844C74.5521 104.562 74.2734 105.562 74.2578 106.844V107.68C74.2578 108.982 74.5286 110.008 75.0703 110.758C75.6172 111.508 76.375 111.883 77.3438 111.883C78.3125 111.883 79.0625 111.531 79.5938 110.828C80.125 110.12 80.3984 109.107 80.4141 107.789V106.945ZM88.6016 113H87.1484V103.367L84.2344 104.438V103.125L88.375 101.57H88.6016V113ZM72.3672 132H64.9141V130.961L68.8516 126.586C69.4349 125.924 69.8359 125.388 70.0547 124.977C70.2786 124.56 70.3906 124.13 70.3906 123.688C70.3906 123.094 70.2109 122.607 69.8516 122.227C69.4922 121.846 69.013 121.656 68.4141 121.656C67.6953 121.656 67.1354 121.862 66.7344 122.273C66.3385 122.68 66.1406 123.247 66.1406 123.977H64.6953C64.6953 122.93 65.0312 122.083 65.7031 121.438C66.3802 120.792 67.2839 120.469 68.4141 120.469C69.4714 120.469 70.3073 120.747 70.9219 121.305C71.5365 121.857 71.8438 122.594 71.8438 123.516C71.8438 124.635 71.1302 125.969 69.7031 127.516L66.6562 130.82H72.3672V132ZM81.0312 127.148C81.0312 128.841 80.7422 130.099 80.1641 130.922C79.5859 131.745 78.6823 132.156 77.4531 132.156C76.2396 132.156 75.3411 131.755 74.7578 130.953C74.1745 130.146 73.8724 128.943 73.8516 127.344V125.414C73.8516 123.742 74.1406 122.5 74.7188 121.688C75.2969 120.875 76.2031 120.469 77.4375 120.469C78.6615 120.469 79.5625 120.862 80.1406 121.648C80.7188 122.43 81.0156 123.638 81.0312 125.273V127.148ZM79.5859 125.172C79.5859 123.948 79.4141 123.057 79.0703 122.5C78.7266 121.938 78.1823 121.656 77.4375 121.656C76.6979 121.656 76.1589 121.935 75.8203 122.492C75.4818 123.049 75.3073 123.906 75.2969 125.062V127.375C75.2969 128.604 75.474 129.513 75.8281 130.102C76.1875 130.685 76.7292 130.977 77.4531 130.977C78.1667 130.977 78.6953 130.701 79.0391 130.148C79.388 129.596 79.5703 128.727 79.5859 127.539V125.172ZM90.3359 132H82.8828V130.961L86.8203 126.586C87.4036 125.924 87.8047 125.388 88.0234 124.977C88.2474 124.56 88.3594 124.13 88.3594 123.688C88.3594 123.094 88.1797 122.607 87.8203 122.227C87.4609 121.846 86.9818 121.656 86.3828 121.656C85.6641 121.656 85.1042 121.862 84.7031 122.273C84.3073 122.68 84.1094 123.247 84.1094 123.977H82.6641C82.6641 122.93 83 122.083 83.6719 121.438C84.349 120.792 85.2526 120.469 86.3828 120.469C87.4401 120.469 88.276 120.747 88.8906 121.305C89.5052 121.857 89.8125 122.594 89.8125 123.516C89.8125 124.635 89.099 125.969 87.6719 127.516L84.625 130.82H90.3359V132ZM99.3203 132H91.8672V130.961L95.8047 126.586C96.388 125.924 96.7891 125.388 97.0078 124.977C97.2318 124.56 97.3438 124.13 97.3438 123.688C97.3438 123.094 97.1641 122.607 96.8047 122.227C96.4453 121.846 95.9661 121.656 95.3672 121.656C94.6484 121.656 94.0885 121.862 93.6875 122.273C93.2917 122.68 93.0938 123.247 93.0938 123.977H91.6484C91.6484 122.93 91.9844 122.083 92.6562 121.438C93.3333 120.792 94.237 120.469 95.3672 120.469C96.4245 120.469 97.2604 120.747 97.875 121.305C98.4896 121.857 98.7969 122.594 98.7969 123.516C98.7969 124.635 98.0833 125.969 96.6562 127.516L93.6094 130.82H99.3203V132Z" fill="black"/>
</svg>
